<svg width="16" height="16" viewBox="0 0 16 16" fill="none" xmlns="http://www.w3.org/2000/svg">
    <path d="M16 8.14c0-.723-.59-1.313-1.314-1.313H2.204V2.558c0-.492.4-.891.892-.891h.233c.242 0 .47.098.635.265l-.04.04a1.706 1.706 0 0 0 0 2.41l.226.225a.507.507 0 0 0 .72 0l2.224-2.225a.509.509 0 0 0 0-.72l-.225-.225a1.692 1.692 0 0 0-1.205-.5c-.348 0-.68.105-.96.297A1.911 1.911 0 0 0 3.329.65h-.233c-1.053 0-1.91.856-1.91 1.909v4.276A1.315 1.315 0 0 0 0 8.14c0 .557.35 1.033.84 1.224v1.677a3.072 3.072 0 0 0 2.449 3.004l-.437.437a.509.509 0 1 0 .72.72l1.094-1.094h6.668l1.094 1.093a.507.507 0 0 0 .72 0 .509.509 0 0 0 0-.72l-.437-.436a3.072 3.072 0 0 0 2.449-3.004V9.365c.49-.19.84-.667.84-1.224zM5.664 1.956c.118 0 .232.03.332.086L4.528 3.508a.687.687 0 0 1 .116-.817l.535-.535c.13-.13.302-.2.485-.2zm-4.35 5.89h13.372a.296.296 0 0 1 0 .592H1.314a.296.296 0 0 1 0-.592zm12.828 3.197c0 1.13-.92 2.049-2.05 2.049H3.908c-1.13 0-2.05-.92-2.05-2.05V9.47h12.285v1.573z" fill="#626262"/>
</svg>
