<svg width="75" height="74" viewBox="0 0 75 74" fill="none" xmlns="http://www.w3.org/2000/svg">
    <path d="M35.121 17.718c-9.055 1.023-16.458 8.268-17.56 17.324-.945 7.874 2.756 15.04 8.662 19.056a5.519 5.519 0 0 1 2.52 4.646v1.654H45.83v-1.575c0-1.81.867-3.622 2.441-4.645 5.434-3.544 8.977-9.686 8.977-16.695.08-11.733-10.079-21.104-22.127-19.765zM28.822 69.14c0 .708.315 1.338.867 1.81l2.44 2.048c.394.315.945.551 1.497.551h7.56c.551 0 1.102-.157 1.496-.551l2.441-2.047c.552-.473.866-1.103.866-1.811v-4.41H28.823v4.41zM37.404 11.576a2.453 2.453 0 0 0 2.44-2.441V2.44A2.453 2.453 0 0 0 37.405 0a2.453 2.453 0 0 0-2.441 2.441v6.615c0 1.417 1.024 2.52 2.44 2.52zM21.104 14.175c.472.787 1.26 1.26 2.126 1.26.394 0 .866-.079 1.18-.315 1.182-.709 1.576-2.205.867-3.307L21.97 6.064c-.709-1.18-2.205-1.575-3.308-.866-1.18.709-1.574 2.205-.866 3.307l3.308 5.67zM5.907 22.128l5.748 3.307c.394.236.788.315 1.181.315.866 0 1.654-.473 2.126-1.26.709-1.181.236-2.677-.866-3.308l-5.748-3.306c-1.181-.709-2.678-.237-3.308.866-.708 1.18-.314 2.677.867 3.386zM11.497 37.483a2.453 2.453 0 0 0-2.44-2.44H2.44A2.453 2.453 0 0 0 0 37.482a2.453 2.453 0 0 0 2.441 2.442h6.615c1.417 0 2.441-1.103 2.441-2.441zM11.655 49.532l-5.748 3.307c-1.181.709-1.575 2.205-.867 3.307.473.788 1.26 1.26 2.127 1.26.393 0 .866-.078 1.18-.314l5.749-3.308c1.18-.708 1.575-2.205.866-3.307-.63-1.26-2.126-1.654-3.307-.945zM68.903 52.76l-5.748-3.307c-1.181-.709-2.678-.236-3.308.866-.708 1.181-.236 2.677.867 3.307l5.748 3.308c.394.236.787.314 1.18.314.867 0 1.655-.472 2.127-1.26.709-1.023.315-2.52-.866-3.228zM72.368 34.963h-6.614a2.453 2.453 0 0 0-2.442 2.441 2.453 2.453 0 0 0 2.442 2.441h6.614a2.453 2.453 0 0 0 2.441-2.44 2.453 2.453 0 0 0-2.441-2.442zM61.895 25.671c.394 0 .866-.079 1.181-.315l5.748-3.307c1.181-.709 1.575-2.205.867-3.308-.709-1.18-2.205-1.574-3.308-.866l-5.748 3.308c-1.18.708-1.575 2.204-.866 3.307.472.787 1.26 1.18 2.126 1.18v.001zM50.319 15.04c.394.237.787.315 1.18.315.867 0 1.655-.472 2.127-1.26l3.307-5.748c.709-1.181.237-2.678-.866-3.308-1.18-.708-2.677-.314-3.307.867l-3.307 5.748c-.71 1.181-.315 2.677.866 3.386z" fill="#6D87CB"/>
</svg>
