<svg width="347" height="405" viewBox="0 0 347 405" fill="none" xmlns="http://www.w3.org/2000/svg">
    <path opacity=".6" d="M67.486 68.602c-.731-2.01-3.491-2.171-5.359-2.374-1.055-.102-2.13-.082-3.146.223-.832.264-1.725 1.035-2.557 1.197a1.09 1.09 0 0 0-.406.203c-.832.163-1.664.427-2.496.772a2.043 2.043 0 0 0-.142-.305c.243-.568.446-1.136.588-1.705.223-.913.568-1.867.73-2.821 1.239-.223 2.436-.548 3.106-1.725.406-.71.224-1.482-.264-2.09-1.36-1.665-4.018-.914-5.825-.508-1.035.243-2.05.609-2.902 1.238-.71.507-1.3 1.542-2.03 1.948a.887.887 0 0 0-.325.345c-.832.467-1.603 1.076-2.354 1.766.06-.771.102-1.542.02-2.273-.122-1.157-.04-2.456-.365-3.572-.426-1.502-2.598-1.867-3.39-.447-1.542 2.76-.324 6.272 1.97 8.14a30.616 30.616 0 0 0-2.477 3.47c-.365-.507-.812-.893-1.198-1.38-.345-.447-.527-1.015-.791-1.502-.589-1.035-1.258-2.618-2.517-2.903h-.02c.446-.365.832-.75 1.136-1.217.467-.731.02-1.908-.872-2.07-2.131-.407-4.242.994-5.907 2.232-.324.244-.69.548-1.075.893.284-1.218.507-2.435.568-3.653.63-.467 1.664-.731 2.253-1.117.73-.466 1.36-1.116 1.989-1.705 1.32-1.217 3.187-2.171 3.166-4.18 0-.833-.548-1.401-1.278-1.685-2.01-.772-3.938 1.218-5.298 2.476-.771.73-1.461 1.542-1.887 2.517-.346.791-.366 1.968-.772 2.7a.897.897 0 0 0-.101.446c-.487.812-.853 1.725-1.177 2.7-.325-.691-.69-1.381-1.117-1.97-.69-.954-1.258-2.11-2.09-2.902-1.137-1.096-3.187-.305-3.166 1.32.04 3.165 2.841 5.58 5.764 6.068-.061.304-.082.63-.122.954a1.661 1.661 0 0 0-.223-.345c-.325-.366-.873-.467-1.34-.345-1.035.243-1.664 1.34-2.192 2.314-.994-.61-2.212-1.421-3.349-1.076-.446.142-.873.487-.974.974-.04.244-.061.487-.02.71-.163-.203-.305-.405-.467-.608 2.293-1.868 3.511-5.379 1.968-8.14-.791-1.42-2.963-1.075-3.389.447-.325 1.116-.244 2.395-.365 3.572-.082.731-.04 1.502.02 2.274-.751-.69-1.543-1.3-2.354-1.766-.082-.122-.163-.244-.325-.345-.73-.426-1.32-1.441-2.03-1.97-.852-.628-1.867-.994-2.902-1.237-1.807-.426-4.486-1.157-5.825.507-.508.61-.67 1.38-.264 2.09.974 1.746 3.085 1.625 4.83 2.03.832.183 1.705.427 2.578.467.71.04 1.725-.264 2.517-.162.65 1.015 1.461 1.948 2.314 2.862a9.944 9.944 0 0 0-1.38-.244c-2.05-.243-4.588-.385-6.232 1.015-.67.589-.487 1.827.285 2.233 1.644.852 3.856.527 5.683.609 1.34.06 3.267.284 4.607-.244.122.162.243.304.365.467.71 1.015 1.36 2.09 1.99 3.166-.021 0-.041 0-.062.02-.162.061-.304.142-.446.244-.568-.04-1.137-.04-1.705-.061-1.38-.06-2.68-.589-4.04-.568-1.826.02-2.597 2.577-.953 3.49 1.745.975 4.85 1.137 7.043.224.67.487 1.563.792 2.334.954.142.304.264.609.386.913.284.71.548 1.441.791 2.152-.507-.102-1.035-.102-1.623-.142-1.157-.102-2.253-.508-3.39-.731-2.618-.487-3.613 3.085-1.096 3.978 1.157.426 2.375.447 3.593.305-.183.791.08 1.725.832 2.192.994.608 2.171.811 3.349.811.121.69.223 1.401.324 2.091h-5.622v36.798h25.513V91.335h-8.585c1.014-2.192 2.151-4.303 3.49-6.333.325.04.67.081.995.101.467.406 1.056.71 1.563.995 1.279.67 2.659 1.198 4.12 1.177 2.68-.04 2.903-3.734.264-4.12-.487-.081-.995-.102-1.502-.142.102-1.157-.75-2.355-2.212-2.273.04-.061.08-.102.142-.163.67-.771 1.38-1.502 2.11-2.212 1.218 2.415 5.339 3.877 7.815 3.43 1.867-.325 1.969-3.004.243-3.613-1.278-.466-2.7-.385-4.018-.791-.244-.081-.488-.142-.71-.224.608-.547.69-1.4.405-2.09.406-.305.792-.63 1.198-.934.162-.121.324-.223.487-.325 1.096.934 3.004 1.34 4.282 1.726 1.746.528 3.735 1.542 5.562 1.278.852-.121 1.44-1.238.994-2.009-1.096-1.867-3.531-2.537-5.561-3.004a11.786 11.786 0 0 0-1.38-.203c1.096-.588 2.172-1.218 3.125-1.969.772.163 1.624.772 2.314.975.832.243 1.746.304 2.598.385 1.786.203 3.735.975 5.237-.345.588-.548.67-1.319.406-2.05zm-19.607-4.201c.65-.081 1.462.101 2.131.142-.182.771-.203 1.563-.121 2.354-.995-.06-2.03.02-2.964.122-.243.02-.507.081-.791.122a8.86 8.86 0 0 1-.122-.386c.69-.73 1.32-1.522 1.867-2.354zm-5.297 6.251c.162.061.325.122.507.163.569 1.197 1.543 2.598 2.537 3.105.02 0 .02 0 .04.02l-.04.04c-1.055.123-2.11.447-3.186.508-.61.02-1.198.02-1.786.082a13.229 13.229 0 0 1-.244-.528 42.988 42.988 0 0 1 1.827-2.882c.101-.183.223-.345.345-.508zM38.827 81.45c-.122.02-.223.04-.345.061-.589.06-1.117.04-1.624.142.244-.73.508-1.441.812-2.151.223-.548.467-1.096.71-1.624.589.609 1.259 1.116 1.99 1.583a39.583 39.583 0 0 0-1.543 1.99zm-1.685-9.884a1.863 1.863 0 0 0-.528.466c-.75 1.036-.344 2.538.224 3.694-.061.142-.142.285-.203.427-.913-.447-1.725-1.035-2.476-1.726-.183-.182-.386-.385-.589-.609.71-.547 1.32-1.177 1.685-1.806.466-.791.264-1.603-.264-2.151.588.588 1.36 1.258 2.151 1.705zM25.248 85.469h-.02a42.477 42.477 0 0 0-1.603-5.257c.73-.162 1.44-.386 2.09-.69.183 1.055.386 2.09.65 3.126a1.928 1.928 0 0 0 .06 1.603c.183.325.386.609.63.873 0 .02.02.04.02.08-.02 0-.02.021-.04.021a5.438 5.438 0 0 1-.447.284c-.467 0-.913 0-1.34-.04zm-4.83-12.158h.04c.751-.122 1.645-.63 2.436-1.258.771.06 1.502.02 2.07-.203.02 0 .02-.02.04-.02.021 1.197.102 2.334.204 3.43-.102.121-.223.223-.325.324-.284.264-.568.467-.852.69a10.369 10.369 0 0 1-1.746-.263c-.183-.041-.365-.102-.548-.163a61.875 61.875 0 0 0-1.32-2.537zm13.964 7.977c.142-.122.284-.284.426-.426-.081.243-.162.507-.243.75-.061-.121-.122-.223-.183-.324zm-2.842-3.999c.183.142.386.264.569.406-.873.751-1.624 1.644-2.558 2.314-.487.345-.954.609-1.34.934-.141-.751-.283-1.502-.385-2.274l-.06-.466c.75-.65 1.542-1.584 1.785-2.558.122-.02.264-.06.386-.081a8.271 8.271 0 0 0 1.603 1.725zm-.852 10.19c.75.243 1.664.425 2.476.344a41.566 41.566 0 0 0-.345 3.532h-1.157a48.664 48.664 0 0 1-1.482-3.552c.163-.122.346-.223.508-.325zM27.603 69.15c.02-.203.04-.385.081-.588 1.42-.224 2.984-1.38 4.12-2.111.528-.345 1.137-.67 1.726-.995-.427 1.3.284 2.903 1.075 3.938.102.122.203.243.325.365-.568-.548-1.441-.771-2.233-.325-1.197.67-2.07 1.766-3.227 2.517-.69.447-1.4.812-2.01 1.34-.02-1.38.021-2.76.143-4.14zm-8.22 1.928c-.061.061-.122.122-.163.183-.101-.162-.223-.325-.324-.507.162.121.324.223.487.325zm6.515 17.983c.081-.02.183-.04.264-.06.73.02 1.502-.122 2.172-.346.385.914.811 1.827 1.258 2.7h-3.43a28.291 28.291 0 0 0-.264-2.294zm10.676-4.648c.06.041.122.061.203.102-.02.02-.04.06-.061.081-.04-.06-.102-.122-.142-.183zm10.879-12.015c-.163-.528-.406-.995-.609-1.502.122 0 .244-.02.345-.02.71-.041 1.502 0 2.273 0-.67.507-1.36.994-2.01 1.522z" fill="#E5C489"/>
    <g opacity=".6" fill="#E5C489">
        <path opacity=".6" d="M340.945 15.202H198.787v4.77h142.158v-4.77zM340.945 24.924H198.787v4.77h142.158v-4.77zM340.945 34.646H198.787v4.77h142.158v-4.77zM340.945 44.348H198.787v4.77h142.158v-4.77zM340.945 54.07H198.787v4.77h142.158v-4.77zM340.945 63.791H198.787v4.77h142.158v-4.77zM340.945 73.514H198.787v4.77h142.158v-4.77zM340.945 83.216H198.787v4.77h142.158v-4.77zM340.945 92.938H198.787v4.77h142.158v-4.77zM340.945 102.66H198.787v4.769h142.158v-4.769zM340.945 112.382H198.787v4.77h142.158v-4.77zM340.945 122.083H198.787v4.77h142.158v-4.77zM340.945 131.806H198.787v4.769h142.158v-4.769z"/>
    </g>
    <path opacity=".6" d="M5.602 133.308v73.697h121.373v-73.697H5.602zm14.065 24.417a7.84 7.84 0 0 1-7.834-7.835 7.839 7.839 0 0 1 7.834-7.834 7.826 7.826 0 0 1 7.835 7.834 7.84 7.84 0 0 1-7.835 7.835zm98.398 42.298H33.367v-58.15h84.718v58.15h-.02z" fill="#E5C489"/>
    <path d="M102.235 202.195h-4.607l-.02-26.041a2.313 2.313 0 1 1 4.627 0v26.041z" fill="#3F3937"/>
    <path d="m98.926 241.753-1.258 2.577-.041-49.117 11.995-.021a106.61 106.61 0 0 1-10.696 46.561z" fill="#D3C5D0"/>
    <path d="M87.339 202.195H82.73l-.02-26.041a2.313 2.313 0 1 1 4.628 0v26.041z" fill="#3F3937"/>
    <path d="m84.03 241.753-1.259 2.577-.04-49.117 11.995-.021c0 16.136-3.654 32.049-10.697 46.561z" fill="#D3C5D0"/>
    <path d="M60.022 249.382h52.466v-42.643H60.022v42.643z" fill="#CA8B56"/>
    <path d="M152.528 221.131h-34.464l2.68-39.741.182-2.638.345-5.399h28.05l.366 5.399.182 2.638 2.659 39.741z" fill="#BD4761"/>
    <path d="M151.94 173.353h-33.266v5.399h33.266v-5.399z" fill="#BD4761"/>
    <path d="M149.872 181.391h-29.126l.183-2.639h28.76l.183 2.639zM144.715 196.268c-1.076-2.192-4.932-3.775-6.982-4.831-3.268-1.684-6.738-3.004-10.351-3.755-.406-.081-.568.508-.162.63 4.972 1.481 9.701 3.389 14.045 6.251 1.563 1.015 3.775 2.07 1.522 3.471-1.157.71-2.862.832-4.161 1.055-2.902.508-5.805.528-8.727.406-.792-.04-.751 1.116 0 1.198 2.212.223 17.11.284 14.816-4.425zM146.582 214.9c-8.585.833-16.318-1.765-23.381-6.515-.224-.142-.488.203-.285.365 6.394 5.541 15.385 7.733 23.666 6.942.508-.041.508-.853 0-.792z" fill="#B23959"/>
    <path d="M258.618 191.843c-4.019 4.019-7.286 6.414-7.286 6.414l-11.935-19.688 3.714-6.637 5.765-10.29-15.953-18.125-7.165-24.518 1.806-19.039c16.42 0 43.577 40.289 45.769 60.403 1.401 12.726-7.794 24.539-14.715 31.48z" fill="#fff"/>
    <path d="M159.066 203.838s-2.456 9.215-2.781 16.968h78.223s-.994-11.873-5.581-22.549l-69.861 5.581z" fill="#444"/>
    <path d="M176.681 36.818c-10.655-1.786-18.185-18.693 2.335-25.452 0 0 14.451-23.057 33.428-3.491 0 0 14.614-7.956 19.018 14.898 0 0 10.94 12.035-9.093 16.663l-45.688-2.618z" fill="#fff"/>
    <path d="M95.576 74.935c1.299-.487 13.335 18.348 13.335 18.348.507-3.512 2.273-6.84 4.871-9.255.02-.02.04-.041.081-.061.244-.203.548-.386.832-.285.142.041.244.163.345.264.812.975.954 2.355.751 3.613-.203 1.238-.731 2.415-1.076 3.633-.669 2.334-.446 4.77-.203 7.185.406 4.08-5.358 8.728-5.358 8.728l.528 1.299-10.859 4.627-1.461-4.079-2.78-1.502c-1.848-1.34-11.55-20.439-10.494-21.434.284-.263.609-.527.954-.77.528-.366 1.035-.69 1.38-.894.264-.142.426-.223.426-.223s.365-.71.913-1.461c.305-.447.67-.914 1.056-1.28.406-.385.812-.628 1.177-.588.365.061 1.34.995 2.558 2.314 2.983 3.227 7.387 8.646 7.55 8.16.203-.69-6.252-14.716-6.252-14.716s.183-.446.63-.913a2.85 2.85 0 0 1 1.096-.71z" fill="#F3A080"/>
    <path d="M87.74 82.668c.224.345.447.69.67 1.014a35.547 35.547 0 0 0 3.978 4.77c1.056 1.055 1.806 1.664 1.888 1.746-.061-.102-.508-.954-1.238-2.233a82.601 82.601 0 0 0-3.268-5.196c-.325-.467-.65-.934-.974-1.36-.366.345-.731.812-1.056 1.259zM85.041 85.245c2.131 3.227 4.384 5.42 4.526 5.561-.06-.182-1.116-3.166-3.146-6.454-.345.203-.852.528-1.38.893z" fill="#B54B57"/>
    <path d="M107.247 109.622c-.021-.061-.061-.122-.081-.183-.122-.325-.264-.65-.346-.995a2.886 2.886 0 0 1-.06-.832c.081-.751.588-1.4 1.096-1.948 1.644-1.847 3.491-3.633 4.343-5.947.995-2.74.426-5.805.913-8.687.345-2.09 1.239-4.181.914-6.272a13.455 13.455 0 0 0-.163-.771c.244-.203.548-.386.833-.284.142.06.243.162.345.284.811.974.954 2.354.751 3.613-.203 1.258-.731 2.415-1.076 3.633-.67 2.334-.447 4.77-.203 7.185.406 4.079-5.358 8.748-5.358 8.748s.304.507.69 1.035c.02.04.061.081.101.142l.284.426-2.983.853z" fill="#F8BF92"/>
    <path d="M101.827 106.577s-.081-.142-.203-.386a6.009 6.009 0 0 1-.446-1.136 7.262 7.262 0 0 1 .06-4.06c.488-1.542 1.441-2.72 2.253-3.369.406-.325.751-.568 1.015-.69l.406-.203-.223.386c-.142.223-.345.588-.568 1.014-.447.853-.954 2.03-1.36 3.349-.406 1.32-.67 2.558-.772 3.532-.06.467-.101.873-.101 1.157-.041.243-.061.406-.061.406z" fill="#DD5B67"/>
    <path d="M94.213 115.487s1.218 2.314 3.268 5.866c5.926 10.189 18.754 30.465 29.673 35.012 14.715 6.149 39.518-17.192 39.518-17.192l5.886-40.35s-10.453.711-17.476 6.962c-3.592 3.207-21.615 26.406-21.615 26.406l-18.47-23.402-3.43-4.343-17.354 11.041z" fill="#fff"/>
    <path d="M94.213 115.487s1.218 2.314 3.268 5.866l17.516-12.543-3.43-4.344-17.354 11.021z" fill="#D3D3D3"/>
    <path d="M235.62 210.374c-.609.507-2.314 1.157-4.729 1.867-10.229 3.045-32.982 7.287-36.067 6.475-3.004-.792-24.559-4.181-34.464-8.281-2.598-1.076-4.384-2.213-4.83-3.349-2.213-5.501 5.5-14.918 5.5-14.918.122-6.272.284-14.005.467-22.326.081-3.715.183-7.551.264-11.407.04-1.624.101-3.248.142-4.892.101-3.531.203-7.063.304-10.513 0-.305.021-.589.021-.893.71-21.921 1.664-41.02 2.841-41.568.893-.406 3.877-1.015 7.449-1.644 2.212-.385 4.668-.771 6.962-1.136l1.096-.183c1.197-.183 2.354-.365 3.389-.507.163-.02.305-.041.447-.061.182-.02.365-.061.548-.081a48.414 48.414 0 0 1 1.684-.244l6.942.142 7.246.142 7.469.142c.71.122 1.786.284 3.065.467.69.081 1.42.203 2.212.304.852.122 1.766.244 2.699.366 6.637.913 14.736 2.029 16.258 2.78h.02c1.076.751.975 17.983.467 38.462-.02 1.299-.061 2.619-.101 3.958-.102 3.755-.224 7.591-.325 11.427-.061 1.624-.102 3.248-.162 4.871-.122 3.877-.264 7.713-.386 11.427a5598.39 5598.39 0 0 1-.913 24.052c.02.041 7.733 12.462 4.485 15.121z" fill="#fff"/>
    <path d="M187.354 187.013c.102 1.644-.974 1.664-1.116.06-1.4-15.668-2.05-31.703-2.435-47.412-.285-12.036-.488-24.336-.102-36.291.061-2.09.162-4.18.264-6.251 0-.102 0-.203.02-.305.142.061.284.163.426.244.183-.02.366-.06.548-.081v1.136c0 2.091.021 4.202 0 6.292 0 12.117-.142 24.174.142 36.352.386 15.486 1.34 30.81 2.253 46.256z" fill="#D3D3D3"/>
    <path d="M211.242 76.416c2.862-.162 5.034-2.192 6.211-3.937.264-.386.487-.771.649-1.117.894-1.826 1.442-8.3-.588-9.904-1.421-1.116-2.558.365-3.106 1.34-.243.426-.365.75-.365.75l-2.801 12.868z" fill="#F8BF92"/>
    <path d="M210.938 76.538c2.861-.142 5.338-2.314 6.515-4.06.101-.182.203-.344.284-.507.893-1.826 1.441-8.301-.589-9.905-1.157-.913-2.111-.121-2.74.752-.243.426-.365.75-.365.75l-3.105 12.97z" fill="#F3A080"/>
    <path d="M217.961 66.634c.081.527-.021 1.055-.163 1.562-.669 2.152-2.456 3.735-4.181 5.196.548-1.035.771-2.212.731-3.39-.02-.405-.061-.811-.041-1.217.041-1.603 3.167-5.236 3.654-2.151z" fill="#EA7C6F"/>
    <path d="M212.764 73.98s.04-.02.101-.06c.061-.04.163-.102.264-.183.223-.182.548-.466.852-.893a4.895 4.895 0 0 0 .751-1.705c.143-.69.163-1.502-.101-2.293a1.146 1.146 0 0 0-.102-.284l-.02-.081c0-.02 0 0 0 0v-.02l.02-.062.061-.121.122-.244c.163-.305.345-.609.528-.873.183-.264.365-.528.568-.75.183-.224.366-.427.548-.59a.985.985 0 0 1 .548-.263c.183-.02.345.04.447.122a.48.48 0 0 1 .182.243c.021.061.021.102.021.102s.02-.041 0-.122a.414.414 0 0 0-.163-.305.843.843 0 0 0-.507-.223c-.223-.02-.487.081-.71.223-.224.142-.447.345-.67.548a5.89 5.89 0 0 0-.67.731 7.738 7.738 0 0 0-.629.893c-.041.081-.102.163-.142.244l-.061.121-.102.183-.061.122c.021.04.041.081.041.142l.081.183c.041.08.061.162.081.243.224.69.244 1.4.163 2.03a4.91 4.91 0 0 1-.508 1.624 4.405 4.405 0 0 1-.669.974 2.037 2.037 0 0 0-.224.243c-.02.082-.04.102-.04.102z" fill="#B54B57"/>
    <path d="M184.368 75.889c-2.842-.264-4.932-2.395-6.069-4.181a13.245 13.245 0 0 1-.609-1.137c-.832-1.867-1.096-8.362.975-9.884 1.461-1.076 2.537.467 3.044 1.461.223.426.345.771.345.771l2.314 12.97z" fill="#F8BF92"/>
    <path d="M184.672 76.01c-2.841-.263-5.236-2.516-6.353-4.302-.101-.183-.182-.366-.263-.528-.833-1.867-1.097-8.362.974-9.885 1.177-.872 2.111-.02 2.699.853a6.6 6.6 0 0 1 .345.771l2.598 13.091z" fill="#F3A080"/>
    <path d="M178.056 65.862c-.101.528-.04 1.056.102 1.563.588 2.172 2.314 3.836 3.958 5.358-.508-1.055-.691-2.253-.589-3.41.041-.406.101-.812.101-1.217 0-1.624-2.963-5.379-3.572-2.294z" fill="#EA7C6F"/>
    <path d="M182.967 73.392s-.04-.02-.101-.06c-.061-.041-.163-.102-.264-.203a4.227 4.227 0 0 1-.812-.914 4.797 4.797 0 0 1-.67-1.725 4.515 4.515 0 0 1 .183-2.294 3.58 3.58 0 0 1 .122-.284l.04-.06c0-.02 0 0 0 0v-.02l-.02-.062-.061-.122-.122-.243a9.182 9.182 0 0 0-.507-.893 12.69 12.69 0 0 0-.528-.771c-.183-.224-.345-.447-.528-.61a.973.973 0 0 0-.527-.284c-.183-.02-.345.02-.447.102-.122.081-.182.162-.203.223-.02.061-.02.102-.02.102v-.122a.747.747 0 0 1 .162-.305.734.734 0 0 1 .508-.203c.223 0 .487.102.71.244.223.162.426.365.65.568.203.224.426.467.629.751.203.285.406.589.588.914.041.08.082.162.142.243l.061.122.082.183.06.121-.06.122-.082.183c-.04.081-.081.162-.101.243a4.692 4.692 0 0 0-.244 2.03c.061.63.244 1.198.447 1.644.203.447.446.772.629.995.081.101.162.182.223.243.041.122.061.142.061.142z" fill="#B54B57"/>
    <path d="M208.319 97.16c-2.781 2.232-5.704 4.668-9.377 4.87-.508.021-.975.041-1.441.041-8.139 0-9.824-4.1-10.839-5.338.812-.487 1.989-1.603 2.131-1.745l.021-.02c.365-.244.629-1.482.791-3.086.406-3.795.365-9.681.365-9.681l15.527.162s.102 4.75.244 8.525c.081 2.03.162 3.775.243 4.343 0 .081.021.142.041.163.183.385 1.015 1.014 2.294 1.765z" fill="#F3A080"/>
    <path d="M189.605 91.882c5.156 2.111 11.265 1.644 16.136-1.015a627.434 627.434 0 0 1-.243-8.524l-15.527-.142s.04 5.886-.366 9.681z" fill="#EA7C6F"/>
    <path d="M182.238 65.842a71.329 71.329 0 0 0 1.746 8.626c1.279 4.79 3.044 9.905 8.098 11.752 4.993 1.847 11.732 1.684 15.689-2.314 2.538-2.578 3.309-6.272 4.344-9.6 3.572-11.57 6.251-29.715-7.388-35.946-4.851-2.212-11.143-2.78-15.852.142-4.12 2.558-6.007 7.003-6.698 11.63-.751 5.156-.649 10.494.061 15.71z" fill="#F8BF92"/>
    <path d="M182.645 64.604a71.243 71.243 0 0 0 1.704 8.626c1.259 4.79 2.984 9.904 7.936 11.751 4.892 1.827 11.488 1.685 15.365-2.313 2.496-2.578 3.247-6.272 4.262-9.6 3.491-11.57 6.15-29.715-7.205-35.946-4.749-2.212-10.92-2.78-15.507.142-4.039 2.557-5.886 7.002-6.576 11.63-.771 5.135-.69 10.473.021 15.71z" fill="#F3A080"/>
    <path d="M189.869 73.331s6.333-1.4 16.136 1.746c0 0-3.227 6.698-9.032 5.703-5.825-.974-7.104-7.449-7.104-7.449z" fill="#fff"/>
    <path d="M208.055 61.64c-.061 1.685-.974 3.004-2.03 2.964-1.055-.041-1.847-1.441-1.765-3.126.061-1.685.974-3.004 2.029-2.963 1.035.04 1.827 1.44 1.766 3.125z" fill="#2A2B2B"/>
    <path d="M210.37 60.585s-.711 1.015-1.888 1.441c-1.177.426-2.375.081-2.375.081s.711-1.015 1.888-1.44c1.177-.427 2.375-.082 2.375-.082z" fill="#FEF1E8"/>
    <path d="M188.143 61.234c0 1.685.852 3.045 1.907 3.045 1.056 0 1.888-1.36 1.888-3.045 0-1.684-.852-3.044-1.908-3.044-1.035 0-1.887 1.36-1.887 3.044z" fill="#2A2B2B"/>
    <path d="M185.869 60.098s.67 1.055 1.827 1.522c1.157.467 2.375.183 2.375.183s-.67-1.056-1.827-1.522c-1.157-.467-2.375-.183-2.375-.183z" fill="#FEF1E8"/>
    <path d="M211.991 55.795s-6.029-5.947-8.748-4.81c-1.583.67-.589 1.542-.589 1.542l9.337 3.268zM184.652 52.345s8.322-1.624 9.946.832c.954 1.441-.366 1.603-.366 1.603l-9.58-2.435z" fill="#444"/>
    <path d="M200.646 69.678c-.284-.568-.568-1.157-.852-1.725a7.091 7.091 0 0 1-4.181-1.705c-.122.487-.244.974-.244 1.461 0 .508.162 1.015.487 1.38.325.346.772.508 1.218.63 1.258.365 2.334.284 3.572-.04z" fill="#EA7C6F"/>
    <path d="M195.613 69.029s.183.162.548.385a5.94 5.94 0 0 0 1.685.69c.386.082.812.142 1.279.163.487 0 .832 0 1.847-.284l.162-.041c.02 0 .061-.02.081-.02l-.04-.061-.163-.284c-.101-.183-.223-.386-.325-.569-.06-.121-.101-.182-.121-.223l-.082-.162-.182-.345c-.203-.487-.426-.975-.589-1.502-.71-2.111-.852-4.161-.751-5.643.041-.75.142-1.34.203-1.745.081-.406.122-.65.122-.65s-.101.224-.264.61c-.162.385-.365.973-.528 1.724-.345 1.482-.426 3.715.345 5.988.183.568.427 1.096.67 1.603.122.224.264.447.386.65.02.04.122.142.101.162.082.02-.527.163-.913.203-.426.04-.812.04-1.177.02a6.785 6.785 0 0 1-1.705-.365c-.365-.183-.589-.304-.589-.304z" fill="#DD5B67"/>
    <path d="M206.859 69.576c.264.73 2.253.69 4.465-.081 2.212-.772 3.775-1.99 3.532-2.72-.264-.73-2.253-.69-4.466.081-2.192.772-3.775 1.99-3.531 2.72zM180.471 65.943c-.304.71 1.177 2.05 3.309 2.984 2.131.933 4.12 1.136 4.445.426.304-.71-1.178-2.05-3.309-2.984-2.151-.954-4.14-1.136-4.445-.426z" fill="#EA7C6F"/>
    <path d="M180.633 41.385c.427 5.256 19.668 6.982 19.668 6.982-2.416-.995-3.329-4.81-3.39-5.034 2.01 3.065 16.319 6.535 16.319 6.535 1.319 1.705 1.36 13.579 1.36 13.579l2.395-2.152s1.968-8.3 2.212-14.126c.081-2.253-.081-4.14-.71-5.013-2.314-3.166-10.25-7.591-18.064-9.255-6.434-1.38-15.994 1.725-18.897 5.804-.649.853-.974 1.746-.893 2.68z" fill="#2A2B2B"/>
    <path d="M181.973 41.486s-2.029 3.349-2.171 4.932c-.122 1.603-.284 14.106-.284 14.106l2.557 2.375s2.273-17.638 3.247-19.404c.975-1.745-3.349-2.01-3.349-2.01z" fill="#2A2B2B"/>
    <path d="M235.908 129.005c.649-3.308.913-6.617.811-9.986-.02-.934 1.421-.893 1.441.02.082 6.15-.649 13.843-4.384 18.957-.081.122-.263.041-.243-.101.609-3.004 1.786-5.866 2.375-8.89zM157.36 121.881c.263-.508.933-.183.974.284.284 2.983-.406 5.784.203 8.809.609 2.983 2.09 5.48 3.247 8.24.183.426-.304.832-.669.487-3.897-3.613-6.374-12.929-3.755-17.82zM131.541 136.332c.63-.853 1.178-1.766 1.685-2.7.244-.446.934-.405 1.157.021.893 1.725 2.456 3.207 3.085 5.054.122.365-.345.527-.589.324-1.217-1.014-2.009-2.537-2.963-3.836-.385.711-.832 1.38-1.319 2.03-.508.67-.934 1.461-1.807 1.624-.263.04-.548-.122-.527-.427.061-.893.751-1.38 1.278-2.09zM195.78 97.748l1.705 4.344c-8.139 0-9.824-4.1-10.839-5.338.812-.488 1.99-1.604 2.132-1.746l.02-.02 6.982 2.76zM208.322 97.16c-2.781 2.232-5.703 4.668-9.377 4.871-.507.02-.974.04-1.441.04l1.563-4.445 6.961-2.435c0 .081.021.142.041.162.142.427.974 1.056 2.253 1.807z" fill="#D3D3D3"/>
    <path d="M216.301 98.316s-3.836 9.093-15.852 10.149c-.223.02-.467.04-.71.04-.508.041-1.035.061-1.563.061h-.568c-.386 0-.772-.02-1.157-.041a14.175 14.175 0 0 1-1.624-.162 20.91 20.91 0 0 1-3.43-.71c-2.618-.772-4.729-1.949-6.393-3.228-.467-.324-.873-.69-1.259-1.035-3.044-2.74-4.222-5.581-4.222-5.581s1.827-2.314 4.506-.995c.142.061.284.163.426.244 0 0 .143.406.549 1.075 1.075 1.827 3.957 5.562 10.554 7.794.081.041.162.061.243.102.508.183 1.056.325 1.604.467.04.02.101.02.142.04.142.041.264.082.406.102 0 0 .142-.041.406-.122.223-.061.568-.162.974-.304 2.862-.954 9.438-3.633 12.056-8.586.162-.162 2.497-2.131 4.912.69z" fill="#BD4761"/>
    <path d="M197.282 110.332a2.557 2.557 0 1 0 0-5.114 2.557 2.557 0 0 0 0 5.114z" fill="#BD4761"/>
    <path d="M195.779 106.009c-4.891.467-6.819 3.491-6.88 8.18-.061 4.668-2.233 4.81-2.233 4.81s9.661-.345 10.838-9.56c.711-5.744-1.725-3.43-1.725-3.43z" fill="#BD4761"/>
    <path d="M197.119 107.511c-2.903 3.633-1.725 7.408 2.05 11.325 3.775 3.897 2.435 5.46 2.435 5.46s6.211-6.698-.527-15.08c-4.222-5.237-3.958-1.705-3.958-1.705z" fill="#BD4761"/>
    <path d="M194.32 108.566s-1.969 2.842-1.787 5.196c.203 2.354 3.289-6.434 1.787-5.196zM198.38 108.627c.405.264.405.588.507 1.055.122.569.304 1.117.507 1.644.406 1.035.995 1.928 1.502 2.903.122.223-.182.467-.385.304-.914-.69-1.583-1.766-2.071-2.801-.345-.73-1.156-2.293-.568-3.044.142-.122.345-.163.508-.061z" fill="#9B344F"/>
    <path d="M103.837 122.815c0 .791-.649 1.441-1.441 1.441-.791 0-1.441-.65-1.441-1.441 0-.792.65-1.441 1.441-1.441a1.42 1.42 0 0 1 1.441 1.441zM190.259 126.732c0 .791-.649 1.441-1.441 1.441s-1.441-.65-1.441-1.441c0-.792.649-1.441 1.441-1.441s1.441.649 1.441 1.441zM207.876 126.732c0 .791-.649 1.441-1.441 1.441-.791 0-1.441-.65-1.441-1.441 0-.792.65-1.441 1.441-1.441.812 0 1.441.649 1.441 1.441zM190.726 154.964c0 .792-.65 1.442-1.441 1.442-.792 0-1.441-.65-1.441-1.442 0-.791.649-1.441 1.441-1.441.791 0 1.441.65 1.441 1.441zM208.365 154.964c0 .792-.65 1.442-1.442 1.442-.791 0-1.441-.65-1.441-1.442 0-.791.65-1.441 1.441-1.441.792 0 1.442.65 1.442 1.441zM192.675 185.105c0 .791-.649 1.441-1.441 1.441s-1.441-.65-1.441-1.441c0-.792.649-1.441 1.441-1.441s1.441.629 1.441 1.441zM210.312 185.105c0 .791-.65 1.441-1.441 1.441-.792 0-1.441-.65-1.441-1.441 0-.792.649-1.441 1.441-1.441.791-.021 1.441.629 1.441 1.441z" fill="#444"/>
    <path d="M166.47 199.272c6.556 2.192 14.431 2.435 21.291 2.496 5.196.041 11.306.223 16.562-1.157 2.294.122 4.608.122 6.881-.04.852-.061.852-1.259 0-1.32l-3.938-.304c-.02 0-.02-.02-.04-.02l-.832-.061c-4.851-.366-9.641-.792-14.452-1.807-5.317-1.116-10.574-3.694-15.912-4.343-.568-.061-.629.71-.264.974 4.648 3.329 11.752 4.425 17.293 5.46.568.101 1.157.203 1.745.304-2.638.264-5.277.487-7.875.427-6.84-.122-13.477-1.523-20.256-1.99-.832-.04-.913 1.137-.203 1.381z" fill="#D3D3D3"/>
    <path d="M179.808 46.439s17.658-7.125 39.294 2.151l2.638-16.745s-23.32-10.818-43.252-1.664l1.32 16.258z" fill="#fff"/>
    <path d="m179.279 37.528-1.705-9.417s23.565-8.058 43.658.771l-.385 1.015s-18.024-8.22-41.872-1.015l.304 8.646zM227.97 25.512c-.609.427-1.34.61-2.05.853-.751.264-1.522.568-2.294.75-.487.123-1.075-.283-.913-.831.507-1.928 1.198-3.836 2.192-5.582.325-.568 1.096-.142.873.447-.508 1.34-.974 2.679-1.319 4.059.284-.101.548-.203.832-.304.751-.285 1.481-.65 2.293-.71.731-.062.934.933.386 1.319zM197.851 15.222c.224.71.163 1.461.183 2.212.02.812.081 1.624 0 2.416-.041.507-.589.933-1.076.609-1.684-1.096-3.267-2.314-4.627-3.796-.427-.467.203-1.076.69-.69 1.116.893 2.253 1.746 3.45 2.517-.02-.284-.02-.589-.04-.873-.041-.812-.163-1.624.02-2.395.203-.73 1.197-.65 1.4 0z" fill="#D3D3D3"/>
    <path d="m104.487 56.425-8.99-.427.527-11.183a3.989 3.989 0 0 1 4.161-3.796l1.014.041a3.99 3.99 0 0 1 3.796 4.16l-.508 11.205z" fill="#444"/>
    <path d="m138.99 81.937-78.203-3.633C65.476 60.423 82.16 47.616 101.36 48.51c19.201.893 34.626 15.182 37.63 33.428z" fill="#D3D3D3"/>
    <path d="M151.94 87.66 50.132 82.933a2.285 2.285 0 0 1-2.172-2.375l.02-.589a2.285 2.285 0 0 1 2.375-2.171l101.808 4.729a2.286 2.286 0 0 1 2.172 2.374l-.021.59a2.27 2.27 0 0 1-2.374 2.17z" fill="#E0E0E0"/>
    <path d="m55.49 83.175 5.52 6.292a13.382 13.382 0 0 0 9.622 4.547l57.236 1.847a13.31 13.31 0 0 0 10.696-4.79l3.248-3.877-86.322-4.019z" fill="#ADA9A8"/>
    <path d="M115.791 87.54c-.081.466-.203.912-.345 1.38-.04.141-.101.304-.142.446-.203.609-.406 1.197-.588 1.806-.081.284-.163.569-.224.853-.04.284-.101.588-.142.872-.02.264-.06.548-.081.833-.061 1.217.021 2.456.142 3.694.041.304.061.608.102.913.04.386.02.771-.041 1.157v.02c-.04.244-.101.487-.182.731-.041.122-.082.243-.122.385-.041.122-.102.244-.142.366-.041.122-.102.243-.163.365l-.182.365c-.082.163-.183.325-.264.488a3.52 3.52 0 0 1-.224.365l-.243.365a13.614 13.614 0 0 1-1.137 1.482c-.061.061-.101.122-.162.183-.203-.325-.589-1.056-1.035-2.213-.589-1.563-1.279-3.917-1.664-7.103 0 0-.041-.894-.061-2.172.548-3.45 2.273-6.718 4.851-9.093.02-.02.06-.04.081-.061.142-.122.304-.223.467-.284a.562.562 0 0 1 .365 0c.02 0 .04.02.081.04.102.061.183.142.264.224.873.954 1.015 2.354.791 3.592z" fill="#F3A080"/>
    <path d="M115.793 87.539c-.081.467-.203.913-.345 1.38-.041.142-.102.305-.142.447-.203.609-.427 1.197-.589 1.806-.081.284-.162.568-.203.853-.061.284-.101.588-.142.872-.041.284-.061.548-.081.832-.061 1.218.02 2.456.142 3.694.02.305.061.61.081.914.041.385.02.771-.04 1.157v.02a4.898 4.898 0 0 1-.183.731 8.56 8.56 0 0 0-.122.385c-.04.122-.101.244-.142.366a2.976 2.976 0 0 1-.162.365l-.183.365c-.081.163-.183.325-.264.487-.061.122-.142.244-.223.366l-.244.365c-.345.528-.73 1.015-1.136 1.482-.061.061-.102.121-.163.182-.203-.324-.588-1.055-1.035-2.212.629-.832 1.177-1.725 1.543-2.72.994-2.74.426-5.805.913-8.687.345-2.09 1.238-4.16.913-6.271-.04-.244-.101-.508-.162-.772.142-.121.304-.223.467-.284a.562.562 0 0 1 .365 0 .15.15 0 0 1 .081.04c.102.062.183.143.264.224.873.974 1.015 2.375.792 3.613z" fill="#F8BF92"/>
    <path d="M108.911 93.283c-.203 2.557-6.352 1.766-6.352 1.766l6.352 1.684 1.523-1.725-.427-2.415-1.096.69zM214.697 184.699c.366 2.07 14.228-2.05 14.228-2.05l2.415 3.187-5.601 2.273-5.643 6.82s.751 1.542 1.766 3.369c.081.182.183.345.284.507 0 .02.02.041.02.041.021.061.061.101.102.162.101.203.243.426.365.629a27.502 27.502 0 0 0 1.644 2.537c.061.082.142.203.183.285.365.446.71.852 1.035 1.156.345.345.67.589.995.65l5.419-4.242s9.255 2.151 10.635 1.745c.548-.162 2.212-2.029 4.039-4.221a68.898 68.898 0 0 0 1.888-2.375l.061-.061c.203-.284.446-.568.669-.832v-.02l-.121-.183-.954-1.502-.467-.751-.386-.609-.162-.284-.163-.284-5.114-8.139a16.936 16.936 0 0 0-.629-.304 48.266 48.266 0 0 0-2.659-1.117c-.629-.223-1.299-.487-1.969-.751-2.497-.913-5.237-1.684-7.469-1.826-.934-.061-1.807-.021-2.497.223-4.851 1.563-12.259 3.917-11.914 5.967z" fill="#F3A080"/>
    <path d="M221.861 198.318c.122.223.264.467.386.69l.122-.122a99.94 99.94 0 0 1 2.801-2.719c1.096-1.015 2.151-1.888 3.024-2.436.223-.142.406-.264.588-.365.183-.102.346-.183.488-.244.263-.142.426-.223.426-.223s-.163 0-.487.02c-.163.021-.345.021-.589.061-.223.041-.467.102-.751.162-1.096.285-2.537.975-3.755 2.091a10.135 10.135 0 0 0-2.253 3.085zM224.256 202.174c.061.102.142.183.203.264.203-.203.467-.467.771-.792.731-.73 1.705-1.704 2.801-2.74 1.096-1.014 2.151-1.867 3.024-2.435.223-.142.426-.264.589-.365.182-.102.345-.183.487-.244.264-.142.426-.223.426-.223s-.182 0-.487.02c-.162 0-.345.02-.568.041-.223.04-.467.101-.751.162-1.096.284-2.537.974-3.755 2.09a10.827 10.827 0 0 0-2.375 3.309c-.162.365-.284.67-.365.913z" fill="#DD5B67"/>
    <path d="M253.22 163.834c-.852-.649-1.745-1.197-2.659-1.725-.446-.244-.406-.954.041-1.157 1.745-.873 3.247-2.395 5.094-2.984.366-.121.508.366.325.589-1.035 1.198-2.557 1.969-3.876 2.902.69.406 1.38.853 2.009 1.34.67.507 1.461.954 1.583 1.827.041.264-.142.548-.426.527-.914-.081-1.38-.771-2.091-1.319zM258.617 191.843c-4.018 4.039-7.286 6.434-7.286 6.434l-11.935-19.687 3.715-6.637 15.506 19.89z" fill="#D3D3D3"/>
    <path d="M248.999 170.735c0 .792-.649 1.441-1.441 1.441a1.447 1.447 0 0 1-1.441-1.441c0-.792.65-1.441 1.441-1.441.812 0 1.441.649 1.441 1.441z" fill="#444"/>
    <path d="M166.085 46.276c-5.601-4.709-11.061-9.682-16.663-14.39 2.476-1.238 4.973-2.476 7.449-3.715 3.308 5.562 5.906 12.564 9.214 18.105zM165.214 52.771c-4.465.771-9.032 1.279-13.497 2.03l.122-7.003c4.242 1.198 9.133 3.755 13.375 4.973z" fill="#FFB164"/>
    <path d="M341.328 221.192H5.602V404.43h335.726V221.192z" fill="#474747"/>
    <path d="M5.602 276.034h335.726v-3.694H5.602v3.694z" fill="#CCC"/>
    <path d="M346.93 221.192H0v11.265h346.93v-11.265zM295.256 209.785c-1.624-.446-2.537-1.948-2.03-3.349l15.608-42.866c.508-1.4 2.253-2.192 3.877-1.746 1.624.447 2.537 1.949 2.03 3.349l-15.608 42.867c-.508 1.4-2.253 2.192-3.877 1.745z" fill="#2C2C2C"/>
    <path d="M316.608 193.67v18.713c0 4.872-4.587 8.829-10.23 8.829h-41.283c-5.663 0-10.23-3.957-10.23-8.829V193.67h61.743z" fill="#CCC"/>
    <path d="M316.608 193.67v18.713c0 4.872-4.587 8.829-10.229 8.829h-26.224c-5.662 0-10.229-3.957-10.229-8.829V193.67h46.682z" fill="#B8B8B8"/>
    <path d="M161.318 221.192h-14.695l1.116-16.745c0-1.928 1.462-3.47 3.268-3.47h5.927c1.806 0 3.267 1.562 3.267 3.47l1.117 16.745z" fill="#FFB164"/>
    <path d="M159.614 197.323h-11.305v3.654h11.305v-3.654z" fill="#2C2C2C"/>
    <path d="M175.951 221.192h-14.695l1.136-16.745c0-1.928 1.462-3.47 3.268-3.47h5.927c1.806 0 3.268 1.562 3.268 3.47l1.096 16.745z" fill="#BD4761"/>
    <path d="M174.247 197.323h-11.306v3.654h11.306v-3.654z" fill="#2C2C2C"/>
</svg>
