<svg width="16" height="16" viewBox="0 0 16 16" fill="none" xmlns="http://www.w3.org/2000/svg">
    <g clip-path="url(#g255svczja)">
        <path d="M15.219 8.02v-.304a1.6 1.6 0 0 0-.73-1.342V3.05c0-.874-.71-1.586-1.585-1.586H3.096c-.874 0-1.586.712-1.586 1.586v3.324a1.6 1.6 0 0 0-.729 1.342v.305A1.05 1.05 0 0 0 0 9.034V12.6c0 .56.443 1.02.998 1.046v.422a.468.468 0 0 0 .935 0v-.42h12.133v.42a.468.468 0 0 0 .936 0v-.422c.555-.026.998-.486.998-1.046V9.034a1.05 1.05 0 0 0-.781-1.013zM2.446 3.05c0-.358.292-.65.65-.65h9.808c.358 0 .65.292.65.65v3.065h-.624V5.29c0-.577-.47-1.046-1.046-1.046H9.366c-.577 0-1.047.47-1.047 1.046v.825h-.638V5.29c0-.577-.47-1.046-1.047-1.046H4.116c-.577 0-1.046.47-1.046 1.046v.825h-.624V3.05zm9.549 2.24v.714c0 .061-.05.111-.111.111H9.366a.111.111 0 0 1-.11-.111V5.29c0-.06.049-.11.11-.11h2.518c.06 0 .11.05.11.11zm-5.25 0v.714c0 .061-.05.111-.111.111H4.116a.111.111 0 0 1-.11-.111V5.29c0-.06.05-.11.11-.11h2.518c.061 0 .11.05.11.11zM1.717 7.716c0-.367.298-.665.665-.665h11.236c.367 0 .665.298.665.665v.27H1.717v-.27zM15.064 12.6c0 .061-.05.111-.112.111H1.048a.112.112 0 0 1-.112-.111V9.034c0-.062.05-.112.112-.112h13.904c.062 0 .112.05.112.112V12.6z" fill="#626262"/>
    </g>
    <defs>
        <clipPath id="g255svczja">
            <path fill="#fff" d="M0 0h16v16H0z"/>
        </clipPath>
    </defs>
</svg>
