<svg width="206" height="39" viewBox="0 0 206 39" fill="none" xmlns="http://www.w3.org/2000/svg">
<path d="M36.2071 29.5264H42.5966L21.2983 7.10205L0 29.5264H6.38948L21.2983 13.8045L36.2071 29.5264ZM10.6491 11.6118V7.10205H4.25966V18.3142L10.6491 11.6118Z" fill="#6D87CB"/>
<path d="M71.6311 8.87476L57.629 31H52.6034L47.4514 8.87476H52.7298L56.3015 24.6469L66.321 8.87476H71.6311ZM72.4279 13.9952H77.3271L73.9451 31H69.0459L72.4279 13.9952ZM75.7151 11.6246C74.8723 11.6246 74.1769 11.3823 73.629 10.8976C73.1022 10.3919 72.8388 9.78084 72.8388 9.0644C72.8388 8.22154 73.1338 7.52617 73.7238 6.97831C74.3349 6.40937 75.1251 6.1249 76.0944 6.1249C76.9583 6.1249 77.6537 6.36723 78.1805 6.85188C78.7284 7.31545 79.0023 7.89492 79.0023 8.59029C79.0023 9.49637 78.6968 10.2339 78.0857 10.8028C77.4746 11.3507 76.6844 11.6246 75.7151 11.6246ZM83.1999 7.54724H88.1307L83.4528 31H78.522L83.1999 7.54724ZM92.7069 7.54724H97.6376L92.9597 31H88.0289L92.7069 7.54724ZM118.176 13.9952L114.794 31H110.116L110.432 29.3248C109.02 30.6102 107.282 31.2529 105.217 31.2529C103.889 31.2529 102.667 30.9473 101.55 30.3362C100.433 29.7252 99.5377 28.8507 98.8634 27.7128C98.2102 26.5539 97.8836 25.1948 97.8836 23.6355C97.8836 21.7601 98.2945 20.0743 99.1163 18.5783C99.9591 17.0611 101.097 15.8811 102.53 15.0382C103.963 14.1743 105.543 13.7423 107.271 13.7423C109.884 13.7423 111.728 14.5957 112.802 16.3025L113.245 13.9952H118.176ZM106.734 27.1755C107.703 27.1755 108.567 26.9437 109.325 26.4801C110.084 25.9955 110.674 25.3317 111.096 24.4889C111.517 23.646 111.728 22.6767 111.728 21.581C111.728 20.422 111.38 19.5054 110.685 18.8311C110.01 18.1568 109.062 17.8197 107.84 17.8197C106.871 17.8197 106.007 18.062 105.248 18.5466C104.49 19.0102 103.9 19.6634 103.478 20.5063C103.057 21.3492 102.846 22.3185 102.846 23.4142C102.846 24.5731 103.183 25.4898 103.857 26.1641C104.553 26.8383 105.512 27.1755 106.734 27.1755ZM131.306 31.3793C129.094 31.3793 127.155 30.9789 125.49 30.1782C123.847 29.3775 122.583 28.2501 121.698 26.7962C120.813 25.3423 120.37 23.6671 120.37 21.7706C120.37 19.2631 120.939 17.0084 122.077 15.0066C123.236 12.9837 124.858 11.3928 126.944 10.2339C129.031 9.07494 131.422 8.49547 134.119 8.49547C136.1 8.49547 137.849 8.83261 139.366 9.50691C140.883 10.1812 142.032 11.1505 142.811 12.4148L139.113 15.4491C137.933 13.7212 136.153 12.8573 133.772 12.8573C132.149 12.8573 130.716 13.2366 129.473 13.9952C128.23 14.7537 127.261 15.7863 126.565 17.0927C125.891 18.3991 125.554 19.8531 125.554 21.4545C125.554 23.1613 126.091 24.5205 127.166 25.5319C128.261 26.5223 129.789 27.0175 131.749 27.0175C134.088 27.0175 136.047 26.1641 137.628 24.4572L140.662 27.5548C138.471 30.1045 135.352 31.3793 131.306 31.3793ZM150.189 16.018C150.926 15.2173 151.811 14.6379 152.844 14.2796C153.897 13.9214 155.13 13.7423 156.542 13.7423L155.657 18.2938C155.067 18.2516 154.687 18.2306 154.519 18.2306C153.023 18.2306 151.822 18.5993 150.916 19.3368C150.03 20.0743 149.43 21.2227 149.114 22.7821L147.47 31H142.54L145.922 13.9952H150.599L150.189 16.018ZM174.333 21.2333C174.333 22.0129 174.238 22.8769 174.048 23.8251H161.026C161.195 26.143 162.659 27.3019 165.419 27.3019C166.283 27.3019 167.105 27.165 167.885 26.891C168.686 26.6171 169.381 26.2273 169.971 25.7215L172.025 28.9771C171.077 29.7357 169.992 30.3046 168.77 30.6839C167.548 31.0632 166.262 31.2529 164.914 31.2529C163.165 31.2529 161.626 30.9473 160.299 30.3362C158.993 29.7041 157.981 28.8085 157.265 27.6496C156.569 26.4907 156.222 25.1526 156.222 23.6355C156.222 21.7601 156.643 20.0743 157.486 18.5783C158.35 17.0611 159.54 15.8811 161.058 15.0382C162.575 14.1743 164.303 13.7423 166.241 13.7423C167.885 13.7423 169.307 14.0478 170.508 14.6589C171.73 15.27 172.668 16.1445 173.321 17.2823C173.996 18.4202 174.333 19.7372 174.333 21.2333ZM166.02 17.4404C164.861 17.4404 163.881 17.7565 163.08 18.3886C162.28 18.9997 161.711 19.8531 161.374 20.9488H169.813C169.813 19.8531 169.465 18.9997 168.77 18.3886C168.095 17.7565 167.179 17.4404 166.02 17.4404ZM181.916 31.2529C180.441 31.2529 179.04 31.0948 177.712 30.7787C176.406 30.4416 175.384 30.0096 174.647 29.4828L176.543 25.9112C177.281 26.3958 178.176 26.7857 179.23 27.0807C180.304 27.3757 181.379 27.5232 182.454 27.5232C183.57 27.5232 184.403 27.3862 184.951 27.1123C185.498 26.8173 185.772 26.4064 185.772 25.8796C185.772 25.4582 185.53 25.1526 185.045 24.963C184.561 24.7733 183.781 24.5731 182.706 24.3624C181.484 24.1306 180.473 23.8778 179.672 23.6038C178.892 23.3299 178.208 22.8874 177.618 22.2763C177.049 21.6442 176.764 20.7908 176.764 19.7161C176.764 17.8407 177.544 16.3763 179.103 15.3227C180.684 14.2691 182.749 13.7423 185.298 13.7423C186.478 13.7423 187.627 13.8687 188.743 14.1216C189.86 14.3745 190.809 14.7221 191.588 15.1646L189.818 18.7679C188.427 17.904 186.752 17.472 184.793 17.472C183.718 17.472 182.896 17.63 182.327 17.9461C181.779 18.2622 181.505 18.6625 181.505 19.1472C181.505 19.5897 181.748 19.9163 182.232 20.127C182.717 20.3167 183.528 20.5274 184.666 20.7592C185.867 20.991 186.847 21.2438 187.606 21.5178C188.385 21.7706 189.06 22.2026 189.629 22.8137C190.197 23.4247 190.482 24.2571 190.482 25.3107C190.482 27.2071 189.681 28.6716 188.08 29.7041C186.499 30.7366 184.445 31.2529 181.916 31.2529ZM199.213 24.9946C199.171 25.1632 199.15 25.3949 199.15 25.6899C199.15 26.7857 199.751 27.3335 200.952 27.3335C201.605 27.3335 202.269 27.1334 202.943 26.733L203.67 30.2414C202.574 30.9157 201.163 31.2529 199.435 31.2529C197.833 31.2529 196.548 30.8314 195.579 29.9886C194.609 29.1457 194.125 27.9868 194.125 26.5117C194.125 26.0903 194.177 25.5951 194.283 25.0262L195.642 18.1674H193.018L193.777 14.3745H196.4L197.222 10.2339H202.153L201.331 14.3745H205.567L204.808 18.1674H200.573L199.213 24.9946Z" fill="#6D87CB"/>
</svg>
