<svg width="16" height="16" viewBox="0 0 16 16" fill="none" xmlns="http://www.w3.org/2000/svg">
    <g clip-path="url(#xqm5tuldya)" fill="#626262">
        <path d="M1.864 7.251a1.427 1.427 0 0 0 .667-.066v5.159c0 .259.21.469.47.469h10c.258 0 .468-.21.468-.47V7.186a1.413 1.413 0 0 0 1.594-.482c.225-.3.32-.67.267-1.043a1.397 1.397 0 0 0-.549-.926L13.47 3.75V.469A.469.469 0 0 0 13 0h-1.875a.469.469 0 0 0-.469.469V1.64L8.845.28a1.415 1.415 0 0 0-1.687.001L1.219 4.734c-.3.225-.495.554-.548.926-.053.372.041.742.267 1.043.225.3.554.495.926.548zm1.605 4.624V6.562L8 3.164l4.531 3.398v5.313H3.47zM11.594.937h.938v2.11l-.938-.703V.938zM1.599 5.793a.466.466 0 0 1 .183-.309l5.937-4.453a.469.469 0 0 1 .562 0l5.938 4.453a.466.466 0 0 1 .094.657.466.466 0 0 1-.656.093L8.28 2.203a.469.469 0 0 0-.562 0L2.344 6.234a.466.466 0 0 1-.656-.094.466.466 0 0 1-.09-.347z"/>
        <path d="m15.863 13.95-1.25-1.25a.469.469 0 0 0-.663.663l.45.45H1.6l.45-.45a.469.469 0 1 0-.663-.663l-1.25 1.25a.469.469 0 0 0 0 .663l1.25 1.25a.467.467 0 0 0 .663 0 .469.469 0 0 0 0-.663l-.45-.45h12.8l-.45.45a.469.469 0 1 0 .663.663l1.25-1.25a.469.469 0 0 0 0-.663zM10.813 6.563H5.186a.469.469 0 0 0-.468.468v2.813c0 .259.21.469.468.469h5.625c.26 0 .47-.21.47-.47V7.032a.469.469 0 0 0-.47-.468zM5.655 7.5h1.875v1.875H5.656V7.5zm4.688 1.875H8.469V7.5h1.875v1.875z"/>
    </g>
    <defs>
        <clipPath id="xqm5tuldya">
            <path fill="#fff" d="M0 0h16v16H0z"/>
        </clipPath>
    </defs>
</svg>
