<svg width="474" height="299" viewBox="0 0 474 299" fill="none" xmlns="http://www.w3.org/2000/svg">
    <path d="M453.306 298.425s38.305-90.743-5.619-162.125C366.992 5.162 304.416 95.137 244.668 55.848 158.286-.955 16.861 8.633 28.555 163.903c5.16 68.522-49.173 68.547-15.885 134.663l440.636-.141z" fill="#E6EDF7"/>
    <path d="M308.837 265.375c-8.545 0-15.693 5.971-17.481 13.957a9.353 9.353 0 0 0-6.401-2.521 9.346 9.346 0 0 0-5.483 1.767c.045-.436.068-.879.068-1.327 0-7.059-5.736-12.784-12.815-12.784-.37 0-.738.017-1.101.049v-44.46l-17.266-19.258-23.273 30.539v24.719a18.313 18.313 0 0 0-1.127-.036c-9.84 0-17.817 7.958-17.817 17.773 0 .302.007.604.023.903a14.998 14.998 0 0 0-8.056.021c-1.698-8.184-8.967-14.337-17.677-14.337-9.969 0-18.05 8.061-18.05 18.005 0 .659.036 1.311.106 1.953a8.912 8.912 0 0 0-4.51-1.219c-4.935 0-8.934 3.99-8.934 8.912 0 4.922 3.999 8.911 8.934 8.911h157.555v-.062c2.162 0 11.216-3.772 11.216-13.639 0-9.867-8.019-17.866-17.911-17.866z" fill="#FFF5ED"/>
    <path d="m403.163 292.108.745-5.358-3.132-2.61-.987 7.093 3.374.875z" fill="#FFB27D"/>
    <path d="M392.762 296.893h12.768s.307-1.94-.361-3.414c-.64-1.414-1.634-2.285-1.725-3.368-.812.832-1.809 1.368-3.656 1.122-.226.366-1.46 2.324-2.215 2.866-.833.596-4.553.384-4.811 2.794z" fill="#233862"/>
    <path d="M395.327 219.77a642.524 642.524 0 0 1 2.074 18.906c2.972 31.371 2.389 50.545 2.389 50.545s.215.568 2.058.575c1.041.006 2.062-.221 2.062-.221s6.654-20.486 6.14-32.143c-.061-1.403-.226-2.676-.52-3.773-1.596-5.964 5.907-28.774-2.249-37.269-8.155-8.49-12.339.306-11.954 3.38z" fill="#F99746"/>
    <path d="M395.327 219.77a642.524 642.524 0 0 1 2.074 18.906l12.647 18.758c-.061-1.403-.226-2.677-.52-3.774-1.595-5.963 5.907-28.773-2.249-37.268-8.153-8.492-12.337.304-11.952 3.378z" fill="#ED7D2B"/>
    <path d="M385.277 155.857s.308-1.531.654-2.7c.154-.516-.916-3.913-1.655-4.331-.74-.418-2.668 1.869-2.121 3.625.279.903.739 3.838.739 3.838l2.383-.432z" fill="#FFB27D"/>
    <path d="M385.277 155.857s.403-.888.765-1.031c.364-.145.752-1.596 1.019-2.171 0 0-.258-.377-.707.107-.276.295-.889 1.161-.889 1.161l-.188 1.934zM437.991 161.006c.078.161.186.448.284.72.002-.074.004-.147.004-.218.005-.54 2.024-3.473 2.853-3.657.829-.184 2.001 2.565.965 4.086-.532.78-1.834 3.453-1.834 3.453l-2.151-1.108s-.123-.966-.43-1.209c-.306-.243-.25-1.746-.336-2.373-.002-.003.356-.289.645.306zM424.576 290.502c.181-1.717.225-6.235.225-6.235s-4.613-1.472-4.445-.461c.835 4.967.609 7.427.609 7.427l1.866 1.111 1.745-1.842z" fill="#FFB27D"/>
    <path d="M399.182 219.452s17.826 48.744 21.335 69.889c0 0 .813.557 2.33.371 1.719-.209 2.19-1.4 2.19-1.4s3.221-25.342-3.181-34.141c-4.397-6.044 1.897-32.591-8.346-34.719-10.241-2.129-14.328 0-14.328 0z" fill="#F99746"/>
    <path d="M402.219 182.084c.08.207.17.405.27.595.152.289.323.554.518.795a7.122 7.122 0 0 1-.215-.92v-.002a9.656 9.656 0 0 1-.077-.525c-.1-.86-.14-1.994-.043-3.502-.004.368.002 1.915.299 3.473.027.148.057.295.093.441a8.067 8.067 0 0 0 .55 1.646c1.191 1.059 2.613 2.681 4.064 4.545a77.799 77.799 0 0 1 2.964 4.082c.369.543.729 1.085 1.078 1.622l.002.002a35.854 35.854 0 0 1 .434.676c.177.278.347.552.515.825.468.758.901 1.49 1.292 2.187.089.159.177.314.259.468 1.206 2.203 1.922 3.952 1.759 4.622l.221-.152.136-.093c.492-.341 1.463-1.006 2.693-1.837l.081-.248.614-1.897c.135.427.045 1.181-.048 1.71a317.373 317.373 0 0 1 6.511-4.292l.001-.002c1.628-1.041 3.129-1.963 4.213-2.558-.147-.965-.665-2.689-.682-2.751.635.28 1.243 1.613 1.529 2.315.074-.036.143-.068.208-.095 0 0 .12-5.435-6.996-10.56-3.729-2.687-6.373-3.963-5.814-6.589.559-2.627 1.039-14.213-7.171-12.38 0 0-1.164-.736-1.734-.736 0 0 .444.156.639.427-.892-.186-2.188-.311-3.354.14-.64.246-1.347 1.045-2.037 2.199l-.002.002c-.041.075-.086.148-.13.227a19.065 19.065 0 0 0-.855 1.7 28.856 28.856 0 0 0-1.296 3.581v.002c-.122.419-.237.841-.341 1.27-.007.021-.01.041-.014.062v.002c-.836 3.425-1.096 7.075-.134 9.523z" fill="#163560"/>
    <path d="M403.891 184.299c-.027.008 2.298 1.689 4.272 1.451 1.855-.22 3.365-2.355 3.342-2.364-.733-.26-.797-1.329-.117-5.776l-.351.016-5.91.283s-.138 1.822-.387 3.519c-.212 1.43-.5 2.768-.849 2.871z" fill="#FFB27D"/>
    <path d="M405.123 177.91s-.138 1.823-.387 3.52c3.226.386 5.361-2.285 6.298-3.802l-5.911.282z" fill="#ED975D"/>
    <path d="M411.719 177.092s2.08-2.405 2.821-4.613c.53-1.578.599-7.706-5.579-7.738 0 0-1.782-.087-3.6.779-1.445.69-3.625 2.319-2.287 7.874l.286 1.851 8.359 1.847z" fill="#163560"/>
    <path d="M394.582 218.516s7.691 4.56 17.348 2.216c.115-.029 7.953-1.276 7.953-1.276-.135-.368-1.148-6.407-1.281-6.744-1.714-4.41-4.845-28.345-7.46-29.526-.668.726-2.577 1.222-4.21 1.078-1.883-.166-2.512-.978-2.356-1.849-2.081.982-3.682 1.895-3.682 1.895-1.904 2.844-6.312 34.206-6.312 34.206z" fill="#fff"/>
    <path d="M403.814 179.36s7.584 1.252 8.293-3.47c.709-4.722 2.165-7.741-2.645-8.742-4.811-.999-6.026.661-6.647 2.18-.622 1.52-.955 9.583.999 10.032z" fill="#FFB27D"/>
    <path d="M406.016 166.519s1.255 5.849 4.327 7.143c3.072 1.293 4.585.645 4.585.645s-.716-2.961-.718-6.425c-.002 0-6.231-3.768-8.194-1.363z" fill="#163560"/>
    <path d="M406.462 167.046s-1.739 1.006-2.298 2.153c-.559 1.147-1.098 3.597-1.809 3.405 0 0-1.007-3.998 1.073-5.869 2.206-1.981 3.034.311 3.034.311z" fill="#163560"/>
    <path d="M382.842 155.966c.308-.109.763-.365 1.356-.418.529-.049 1.191.125 1.191.125s2.139 13.265 2.298 13.969c.16.702 9.176 10.836 11.608 10.795 2.196-.038 4.797 1.654 5.279 1.979 0 0-5.114 10.784-5.368 12.81-.278 2.205-2.925 36.148-2.925 36.148s.158 1.58-2.801.731c-2.957-.848-3.697-1.551-3.697-1.551s2.717-26.722 3.286-35.033c.077-1.115.26-2.148.52-3.102a3.128 3.128 0 0 0-.509-2.669c-3.74-5.12-9.645-13.417-9.974-15.181-.482-2.594-.264-18.603-.264-18.603z" fill="#2B478B"/>
    <path d="M413.938 296.893h12.768s.306-1.94-.362-3.414c-.639-1.414-1.633-2.285-1.724-3.368-.812.832-1.809 1.368-3.656 1.122-.226.366-1.46 2.324-2.216 2.866-.832.596-4.554.384-4.81 2.794z" fill="#233862"/>
    <path d="M405.167 196.271c.429-2.642 5.924-13.248 5.924-13.248s3.473-1.036 5.76-.21c2.286.825 14.114-5.835 14.494-6.45.379-.613 6.714-12.388 6.714-12.388s.525-.304 1.367.134c.833.432.837 1.279.837 1.279s-4.89 14.827-6.19 17.119c-.785 1.383-7.38 6.198-12.493 9.803a3.2 3.2 0 0 0-1.329 3.043c.688 5.07.863 7.925 1.653 16.624.656 7.216.906 21.189.906 21.189s-5.722 1.974-9.67 2.237c-3.949.263-4.809-3.891-4.809-3.891s-3.607-32.525-3.164-35.241z" fill="#2B478B"/>
    <path d="M406.296 177.025s-.92.539-2.009.376c-.746-.11-.914-.993-.914-.993s.518-.162 1.345.004c.826.164 1.578.613 1.578.613z" fill="#fff"/>
    <path d="M108.99 165.461s-3.061-3.064-1.218-4.37c1.843-1.308 2.961-.883 3.288-.082.328.8.359 4.303.359 4.303l-2.429.149z" fill="#FFB27D"/>
    <path d="M117.105 188.235a68.777 68.777 0 0 1-9.976 3.9 59.443 59.443 0 0 1-7.993 1.835c-.642.102-1.26.186-1.856.259-6.303.763-10.094.066-10.094.066s.671-14.071 5.328-14.092c5.316-.024 17.133 1.52 17.649-.038.58-1.756-2.129-14.691-2.129-14.691 1.981-1.524 3.732-.944 3.732-.944s10.765 21.093 5.339 23.705z" fill="#F99746"/>
    <path d="M117.104 188.235a68.821 68.821 0 0 1-9.976 3.9 59.585 59.585 0 0 1-7.994 1.835c-2.626-4.034-4.886-8.272-1.325-6.327 6.283 3.431 19.295.592 19.295.592z" fill="#ED7D2B"/>
    <path d="M84.383 291.69s-.407 4.701.59 5.19l12.746-.027s0-1.466-2.047-1.793c-2.047-.327-5.644-1.523-6.253-4.185-.608-2.664-5.036.815-5.036.815z" fill="#233862"/>
    <path d="M93.74 234.803c-.062 3.073-.21 6.244-.5 9.093-1.378 13.52-1.862 29.855-2.059 33.004-.342 5.467-1.425 14.202-1.425 14.202s-2.148 2.033-6.334 1.063c0 0-3.467-12.579-4.243-25.825l-.036-.654c-.09-1.751-.184-3.754-.279-5.912-.638-14.463-1.33-35.946-1.33-35.946l15.995-3.747c0-.002.37 7.059.212 14.722z" fill="#2A4E96"/>
    <path d="M93.74 234.802c-4.053 6.977-11.781 19.83-14.876 24.97-.638-14.463-1.33-35.946-1.33-35.946l15.995-3.747s.37 7.061.212 14.723z" fill="#233862"/>
    <path d="M53.24 221.287s-2.603 3.053-2.838 3.9c-.234.847-.652 3.897-.428 4.813.224.917 1.954-2.554 2.583-2.926.628-.372-.473 1.381-.258 1.674.215.293 1.458-1.022 1.943-1.467.486-.445.437-2.839 1.02-4.256.581-1.416-2.023-1.738-2.023-1.738z" fill="#FFB27D"/>
    <path d="M52.628 286.348s-2.27 2.065-1.827 3.532c.443 1.467 2.49 2.446 2.767 4.239.276 1.794 1.383 2.771 2.38 2.771h4.749s.732-1.261-1.037-1.641c-1.771-.381-2.438-2.489-2.328-4.446.11-1.956-.167-4.564-.167-4.564l-3.763-.87-.774.979z" fill="#233862"/>
    <path d="M91.01 224.153s-14.974 31.958-22.942 45.981C60.1 284.157 57.61 288.07 57.61 288.07s-4.566-1.794-4.981-3.016c0 0 3.047-27.07 8.384-33.67 3.016-3.729 6.557-14.92 6.724-18.833.166-3.912 3.664-13.253 3.664-13.253l19.609 4.855z" fill="#2A4E96"/>
    <path d="M95.388 225.661s-5.955 3.971-14.382 3.601c-3.698-.16-11.035-1.207-12.219-4.141-.277-.69-.073-1.563.343-2.905 1.081-3.487 3.605-10.128 2.844-24.855a24.127 24.127 0 0 1 .098-3.864c.794-7.254 4.962-11.549 8.99-12.953 9.822-3.425 13.098 1.32 13.098 1.32s4.341 3.432 4.997 10.593c1.306 14.325-3.769 33.204-3.769 33.204z" fill="#F99746"/>
    <path d="M84.133 182.529s5.113 1.295 9.559-.874c0 0 .852-.516.064-1.46.016-.961.006-.871-.028-1.57-.049-1.619-.19-2.519-.19-2.519l-3.507-1.969-3.761-1.767c.2.815.293 1.717.363 2.425.541 5.542-2.5 7.734-2.5 7.734z" fill="#FFB27D"/>
    <path d="M87.041 174.78s2.627 3.407 6.688 3.845c-.049-1.619-.263-3.263-.263-3.263l-3.434-1.225-2.991.643z" fill="#ED985F"/>
    <path d="M96.474 175.06s-7.91 3.541-10.037-1.324c-2.128-4.864-4.582-7.684.38-10.151 4.959-2.467 6.759-1.034 7.873.416 1.11 1.451 3.786 10.014 1.784 11.059z" fill="#FFB27D"/>
    <path d="M80.769 164.539c-.099-.066-.29-.089-.681-.009 0 0 .256-.273.666-.393-.063-.556-.029-1.578.833-2.051 0 0-.425.395-.338.981.777-1.378 2.853-2.78 9.322-3.963 8.527-1.556 7.197 4.508 6.285 5.43-.912.921-4.098-.099-6.07.595-1.972.693-1.582 3.698-2.158 4.278-.577.579-.496-.196-1.532-.368-1.035-.171-.716 1.38-.184 2.303.532.924-.389 2.571-.389 2.571l-1.651-1.04c-1.651-1.038-4.419-6.56-4.166-7.961.018-.121.04-.246.063-.373z" fill="#2C3A64"/>
    <path d="m107.281 164.473-13.327 4.208-.708-1.978 13.005-5.104 1.03 2.874z" fill="#2A4E96"/>
    <path d="m117.473 161.722-14.486 4.661-1.288-3.595 14.164-5.559 1.61 4.493z" fill="#2A4E96"/>
    <path d="m127.372 159.006-12.266 3.77-1.737-4.854 11.879-4.847 2.124 5.931z" fill="#233862"/>
    <path d="M127.802 159.783a.718.718 0 0 0 .435-.915l-2.232-6.235a.717.717 0 0 0-1.352.481l2.231 6.235a.718.718 0 0 0 .918.434z" fill="#233862"/>
    <path d="M94.044 169.122a.638.638 0 0 1-.815-.386l-.578-1.619a.638.638 0 0 1 1.202-.427l.578 1.619a.637.637 0 0 1-.387.813z" fill="#2A4E96"/>
    <path d="M69.129 222.216c1.082-3.488 3.605-10.129 2.844-24.855a24.152 24.152 0 0 1 .099-3.865h.001c3.233-.277 8.175 3.209 8.175 3.209s-3.045 18.507-11.12 25.511z" fill="#ED7D2B"/>
    <path d="M83.936 179.722s-8.289 1.422-12.612 6.685C67 191.672 60.045 199.096 58.4 201.695c-1.644 2.6-6.208 20.29-6.208 20.29s.301.569 1.56.901c1.206.316 2.08-.175 2.08-.175s6.047-10.325 8.323-15.481c.946-2.142 17.3-10.629 23.449-9.75 2.414.345-3.669-17.758-3.669-17.758z" fill="#F99746"/>
    <path d="M107.07 160.68s1.793.207 2.737-.377c.919-.568.686-.967.686-.967s-3.34.336-3.423 1.344z" fill="#FFB27D"/>
    <path d="M91.98 185.489s-3.638 22.909-29.447 29.579l-2.812 5.533 4.94.834s29.384-8.492 28.988-36.352l-1.67.406z" fill="#BC3F3F"/>
    <path d="m91.418 181.833-1.193.117v1.72l1.755 1.819 1.67-.406v-2.387l-1.2-.863h-1.032z" fill="#A02E2E"/>
    <path d="M86.623 177.42s-1.323.463-3.668 2.302c0 0 2.622 5.551 8.153 6.215 0 0-.09-2.576.31-4.105.002.001-4.505-1.423-4.795-4.412z" fill="#ED7D2B"/>
    <path d="M91.416 181.833s2.7 1.43 2.9 3.657c0 0 1.001-1.622.732-2.76-.381-1.62-1.291-2.533-1.291-2.533s.158 1.468-2.341 1.636z" fill="#ED7D2B"/>
    <path d="M235.87 200.614c-13.236 7.02-15.661 26.842-7.517 40.496 2.253-10.656 7.551-16.416 7.551-16.416-3.347 22.983 7.505 36.785 7.505 36.785 20.794-20.482 12.147-44.912 12.147-44.912 6.41 9.566 5.038 18.493 5.038 18.493 14.714-19.529-2.278-34.044-2.278-34.044-14.909-3.319-22.446-.402-22.446-.402z" fill="#F99746"/>
    <path d="M240.395 199.083c-6.93 5.299-3.795 14.112-3.795 14.112 2.599-6.22 4.402-7.864 4.402-7.864-2.946 11.407 4.125 21.921 4.125 21.921 11.986-11.378 6.437-22.496 6.437-22.496 4.807 2.202 4.693 8.54 4.693 8.54 3.293-7.908-2.164-13.87-2.164-13.87-6.238-.775-13.698-.343-13.698-.343z" fill="#ED7D2B"/>
    <path d="M246.28 158.971h-25.187c-9.145 0-16.99 6.507-18.657 15.475l-5.932 31.893c-.176.947.874 1.642 1.68 1.111l48.097-31.644v-16.835h-.001z" fill="#2A4E96"/>
    <path d="M229.893 177.304c-2.178-10.105-14.871-16.415-14.871-16.415 6.779 21.786-7.24 34.392-17.542 40.204l-.976 5.246c-.176.946.874 1.641 1.68 1.111l33.004-21.715c-.26-3.217-.79-6.088-1.295-8.431z" fill="#233862"/>
    <path d="M246.279 158.971h25.186c9.145 0 16.99 6.507 18.658 15.475l5.932 31.893c.175.947-.874 1.642-1.68 1.111l-48.098-31.644v-16.835h.002z" fill="#2A4E96"/>
    <path d="M294.376 207.45c.806.531 1.856-.164 1.68-1.111l-5.932-31.893a18.853 18.853 0 0 0-2.887-7.075c4.676 23.422 1.32 33.233-9.088 26.513-10.408-6.721-13.007-13.414-11.968-21.142-4.35 3.132-7.286 6.594-9.072 10.19l37.267 24.518z" fill="#233862"/>
    <path d="M236.091 198.744h20.379c11.329-11.3 29.66-47.358 29.66-86.725 0-46.866-39.851-68.615-39.851-68.615s-39.851 21.747-39.851 68.615c.003 39.367 17.742 74.833 29.663 86.725z" fill="#829AD8"/>
    <path d="M277.65 47H291L246.5 0 202 47h13.35l31.15-32.952L277.65 47zm-53.4-37.548V0H210.9v23.5l13.35-14.048z" fill="#6D87CB"/>
    <path d="M258.754 176.821c-11.096 13.387-18.819 17.051-32.377 8.811 3.355 5.651 6.716 10.125 9.711 13.112h20.379c11.328-11.3 29.66-47.358 29.66-86.725 0-46.866-39.851-68.615-39.851-68.615 44.705 31.36 31.884 109.221 12.478 133.417z" fill="#6E8AD2"/>
    <path d="M246.607 122.492c12.613 0 22.838-10.2 22.838-22.781 0-12.582-10.225-22.781-22.838-22.781-12.613 0-22.837 10.2-22.837 22.78 0 12.582 10.224 22.782 22.837 22.782z" fill="#233862"/>
    <path d="M245.162 121.627c12.613 0 22.838-10.2 22.838-22.781 0-12.582-10.225-22.781-22.838-22.781-12.613 0-22.838 10.2-22.838 22.78 0 12.582 10.225 22.782 22.838 22.782z" fill="#fff"/>
    <path d="M245.166 81.327c.909 0 1.646-.735 1.646-1.642 0-.907-.737-1.642-1.646-1.642-.91 0-1.646.735-1.646 1.642 0 .907.736 1.642 1.646 1.642zM246.676 118.63a1.64 1.64 0 0 0-.886-2.147 1.648 1.648 0 0 0-2.153.884 1.64 1.64 0 0 0 .886 2.147 1.648 1.648 0 0 0 2.153-.884zM225.953 100.488c.909 0 1.646-.735 1.646-1.642 0-.907-.737-1.642-1.646-1.642-.909 0-1.646.735-1.646 1.642 0 .907.737 1.642 1.646 1.642zM265.886 99.454a1.641 1.641 0 0 0-.896-2.143 1.648 1.648 0 0 0-2.149.894 1.64 1.64 0 0 0 .896 2.143 1.648 1.648 0 0 0 2.149-.894zM232.744 84.137a1.64 1.64 0 0 1 0 2.322 1.649 1.649 0 0 1-2.328 0 1.64 1.64 0 0 1 0-2.322 1.649 1.649 0 0 1 2.328 0zM259.91 111.236a1.65 1.65 0 0 0-2.328 0 1.639 1.639 0 0 0 0 2.322 1.648 1.648 0 0 0 2.328 0 1.64 1.64 0 0 0 0-2.322zM230.416 111.236a1.65 1.65 0 0 1 2.328 0 1.639 1.639 0 0 1 0 2.322 1.648 1.648 0 0 1-2.328 0 1.639 1.639 0 0 1 0-2.322zM257.582 84.137a1.64 1.64 0 0 0 0 2.322 1.649 1.649 0 0 0 2.328 0 1.64 1.64 0 0 0 0-2.322 1.649 1.649 0 0 0-2.328 0z" fill="#F99746"/>
    <path d="M256.706 110.079c5.964-5.949 5.964-15.593 0-21.542-5.963-5.949-15.632-5.949-21.596 0-5.963 5.949-5.963 15.593 0 21.542 5.964 5.949 15.633 5.949 21.596 0z" fill="#77A4E5"/>
    <path d="M230.641 99.307c0-8.413 6.836-15.233 15.271-15.233 2.765 0 5.36.734 7.597 2.017a15.22 15.22 0 0 0-8.35-2.478c-8.434 0-15.27 6.82-15.27 15.233 0 5.653 3.087 10.587 7.673 13.215-4.166-2.719-6.921-7.414-6.921-12.754z" fill="#5D8DD4"/>
    <path d="M233.271 103.596c0-9.174 7.456-16.611 16.654-16.611.18 0 .36.003.539.009a13.19 13.19 0 0 0-4.954-.96c-7.286 0-13.192 5.892-13.192 13.158 0 1.748.342 3.416.962 4.942a19.24 19.24 0 0 1-.009-.538z" fill="#8EB2E5"/>
    <path d="M258.313 201.016h-24.068a2.275 2.275 0 0 1-2.278-2.272 2.275 2.275 0 0 1 2.278-2.273h24.068a2.275 2.275 0 0 1 2.279 2.273 2.274 2.274 0 0 1-2.279 2.272z" fill="#2A4E96"/>
    <path d="M258.314 196.471h-.389a2.275 2.275 0 0 1-1.69 3.797h-23.678a2.276 2.276 0 0 0 1.69.748h24.069a2.275 2.275 0 0 0 2.278-2.272 2.279 2.279 0 0 0-2.28-2.273z" fill="#233862"/>
    <path d="M0 297.559v.319c0 .511.242.933.536.933h472.353c.294 0 .537-.422.537-.933v-.319c0-.511-.241-.933-.537-.933H.536c-.294 0-.536.422-.536.933z" fill="#2E3552"/>
</svg>
