<svg width="871" height="320" viewBox="0 0 871 320" fill="none" xmlns="http://www.w3.org/2000/svg">
    <path d="M816.477 176.72c-54.493-20.083 32.037-89.54-51.906-112.084-54.807-14.72-119.653-8.693-165.374-29.965-146.888-68.34-299.35-17.585-344.132 0C122.496 86.726 154.714 103.459 37.783 176.72-13.027 208.554-16.608 278.747 51.814 318h785.867c60.612-30.585 29.421-122.622-21.204-141.28z" fill="#fff"/>
    <g opacity=".5">
        <path opacity=".5" d="M387.147 44.655H260.732v272.71h126.415V44.655z" fill="#9BC1F9"/>
        <path opacity=".5" d="M382.633 48.626H265.201v264.466h117.432V48.626z" fill="#C5DDF9"/>
        <path opacity=".5" d="M315.254 313.09h13.944l46.38-264.464h-13.944l-46.38 264.464zM334.032 46.497h-28.69l-39.903 230.318v36.909h22.297l46.296-267.227z" fill="#fff"/>
    </g>
    <g opacity=".5">
        <path opacity=".5" d="M240.831 44.655H114.416v272.71h126.415V44.655z" fill="#9BC1F9"/>
        <path opacity=".5" d="M236.316 48.626H118.885v264.466h117.431V48.626z" fill="#C5DDF9"/>
        <path opacity=".5" d="M168.268 313.724h14.203l47.244-267.227h-14.203l-47.244 267.227zM183.987 46.497h-29.289l-40.733 230.318v36.909h22.763l47.259-267.227z" fill="#fff"/>
    </g>
    <path d="M202.249 134.533c.004-1.992 1.073-3.745 2.736-4.965 2.264-1.663 5.268-1.966 7.861-.881 7.234 3.026 10.977 3.801 10.131 11.15-.208 1.806-1.31 3.393-1.717 5.164-3.119 13.566-16.773 11.126-18.343 4.016-5.99-6.772-.69-6.643-.668-14.484z" fill="#89A6E5"/>
    <path opacity=".3" d="M221.26 140.999c-3.119 13.565-16.773 11.126-18.342 4.016-1.216-1.373-1.966-2.464-2.389-3.394-.784 2.028-.91 3.664 2.389 7.394 1.569 7.112 15.223 9.552 18.342-4.016.407-1.771 1.512-3.358 1.718-5.164.17-1.481.15-2.692-.042-3.712-.284 1.691-1.291 3.2-1.676 4.876z" fill="#89A6E5"/>
    <path d="M208.324 132.2c.784-.016.228 3.588.879 4.002.651.416 2.183-4.06 2.86-4.018 1.246.082-1.375 5.005-.803 5.078.571.074 3.526-4.87 4.259-3.991.732.881-3.6 4.808-3.022 5.16.578.352 3.699-4.015 5.043-3.477.717.287-6.283 6.787-6.185 7.838.095 1.052 4.172.272 4.442 1.173.271.901-7.484.813-7.9 1.236-.416.422-10.88 10.574-13.107 14.072 1.127.883 9.052 6.189 10.125 6.997-2.227 1.64-1.983 5.114-4.099 6.867-3.489-2.92-15.894-10.874-15.644-12.631.923-6.491 15.464-16.335 18.191-18.345 2.73-2.012 2.617-3.712 3.79-5.295 1.173-1.576.388-4.651 1.171-4.666z" fill="#F7A491"/>
    <path d="M233.308 198.641c-.18.617-.284.823-.512 1.239-1.472 2.681-4.887 6.504-4.887 6.504l-2.643-5.955s.431-1.87 1.177-4.542c2.553.668 4.983 1.053 6.865 2.754z" fill="#F8A492"/>
    <path d="M218.158 193.476s14.739 6.346 15.215 6.225c.307-.078 6.045-9.685 6.107-18.717.029-4.173-4.303-9.191-9.138-8.197-2.433.5-2.395 1.178-5.997 6.409-3.601 5.23-6.187 14.28-6.187 14.28z" fill="#89A6E5"/>
    <path d="M205.577 307.271s.35 5.788.352 5.799c.129.735.636 2.55.636 3.219 0 2.51-11.919-2.13-9.247-3.243.241-.102 1.508-.863 1.587-1.716.122-1.317.434-3.978.434-3.978l6.238-.081z" fill="#F7A491"/>
    <path d="M197.345 313.024s2.798.768 4.23.958c1.433.193 3.323-1.423 4.337-.987 1.116.48 1.071 4.806 1.071 4.806s-15.006 1.231-19.225-.042c-1.672-.505 3.865-2.947 9.587-4.735z" fill="#355389"/>
    <path d="M229.956 307.271s.35 5.788.352 5.799c.128.735.635 2.55.635 3.219 0 2.51-11.918-2.13-9.246-3.243.241-.102 1.884-1.43 1.964-2.285.121-1.317.057-3.411.057-3.411l6.238-.079zM228.849 163.342l1.35 8.547s-5.149 4.135-8.15 3.263c-2.52-.733-.791-4.025-.791-4.025s1.342-4.562.93-6.953c-.412-2.393 6.661-.832 6.661-.832z" fill="#F7A491"/>
    <path d="M227.879 165.925c-1.291.609-3.843 1.441-5.826 1.642.19-1.195.299-2.461.137-3.395-.19-1.105 1.215-1.364 2.78-1.326 2.05.175 3.879.496 3.879.496l.259 1.642c-.39.412-.8.739-1.229.941z" fill="#FE875E"/>
    <path d="M235.347 153.484c.213 0-2.034 9.548-5.514 11.19-3.48 1.643-8.666.786-9.64-1.784-1.076-2.845 2.851-12.585 7.743-13.82 4.894-1.237 7.411 4.414 7.411 4.414z" fill="#F7A491"/>
    <path d="M231.321 144.714a10.956 10.956 0 0 1 4.482 4.952c1.304.617 2.883 1.956 3.64 5.565.932 4.434-2.38 7.851-5.891 8.881-3.511 1.027-4.053 3.351-4.053 3.351l-.398-2.499s.781-2.176 1.954-3.265c1.176-1.089-.555-2.676-.708-3.971-.118-.996.617-2.933.458-4.569 0 0-1.95-2.956-3.874-3.686-3.276-1.251.824-6.816 4.39-4.759z" fill="#F7CC7F"/>
    <path d="M227.257 215.967s2.018 9.764 1.197 17.169c-.821 7.404-.887 33.705-.887 33.705l3.141 42.081-7.454.162s-8.837-42.062-8.673-40.982c.164 1.081-2.964-29.616-2.964-29.616l10.535-23.447 5.105.928z" fill="#13375B"/>
    <path d="M225.282 215.504s1.318 8.793-.329 12.649-14.121 41.692-14.285 44.777c-.164 3.086-4.312 37.183-4.312 37.183l-8.667-.244-1.875-37.91 3.925-47.649 3.812-12.047 21.731 3.241z" fill="#355389"/>
    <path d="M230.201 171.888s-2.136 1.402-4.131 1.24c-1.992-.162-4.81-2.001-4.81-2.001l.392-1.328s5.155-.751 5.286-.671c.13.082 3.263 2.76 3.263 2.76z" fill="#F7A491"/>
    <path d="M202.233 201.622c1.138-6.189 9.384-25.45 10.041-28.998.321-1.725 4.768-1.765 9.005-1.539 4.474.237 8.919.804 8.919.804s3.963.651 5.705 2.284c1.742 1.634 2.205 6.15-.299 14.723-1.977 6.767-4.43 10.484-5.643 15.414-.245 1.653-.456 3.285-.735 5.191-.445 7.371-9.58 6.924-9.58 6.924s-7.779 9.541-15.846 2.754c-.002.002-2.733-11.217-1.567-17.557z" fill="#9BC1F9"/>
    <path d="M198.768 159.855s-5.82 9.302-5.756 9.791c.042.314 10.152 10.842 17.55 12.604 4.091.974 11.084-6.59 10.599-10.151-.334-2.469-22.393-12.244-22.393-12.244z" fill="#89A6E5"/>
    <path d="M386.063 47.178c.157.22.396.525.744.948.004.007.009.01.013.018-.013.05-4.416 15.993-.95 17.202 3.179 1.111 3.447-10.58 2.159-15.478a24.177 24.177 0 0 1 1.857 3.427c.894 2.043 1.505 4.677 1.908 7.615-.646 1.058-4.596 7.71-2.617 9.08 1.605 1.111 2.655-3.263 2.945-6.152.232 2.612.332 5.373.343 8.113-2.136.525-8.587 2.376-8.709 5.687-.135 3.7 5.41 2.608 8.707-4.252a158.55 158.55 0 0 1-.257 7.854c-1.537 1.386-7.852 7.342-6.834 10.782 1.032 3.487 4.992-.507 6.663-8.122-.31 4.361-.704 7.67-.879 8.716-.057.345-.121.788-.19 1.31l-.077.605s-9.816 13.226-7.007 16.272c1.993 2.158 4.977-6.676 6.544-12.005-.542 5.656-1.018 13.03-.565 15.306l.036-.007c-.348 5.098-.584 14.371 2.225 14.838 3.885.649 0-9.714 0-9.714s4.741 1.893 5.18 0c.734-3.167-5.909-7.63-6.98-8.325.013-2.816.268-6.807.589-10.433.356 7.772 2.3 10.083 3.055 10.34.936.317 2.866-1.585 2.204-7.593-.513-4.668-3.371-7.686-4.622-8.801a51.76 51.76 0 0 1 .244-1.687c.168-1.003.533-4.078.837-8.166.759 6.39 2.556 11.62 4.177 8.38 1.58-3.156-2.546-9.195-3.994-11.158.169-2.852.286-6.02.286-9.238 1.204 3.159 6.49 9.098 7.15 5.7.649-3.342-5.913-6.82-7.161-7.45-.038-2.755-.171-5.508-.441-8.092 1.468 2.604 5.942 7.94 6.473 5.06.607-3.287-6.896-8.336-6.896-8.336l-.011.013c-.405-2.446-.969-4.64-1.74-6.404a24.377 24.377 0 0 0-1.755-3.28c2.774 1.881 7.017 3.555 6.847 1.591-.186-2.13-6.712-3.854-8.793-4.35-.071-.101-.119-.146-.148-.143a37.26 37.26 0 0 0-2.331-2.597h-.91c.923.91 1.829 1.884 2.681 2.926zM380.414 52.723c2.07 1.167 1.313-4.657.624-8.47h-2.023c-.372 3.189-.463 7.421 1.399 8.47z" fill="#327F6B"/>
    <path d="M383.122 52.398c2.752-.385.279-4.538-3.599-8.142h-4.06c2.045 3.75 5.16 8.492 7.659 8.142zM372.124 44.256h-4.161c-2.134 2.661-3.748 5.94-2.296 8.88 2.048 4.15 4.81-3.301 6.457-8.88z" fill="#327F6B"/>
    <path d="M374.673 44.256h-.688c.177 1.231.369 2.6.568 4.078-1.666 3.287-10.173 20.631-6.12 24.352 4.482 4.115 6.081-16.952 6.081-16.952l.236-5.933a448.876 448.876 0 0 1 2.019 17.8c-1.543 1.271-7.92 6.87-5.266 10.553 2.468 3.427 4.651-6.048 5.355-9.56.378 4.26.684 8.59.848 12.721-1.63.757-8.501 4.175-6.617 7.159 1.826 2.889 5.618-3.524 6.676-5.439.078 2.532.096 4.974.04 7.26-1.779.837-9.742 4.733-7.776 6.593 2.211 2.087 6.756-3.502 6.756-3.502s-3.562 14.313.31 12.777c3.874-1.536 1.286-13.636 1.408-13.941l-.067-.39c.075-1.882.095-3.88.069-5.964.719 1.842 2.107 4.91 2.944 3.591.985-1.554-2.021-4.726-2.986-5.68-.073-2.838-.222-5.8-.425-8.793 1.399 3.533 4.321 8.636 5.804 6.243 1.665-2.683-4.591-9.625-6.194-11.332-.372-4.398-.83-8.753-1.304-12.78 1.966 5.147 8.375 16.036 10.446 12.32 2.157-3.87-8.951-15.992-11.194-18.378a447.35 447.35 0 0 0-.923-6.803zM352.227 48.05c1.68 4.48 4.998 12.035 8.257 11.95 4.394-.12-1.88-9.922-8.348-14.492l-.036-.89c-1.053.204-2.102.421-3.114.76-3.688 2.568-9.935 7.938-8.016 13.253 2.26 6.265 8.233-8.642 10.019-13.388.087 2.22.199 5.487.288 9.432-2.636 4.042-13.629 21.52-9.68 26.057 4.474 5.14 8.89-18.1 8.89-18.1l.841-5.493c.1 5.598.137 12.261-.004 19.102-2.157 1.427-9.408 6.663-6.993 10.957 2.202 3.916 5.574-5.155 6.955-9.35-.115 4.61-.319 9.27-.642 13.707-2.2.752-9.738 3.623-8.069 7.07 1.594 3.289 6.252-2.643 7.898-4.921-.23 2.747-.511 5.388-.852 7.858-2.413.831-11.181 4.045-9.282 6.294 2.199 2.601 7.956-3.051 7.956-3.051s-5.757 15.48-1.255 14.256c3.967-1.078 3.38-11.911 3.305-14.692.37-2.244.684-4.668.945-7.216.605 2.147 1.676 5.131 2.692 3.867 1.222-1.523-1.357-5.105-2.442-6.484.268-3.055.472-6.244.622-9.48 1.189 4.066 3.655 9.472 5.517 7.107 2.112-2.68-3.491-10.703-5.293-13.144.135-4.773.175-9.515.159-13.933 1.778 6.216 7.224 18.057 9.891 14.325 2.807-3.93-7.398-18.141-9.964-21.597-.064-3.8-.159-7.143-.245-9.764z" fill="#3C8F7C"/>
    <path d="M356.759 55.449c2.358 2.76 4.795-6.294 5.873-11.033.035 3.25.075 7.601.102 12.64-1.455 1.494-5.964 6.464-5.335 10.147.611 3.573 4.086-3.872 5.348-6.738.009 2.632.013 5.41.009 8.283-1.822 1.583-6.225 5.877-4.124 8.793 1.7 2.36 3.245-2.316 4.117-5.884-.009 3.272-.028 6.643-.059 10.041-2.203 1.764-8.328 7.217-6.092 11.746 1.983 4.02 4.737-4.47 6.067-9.296-.04 3.624-.097 7.261-.17 10.83-1.209 2.02-5.614 9.766-3.201 11.435 1.304.903 2.324-.996 2.995-3.457a502.551 502.551 0 0 1-.379 9.52c-1.607 1.065-8.243 5.69-7.471 9.014.483 2.077 5.687 0 5.687 0s-4.263 11.372 0 10.661c3.024-.504 2.831-10.295 2.464-15.953.064-1.041.124-2.112.179-3.215.631 2.369 1.7 4.085 2.911 2.635 2.127-2.548-1.813-8.596-2.605-9.754.11-3.114.203-6.364.276-9.682 1.636 3.185 7.861 10.794 8.574 6.922.686-3.721-6.659-9.182-8.501-10.488.062-3.303.107-6.65.142-9.975 1.182 2.517 5.213 10.581 8.222 10.16 3.491-.489-2.683-7.946-8.217-10.731.031-3.26.05-6.497.062-9.647l.035.252c.332 2.139 4.049 10.207 5.707 7.535 1.656-2.671-5.707-10.193-5.707-10.193s-.013.02-.031.066c.007-3.044.004-5.99-.004-8.782 1.171 2.96 5.266 9.528 6.576 7.325 1.244-2.092-4.586-8.303-6.588-10.34-.017-4.04-.044-7.679-.073-10.714 1.391 3.044 5.603 11.42 6.889 8.386 1.373-3.234-5.355-9.455-6.915-10.838-.002-.3-.007-.587-.009-.868h-3.343c-2.479 3.663-5.365 8.91-3.411 11.197zM116.121 47.178c-.157.22-.396.525-.744.948-.004.007-.009.01-.013.018.013.05 4.416 15.993.949 17.202-3.178 1.111-3.446-10.58-2.158-15.478a24.076 24.076 0 0 0-1.857 3.427c-.894 2.043-1.505 4.677-1.908 7.615.646 1.058 4.595 7.71 2.616 9.08-1.605 1.111-2.654-3.263-2.944-6.152-.232 2.612-.332 5.373-.343 8.113 2.136.525 8.587 2.376 8.709 5.687.135 3.7-5.411 2.608-8.707-4.252.018 2.725.118 5.399.257 7.854 1.536 1.386 7.852 7.342 6.834 10.782-1.032 3.487-4.992-.507-6.664-8.122.31 4.361.704 7.67.879 8.716.058.345.122.788.191 1.31l.077.605s9.815 13.226 7.006 16.272c-1.992 2.158-4.976-6.676-6.543-12.005.542 5.656 1.018 13.03.564 15.306l-.035-.007c.347 5.098.584 14.371-2.225 14.838-3.885.649 0-9.714 0-9.714s-4.741 1.893-5.18 0c-.735-3.167 5.906-7.63 6.978-8.325-.014-2.816-.268-6.807-.589-10.433-.357 7.772-2.3 10.083-3.055 10.34-.936.317-2.867-1.585-2.205-7.593.514-4.668 3.372-7.686 4.622-8.801a49.441 49.441 0 0 0-.243-1.687c-.168-1.003-.536-4.078-.837-8.166-.759 6.39-2.557 11.62-4.177 8.38-1.581-3.156 2.546-9.195 3.993-11.158a158.73 158.73 0 0 1-.285-9.238c-1.205 3.159-6.491 9.098-7.15 5.7-.649-3.342 5.912-6.82 7.161-7.45.037-2.755.17-5.508.44-8.092-1.467 2.604-5.941 7.94-6.472 5.06-.607-3.287 6.895-8.336 6.895-8.336l.011.013c.405-2.446.97-4.64 1.74-6.404a24.382 24.382 0 0 1 1.756-3.28c-2.774 1.881-7.018 3.555-6.847 1.591.186-2.13 6.711-3.854 8.792-4.35.071-.101.12-.146.149-.143a37.007 37.007 0 0 1 2.331-2.597h.909a36.953 36.953 0 0 0-2.678 2.926z" fill="#327F6B"/>
    <path d="M119.058 52.398c-2.752-.385-.279-4.538 3.599-8.142h4.06c-2.047 3.75-5.16 8.492-7.659 8.142zM130.055 44.256h4.161c2.134 2.661 3.748 5.94 2.296 8.88-2.048 4.15-4.808-3.301-6.457-8.88z" fill="#327F6B"/>
    <path d="M127.511 44.256h.688c-.177 1.231-.369 2.6-.569 4.078 1.667 3.287 10.174 20.631 6.121 24.352-4.483 4.115-6.081-16.952-6.081-16.952l-.237-5.933a452.66 452.66 0 0 0-2.019 17.8c1.543 1.271 7.921 6.87 5.267 10.553-2.468 3.427-4.651-6.048-5.355-9.56-.379 4.26-.684 8.59-.848 12.721 1.629.757 8.501 4.175 6.617 7.159-1.827 2.889-5.619-3.524-6.677-5.439a133.393 133.393 0 0 0-.039 7.26c1.779.837 9.742 4.733 7.776 6.593-2.211 2.087-6.756-3.502-6.756-3.502s3.562 14.313-.31 12.777c-3.874-1.536-1.286-13.636-1.41-13.941l.066-.39c-.075-1.882-.095-3.88-.068-5.964-.72 1.842-2.108 4.91-2.944 3.591-.985-1.554 2.021-4.726 2.986-5.68.073-2.838.221-5.8.425-8.793-1.399 3.533-4.321 8.636-5.804 6.243-1.665-2.683 4.591-9.625 6.193-11.332.372-4.398.831-8.753 1.304-12.78-1.965 5.147-8.374 16.036-10.444 12.32-2.156-3.87 8.952-15.992 11.195-18.378.323-2.544.642-4.844.923-6.803z" fill="#3C8F7C"/>
    <path d="M145.421 55.449c-2.358 2.76-4.795-6.294-5.873-11.033-.035 3.25-.075 7.601-.102 12.64 1.455 1.494 5.964 6.464 5.335 10.147-.611 3.573-4.086-3.872-5.348-6.738-.009 2.632-.013 5.41-.009 8.283 1.822 1.583 6.225 5.877 4.124 8.793-1.7 2.36-3.245-2.316-4.117-5.884.009 3.272.028 6.643.059 10.041 2.203 1.764 8.328 7.217 6.092 11.746-1.983 4.02-4.737-4.47-6.067-9.296.04 3.624.097 7.261.17 10.83 1.209 2.02 5.614 9.766 3.201 11.435-1.304.903-2.324-.996-2.995-3.457.104 3.327.228 6.525.379 9.52 1.607 1.065 8.243 5.69 7.471 9.014-.483 2.077-5.687 0-5.687 0s4.266 11.372 0 10.661c-3.024-.504-2.831-10.295-2.464-15.953a277.93 277.93 0 0 1-.179-3.215c-.631 2.369-1.7 4.085-2.911 2.635-2.128-2.548 1.813-8.596 2.605-9.754-.11-3.114-.203-6.364-.276-9.682-1.636 3.185-7.861 10.794-8.574 6.922-.686-3.721 6.659-9.182 8.5-10.488-.061-3.303-.106-6.65-.141-9.975-1.182 2.517-5.213 10.581-8.222 10.16-3.491-.489 2.683-7.946 8.217-10.731-.031-3.26-.051-6.497-.062-9.647l-.035.252c-.332 2.139-4.051 10.207-5.707 7.535-1.656-2.671 5.707-10.193 5.707-10.193s.013.02.031.066c-.007-3.044-.004-5.99.004-8.782-1.171 2.96-5.266 9.528-6.576 7.325-1.244-2.092 4.586-8.303 6.587-10.34.018-4.04.045-7.679.074-10.714-1.391 3.044-5.603 11.42-6.889 8.386-1.373-3.234 5.354-9.455 6.915-10.838.002-.3.007-.587.009-.868h3.343c2.479 3.663 5.365 8.91 3.411 11.197z" fill="#327F6B"/>
    <path d="M393.369 43.185H110v3.205h283.369v-3.205z" fill="#13375B"/>
    <g opacity=".5">
        <path opacity=".5" d="M733.678 44.655H607.264v272.71h126.414V44.655z" fill="#9BC1F9"/>
        <path opacity=".5" d="M729.162 48.626H611.73v264.466h117.432V48.626z" fill="#C5DDF9"/>
        <path opacity=".5" d="M661.781 313.09h13.946l46.381-264.464h-13.944L661.781 313.09zM679.859 46.497h-28.69l-39.903 230.318v36.909h22.297l46.296-267.227z" fill="#fff"/>
    </g>
    <g opacity=".5">
        <path opacity=".5" d="M587.364 44.655H460.949v272.71h126.415V44.655z" fill="#9BC1F9"/>
        <path opacity=".5" d="M582.848 48.626H465.416v264.466h117.432V48.626z" fill="#C5DDF9"/>
        <path opacity=".5" d="M515.52 313.724h13.874l46.144-267.227h-13.872L515.52 313.724zM534.097 46.497h-28.692l-39.901 230.318v36.909h22.297l46.296-267.227z" fill="#fff"/>
    </g>
    <path d="M732.594 47.178c.157.22.396.525.744.948.004.007.009.01.013.018-.013.05-4.416 15.993-.949 17.202 3.178 1.111 3.446-10.58 2.158-15.478a24.076 24.076 0 0 1 1.857 3.427c.894 2.043 1.505 4.677 1.908 7.615-.646 1.058-4.595 7.71-2.616 9.08 1.605 1.111 2.654-3.263 2.944-6.152.232 2.612.332 5.373.343 8.113-2.136.525-8.587 2.376-8.709 5.687-.135 3.7 5.411 2.608 8.707-4.252a158.55 158.55 0 0 1-.257 7.854c-1.536 1.386-7.852 7.342-6.834 10.782 1.032 3.487 4.992-.507 6.664-8.122-.31 4.361-.704 7.67-.879 8.716-.058.345-.122.788-.191 1.31l-.077.605s-9.815 13.226-7.006 16.272c1.992 2.158 4.976-6.676 6.543-12.005-.542 5.656-1.018 13.03-.564 15.306l.035-.007c-.347 5.098-.584 14.371 2.225 14.838 3.885.649 0-9.714 0-9.714s4.742 1.893 5.18 0c.735-3.167-5.908-7.63-6.98-8.325.013-2.816.268-6.807.589-10.433.356 7.772 2.3 10.083 3.055 10.34.936.317 2.867-1.585 2.205-7.593-.514-4.668-3.372-7.686-4.622-8.801.086-.664.168-1.236.243-1.687.166-1.003.534-4.078.837-8.166.759 6.39 2.557 11.62 4.177 8.38 1.58-3.156-2.546-9.195-3.993-11.158.168-2.852.285-6.02.285-9.238 1.204 3.159 6.49 9.098 7.15 5.7.649-3.342-5.912-6.82-7.161-7.45-.038-2.755-.17-5.508-.44-8.092 1.467 2.604 5.941 7.94 6.472 5.06.607-3.287-6.895-8.336-6.895-8.336l-.011.013c-.405-2.446-.97-4.64-1.74-6.404a24.382 24.382 0 0 0-1.756-3.28c2.774 1.881 7.018 3.555 6.847 1.591-.186-2.13-6.712-3.854-8.793-4.35-.07-.101-.119-.146-.148-.143a37.26 37.26 0 0 0-2.331-2.597h-.91a36.05 36.05 0 0 1 2.681 2.926zM726.947 52.724c2.07 1.166 1.313-4.658.625-8.47h-2.024c-.372 3.188-.462 7.42 1.399 8.47z" fill="#327F6B"/>
    <path d="M729.655 52.398c2.752-.385.279-4.538-3.599-8.142h-4.06c2.048 3.75 5.162 8.492 7.659 8.142zM718.656 44.256h-4.162c-2.134 2.661-3.748 5.94-2.295 8.88 2.047 4.15 4.81-3.301 6.457-8.88z" fill="#327F6B"/>
    <path d="M721.203 44.256h-.691c.177 1.231.37 2.6.569 4.078-1.667 3.287-10.174 20.631-6.121 24.352 4.483 4.115 6.081-16.952 6.081-16.952l.237-5.933c.679 5.118 1.43 11.359 2.019 17.8-1.543 1.271-7.921 6.87-5.267 10.553 2.469 3.427 4.651-6.048 5.355-9.56.379 4.26.684 8.59.848 12.721-1.629.757-8.5 4.175-6.617 7.159 1.827 2.889 5.619-3.524 6.677-5.439.077 2.532.095 4.974.04 7.26-1.78.837-9.743 4.733-7.777 6.593 2.212 2.087 6.756-3.502 6.756-3.502s-3.562 14.313.31 12.777c3.874-1.536 1.286-13.636 1.408-13.941l-.066-.39c.075-1.882.095-3.88.068-5.964.72 1.842 2.108 4.91 2.944 3.591.985-1.554-2.021-4.726-2.986-5.68-.073-2.838-.221-5.8-.425-8.793 1.399 3.533 4.321 8.636 5.804 6.243 1.665-2.683-4.591-9.625-6.193-11.332a397.769 397.769 0 0 0-1.304-12.78c1.965 5.147 8.374 16.036 10.446 12.32 2.156-3.87-8.952-15.992-11.195-18.378a426.233 426.233 0 0 0-.92-6.803zM698.756 48.05c1.68 4.48 4.998 12.035 8.257 11.95 4.394-.12-1.88-9.922-8.348-14.492l-.035-.89c-1.054.204-2.103.421-3.115.76-3.688 2.568-9.935 7.938-8.015 13.253 2.26 6.265 8.232-8.642 10.019-13.388.086 2.22.199 5.487.287 9.432-2.636 4.042-13.629 21.52-9.68 26.057 4.474 5.14 8.89-18.1 8.89-18.1l.841-5.493c.1 5.598.137 12.261-.004 19.102-2.156 1.427-9.408 6.663-6.993 10.957 2.202 3.916 5.574-5.155 6.955-9.35-.115 4.61-.319 9.27-.642 13.707-2.2.752-9.738 3.623-8.069 7.07 1.594 3.289 6.252-2.643 7.899-4.921-.23 2.747-.512 5.388-.853 7.858-2.412.831-11.181 4.045-9.281 6.294 2.198 2.601 7.956-3.051 7.956-3.051s-5.758 15.48-1.256 14.256c3.967-1.078 3.381-11.911 3.305-14.692.37-2.244.682-4.668.946-7.216.604 2.147 1.675 5.131 2.691 3.867 1.222-1.523-1.357-5.105-2.441-6.484.268-3.055.471-6.244.622-9.48 1.188 4.066 3.655 9.472 5.516 7.107 2.112-2.68-3.489-10.703-5.293-13.144.135-4.773.175-9.515.16-13.933 1.777 6.216 7.223 18.057 9.89 14.325 2.807-3.93-7.398-18.141-9.963-21.597-.065-3.8-.157-7.143-.246-9.764z" fill="#3C8F7C"/>
    <path d="M703.292 55.449c2.358 2.76 4.795-6.294 5.873-11.033.036 3.25.075 7.601.102 12.64-1.454 1.494-5.964 6.464-5.335 10.147.611 3.573 4.087-3.872 5.348-6.738.009 2.632.014 5.41.009 8.283-1.822 1.583-6.225 5.877-4.124 8.793 1.7 2.36 3.245-2.316 4.117-5.884a1509.88 1509.88 0 0 1-.059 10.041c-2.203 1.764-8.328 7.217-6.092 11.746 1.983 4.02 4.737-4.47 6.067-9.296-.039 3.624-.095 7.261-.17 10.83-1.209 2.02-5.614 9.766-3.201 11.435 1.304.903 2.324-.996 2.995-3.457a511.332 511.332 0 0 1-.378 9.52c-1.608 1.065-8.244 5.69-7.472 9.014.483 2.077 5.687 0 5.687 0s-4.263 11.372 0 10.661c3.024-.504 2.832-10.295 2.464-15.953.064-1.041.122-2.112.179-3.215.631 2.369 1.7 4.085 2.911 2.635 2.128-2.548-1.813-8.596-2.603-9.754.111-3.114.204-6.364.277-9.682 1.636 3.185 7.86 10.794 8.573 6.922.686-3.721-6.658-9.182-8.5-10.488.062-3.303.108-6.65.142-9.975 1.182 2.517 5.213 10.581 8.221 10.16 3.489-.489-2.683-7.946-8.217-10.731.031-3.26.051-6.497.062-9.647l.035.252c.332 2.139 4.049 10.207 5.707 7.535 1.656-2.671-5.707-10.193-5.707-10.193s-.013.02-.031.066c.007-3.044.005-5.99-.004-8.782 1.171 2.96 5.266 9.528 6.577 7.325 1.244-2.092-4.587-8.303-6.588-10.34-.018-4.04-.044-7.679-.073-10.714 1.39 3.044 5.603 11.42 6.889 8.386 1.372-3.234-5.355-9.455-6.914-10.838l-.008-.868h-3.343c-2.484 3.663-5.37 8.91-3.416 11.197zM462.65 47.178c-.157.22-.396.525-.744.948-.004.007-.009.01-.013.018.013.05 4.416 15.993.95 17.202-3.179 1.111-3.447-10.58-2.159-15.478a24.076 24.076 0 0 0-1.857 3.427c-.894 2.043-1.505 4.677-1.908 7.615.646 1.058 4.595 7.71 2.616 9.08-1.605 1.111-2.654-3.263-2.944-6.152-.232 2.612-.332 5.373-.343 8.113 2.136.525 8.587 2.376 8.709 5.687.135 3.7-5.411 2.608-8.707-4.252.018 2.725.118 5.399.257 7.854 1.536 1.386 7.852 7.342 6.834 10.782-1.032 3.487-4.992-.507-6.664-8.122.31 4.361.704 7.67.879 8.716.058.345.122.788.191 1.31l.077.605s9.818 13.226 7.006 16.272c-1.992 2.158-4.976-6.676-6.543-12.005.542 5.656 1.018 13.03.564 15.306l-.035-.007c.347 5.098.584 14.371-2.225 14.838-3.885.649 0-9.714 0-9.714s-4.741 1.893-5.18 0c-.735-3.167 5.908-7.63 6.98-8.325-.013-2.816-.268-6.807-.589-10.433-.356 7.772-2.3 10.083-3.055 10.34-.936.317-2.866-1.585-2.205-7.593.514-4.668 3.372-7.686 4.622-8.801a49.441 49.441 0 0 0-.243-1.687c-.166-1.003-.533-4.078-.837-8.166-.759 6.39-2.557 11.62-4.177 8.38-1.58-3.156 2.546-9.195 3.993-11.158a158.73 158.73 0 0 1-.285-9.238c-1.204 3.159-6.49 9.098-7.15 5.7-.649-3.342 5.913-6.82 7.161-7.45.038-2.755.17-5.508.441-8.092-1.468 2.604-5.942 7.94-6.473 5.06-.607-3.287 6.895-8.336 6.895-8.336l.011.013c.405-2.446.97-4.64 1.74-6.404a24.382 24.382 0 0 1 1.756-3.28c-2.774 1.881-7.018 3.555-6.847 1.591.186-2.13 6.712-3.854 8.793-4.35.07-.101.119-.146.148-.143a37.26 37.26 0 0 1 2.331-2.597h.91a36.05 36.05 0 0 0-2.681 2.926z" fill="#327F6B"/>
    <path d="M465.587 52.398c-2.751-.385-.279-4.538 3.6-8.142h4.059c-2.047 3.75-5.162 8.492-7.659 8.142zM476.584 44.256h4.162c2.134 2.661 3.747 5.94 2.295 8.88-2.047 4.15-4.81-3.301-6.457-8.88z" fill="#327F6B"/>
    <path d="M474.038 44.256h.689a452.11 452.11 0 0 0-.569 4.078c1.667 3.287 10.174 20.631 6.12 24.352-4.482 4.115-6.08-16.952-6.08-16.952l-.237-5.933c-.68 5.118-1.43 11.359-2.019 17.8 1.543 1.271 7.92 6.87 5.266 10.553-2.468 3.427-4.651-6.048-5.355-9.56-.378 4.26-.684 8.59-.848 12.721 1.63.757 8.501 4.175 6.617 7.159-1.826 2.889-5.618-3.524-6.676-5.439a133.428 133.428 0 0 0-.04 7.26c1.78.837 9.742 4.733 7.776 6.593-2.211 2.087-6.756-3.502-6.756-3.502s3.562 14.313-.31 12.777c-3.873-1.536-1.286-13.636-1.407-13.941l.066-.39c-.075-1.882-.095-3.88-.069-5.964-.719 1.842-2.107 4.91-2.944 3.591-.985-1.554 2.021-4.726 2.986-5.68.073-2.838.222-5.8.425-8.793-1.399 3.533-4.321 8.636-5.804 6.243-1.664-2.683 4.591-9.625 6.194-11.332.372-4.398.83-8.753 1.304-12.78-1.966 5.147-8.374 16.036-10.446 12.32-2.156-3.87 8.952-15.992 11.194-18.378.323-2.544.642-4.844.923-6.803z" fill="#3C8F7C"/>
    <path d="M491.95 55.449c-2.358 2.76-4.795-6.294-5.873-11.033-.036 3.25-.078 7.601-.102 12.64 1.454 1.494 5.963 6.464 5.335 10.147-.611 3.573-4.087-3.872-5.348-6.738-.009 2.632-.014 5.41-.009 8.283 1.822 1.583 6.225 5.877 4.124 8.793-1.7 2.36-3.245-2.316-4.118-5.884.009 3.272.029 6.643.06 10.041 2.203 1.764 8.328 7.217 6.092 11.746-1.983 4.02-4.737-4.47-6.067-9.296.039 3.624.097 7.261.17 10.83 1.209 2.02 5.614 9.766 3.201 11.435-1.304.903-2.324-.996-2.995-3.457.104 3.327.228 6.525.378 9.52 1.607 1.065 8.244 5.69 7.471 9.014-.482 2.077-5.686 0-5.686 0s4.263 11.372 0 10.661c-3.024-.504-2.832-10.295-2.464-15.953a365.415 365.415 0 0 1-.18-3.215c-.63 2.369-1.7 4.085-2.91 2.635-2.128-2.548 1.812-8.596 2.603-9.754a713.44 713.44 0 0 1-.277-9.682c-1.636 3.185-7.861 10.794-8.573 6.922-.687-3.721 6.658-9.182 8.5-10.488-.062-3.303-.108-6.65-.142-9.975-1.182 2.517-5.213 10.581-8.221 10.16-3.489-.489 2.683-7.946 8.217-10.731-.031-3.26-.051-6.497-.062-9.647l-.035.252c-.333 2.139-4.049 10.207-5.707 7.535-1.656-2.671 5.707-10.193 5.707-10.193s.013.02.03.066c-.006-3.044-.004-5.99.005-8.782-1.171 2.96-5.266 9.528-6.577 7.325-1.244-2.092 4.587-8.303 6.588-10.34.018-4.04.044-7.679.073-10.714-1.39 3.044-5.603 11.42-6.889 8.386-1.372-3.234 5.355-9.455 6.916-10.838l.008-.868h3.343c2.482 3.663 5.368 8.91 3.414 11.197z" fill="#327F6B"/>
    <path d="M739.898 43.185H456.529v3.205h283.369v-3.205z" fill="#13375B"/>
    <path d="M136.624 182.206h-80.03a3.55 3.55 0 0 0-3.551 3.551v47.89c0 1.374.91 2.49 2.032 2.49h34.347v9.829h-20.35a2.751 2.751 0 0 0-2.752 2.751H126.456a2.75 2.75 0 0 0-2.751-2.751h-20.35v-9.829h34.787c1.122 0 2.032-1.116 2.032-2.49v-47.89a3.548 3.548 0 0 0-3.55-3.551z" fill="#213854"/>
    <path d="M125.603 245.968h-20.35v-11.622H91.318v11.622h-20.35a2.751 2.751 0 0 0-2.751 2.751H128.353a2.749 2.749 0 0 0-2.75-2.751zM142.071 227.032v-41.275a3.55 3.55 0 0 0-3.551-3.551H58.49a3.55 3.55 0 0 0-3.55 3.551v41.275h87.131z" fill="#001333"/>
    <path d="M54.94 227.033v6.614c0 1.375.91 2.49 2.032 2.49h83.071c1.122 0 2.032-1.115 2.032-2.49v-6.614H54.94z" fill="#001333"/>
    <path d="M140.034 225.241v-39.374c0-1.031-.867-1.868-1.936-1.868H58.915c-1.069 0-1.937.837-1.937 1.868v39.374h83.056z" fill="#BAE1F4"/>
    <path d="M202.872 270.364H51.961v7.571h150.911v-7.571z" fill="#FAE0B2"/>
    <path d="M185.918 248.759h-1.49v68.606h1.49v-68.606zM202.871 248.759h-1.49v68.606h1.49v-68.606zM53.45 248.759h-1.49v68.606h1.49v-68.606zM74.7 248.759h-1.49v68.606h1.49v-68.606z" fill="#001333"/>
    <path d="M202.872 248.759H51.961v2.581h150.911v-2.581z" fill="#FAE0B2"/>
    <path d="M74.697 248.759H51.961v2.581h22.736v-2.581zM74.697 270.364H51.961v7.571h22.736v-7.571z" fill="#F7CC7F"/>
    <path d="m166.129 222.798 24.133.179c1.844.014 3.106 1.311 2.821 2.898l-9.081 50.367c-.285 1.587-2.012 2.86-3.856 2.847l-24.133-.18c-1.844-.013-3.106-1.31-2.82-2.897l9.08-50.367c.288-1.585 2.014-2.86 3.856-2.847z" fill="#B75742"/>
    <path d="M139.768 275.603h17.8l9.456-50.286c.27-1.39 1.986-2.519 3.828-2.519h24.133c1.844 0 3.119 1.127 2.847 2.519l-10.25 54.354c-.27 1.39-1.985 2.519-3.827 2.519h-43.987c-2.411 0-4.366-1.474-4.366-3.293 0-1.82 1.955-3.294 4.366-3.294z" fill="#F47458"/>
    <path d="M163.967 313.263h2.523v-31.075h-2.523v31.075zM177.982 314.91h-25.074a2.092 2.092 0 0 0-2.092 2.092c0 .201.164.365.366.365h28.525a.366.366 0 0 0 .365-.365 2.088 2.088 0 0 0-2.09-2.092z" fill="#001333"/>
    <path d="M166.688 313.263h-3.073a1.645 1.645 0 0 0 0 3.289h3.073a1.644 1.644 0 1 0 0-3.289z" fill="#001333"/>
    <path d="m525.479 197.207-47.122.114.09 37.016 47.122-.113-.09-37.017z" fill="#ED9B8E"/>
    <path d="m495.028 197.279-16.671.04.09 37.017 16.671-.04-.09-37.017z" fill="#F47458"/>
    <path d="m514.8 197.232-10.066.024.012 4.928 10.066-.024-.012-4.928z" fill="#EFEFB4"/>
    <path d="m534.582 204.55-34.088.082.072 30.015 34.088-.082-.072-30.015z" fill="#F7CC7F"/>
    <path opacity=".5" d="m512.554 204.603-12.06.029.073 30.015 12.06-.029-.073-30.015z" fill="#F47458"/>
    <path d="m526.857 204.567-7.281.018.01 3.996 7.28-.018-.009-3.996z" fill="#EFEFB4"/>
    <path d="M732.792 182.206h-80.03a3.55 3.55 0 0 0-3.551 3.551v47.89c0 1.374.91 2.49 2.032 2.49h34.349v9.829h-20.35a2.75 2.75 0 0 0-2.751 2.751H722.624a2.75 2.75 0 0 0-2.751-2.751h-20.35v-9.829h34.787c1.122 0 2.032-1.116 2.032-2.49v-47.89a3.55 3.55 0 0 0-3.55-3.551z" fill="#213854"/>
    <path d="M721.769 245.968h-20.35v-11.622h-13.933v11.622h-20.35a2.751 2.751 0 0 0-2.751 2.751H724.521a2.752 2.752 0 0 0-2.752-2.751zM738.237 227.032v-41.275a3.55 3.55 0 0 0-3.551-3.551h-80.03a3.55 3.55 0 0 0-3.551 3.551v41.275h87.132z" fill="#001333"/>
    <path d="M651.105 227.033v6.614c0 1.375.91 2.49 2.033 2.49h83.069c1.122 0 2.032-1.115 2.032-2.49v-6.614h-87.134z" fill="#001333"/>
    <path d="M736.199 225.241v-39.374c0-1.031-.868-1.868-1.937-1.868H655.08c-1.07 0-1.937.837-1.937 1.868v39.374h83.056z" fill="#BAE1F4"/>
    <path d="M799.036 270.364H648.125v7.571h150.911v-7.571z" fill="#FAE0B2"/>
    <path d="M782.08 248.759h-1.49v68.606h1.49v-68.606zM799.035 248.759h-1.49v68.606h1.49v-68.606zM649.615 248.759h-1.49v68.606h1.49v-68.606zM670.865 248.759h-1.49v68.606h1.49v-68.606z" fill="#001333"/>
    <path d="M799.036 248.759H648.125v2.581h150.911v-2.581z" fill="#FAE0B2"/>
    <path d="M670.861 248.759h-22.736v2.581h22.736v-2.581zM670.861 270.364h-22.736v7.571h22.736v-7.571z" fill="#F7CC7F"/>
    <path d="m762.291 222.798 24.133.179c1.844.014 3.106 1.311 2.821 2.898l-9.081 50.367c-.285 1.587-2.012 2.86-3.856 2.847l-24.133-.18c-1.844-.013-3.106-1.31-2.82-2.897l9.08-50.367c.286-1.585 2.012-2.86 3.856-2.847z" fill="#B75742"/>
    <path d="M735.932 275.602h17.8l9.456-50.285c.27-1.39 1.986-2.519 3.828-2.519h24.135c1.844 0 3.119 1.127 2.847 2.519l-10.249 54.354c-.27 1.39-1.986 2.519-3.828 2.519h-43.989c-2.411 0-4.366-1.474-4.366-3.294s1.953-3.294 4.366-3.294z" fill="#F47458"/>
    <path d="M760.131 313.263h2.523v-31.075h-2.523v31.075zM774.146 314.91h-25.074a2.092 2.092 0 0 0-2.092 2.092c0 .201.164.365.366.365h28.525a.366.366 0 0 0 .365-.365 2.088 2.088 0 0 0-2.09-2.092z" fill="#001333"/>
    <path d="M762.852 313.263h-3.073a1.645 1.645 0 0 0 0 3.289h3.073a1.646 1.646 0 0 0 0-3.289z" fill="#001333"/>
    <path d="M304.653 271.719h-2.809V312.8h2.809v-41.081zM289.051 314.631h27.912a2.329 2.329 0 0 1 2.329 2.329.407.407 0 0 1-.408.407h-31.752a.406.406 0 0 1-.407-.407 2.324 2.324 0 0 1 2.326-2.329z" fill="#13375B"/>
    <path d="M301.624 312.8h3.42a1.832 1.832 0 0 1 0 3.663h-3.42a1.832 1.832 0 0 1 0-3.663z" fill="#13375B"/>
    <path d="m321.333 266.989-1.922-7.996c-1.344-5.592-6.293-9.661-12.04-9.893l-24.326-.983-.75-2.477 25.173 1.018c6.834.277 12.722 5.114 14.318 11.764l2.041 8.496c-.688.031-1.532.053-2.494.071z" fill="#355389"/>
    <path d="M288.705 262.732s33.42.571 36.904 0c3.484-.571 4.992 3.796 3.951 6.085-1.04 2.289-3.9 3.172-8.113 3.38-4.212.209-39.261 1.196-40.248.259-.808-.763-11.432-37.089-15.299-50.373a5.016 5.016 0 0 1 9.616-2.851l13.189 43.5z" fill="#F7CC7F"/>
    <path d="M560.146 312.798h2.809v-41.08h-2.809v41.08zM575.746 314.631h-27.911a2.328 2.328 0 0 0-2.329 2.329c0 .225.181.407.407.407h31.755a.406.406 0 0 0 .407-.407 2.33 2.33 0 0 0-2.329-2.329z" fill="#13375B"/>
    <path d="M563.175 312.8h-3.42a1.832 1.832 0 0 0 0 3.663h3.42a1.83 1.83 0 0 0 1.83-1.83 1.829 1.829 0 0 0-1.83-1.833z" fill="#13375B"/>
    <path d="m543.465 266.989 1.922-7.996c1.344-5.592 6.293-9.661 12.04-9.893l24.326-.983.75-2.477-25.173 1.018c-6.834.277-12.722 5.114-14.318 11.764l-2.041 8.496c.69.031 1.532.053 2.494.071z" fill="#355389"/>
    <path d="M576.095 262.732s-33.42.571-36.904 0c-3.484-.571-4.992 3.796-3.951 6.085 1.04 2.289 3.9 3.172 8.113 3.38 4.212.209 39.261 1.196 40.248.259.808-.763 11.431-37.089 15.299-50.373a5.016 5.016 0 0 0-9.616-2.851l-13.189 43.5z" fill="#F7CC7F"/>
    <path d="M330.779 238.57h206.619a.576.576 0 0 0 .576-.575v-3.524a.576.576 0 0 0-.576-.576H330.779a.576.576 0 0 0-.576.576v3.524c0 .316.259.575.576.575zM527.605 317.365h3.327l-7.167-78.795h-3.327l7.167 78.795zM499.335 317.365h-3.327l7.168-78.795h3.327l-7.168 78.795zM366.969 317.365h3.325l-7.168-78.795h-3.327l7.17 78.795zM338.7 317.365h-3.327l7.168-78.795h3.327l-7.168 78.795z" fill="#13375B"/>
    <path d="m252.501 250.055-30.362.067.059 26.736 30.362-.067-.059-26.736z" fill="#F9D293"/>
    <path opacity=".5" d="m232.881 250.097-10.742.024.059 26.736 10.743-.024-.06-26.736z" fill="#E5644E"/>
    <path d="m245.623 250.072-6.486.014.008 3.559 6.486-.014-.008-3.559z" fill="#EFEFB4"/>
    <path d="M255.508 275.996H215.41v41.369h40.098v-41.369z" fill="#F7CC7F"/>
    <path opacity=".6" d="M225.372 275.996h-9.962v41.369h9.962v-41.369z" fill="#ED9B8E"/>
    <path d="M243.121 275.996h-3.998v12.162h3.998v-12.162z" fill="#EFEFB4"/>
    <path d="M331.495 196.391c-2.997 1.665-9.353 5.127-12.011 5.816-.425-1.158-3.462-7.288-3.836-8.381-1.935 1.388-4.186 1.698-6.183 2.962 1.463 3.63 6.479 12.564 7.491 13.018 2.399 1.074 10.116-4.691 14.541-8.102v-5.313h-.002z" fill="#F48C7F"/>
    <path d="M296.527 187.984c4.536-3.053 7.068-10.721 4.992-15.741 2.154-2.176 3.287-1.596 3.252-4.647-.071-6.014 8.606-8.538 2.658-10.884-6.054-2.028-11.701 1.135-15.019 4.569-1.495 1.547-3.274 2.822-5.3 3.621-4.011 1.585-6.612 6.271-5.266 11.668-3.216 1.306-6.453 5.851-4.976 10.148.354 1.031 1.175 2.289 1.171 2.572-.014-.35-3.892 8.33 5.959 12.693 10.052 4.452 13.468-5.306 12.529-13.999z" fill="#13375B"/>
    <path d="m289.861 195.564 1.127 10.769s1.7 4.573 3.487 3.602c1.788-.972 5.731-2.181 7.59-5.65 1.86-3.468 3.008-.079 2.878-5.644-.131-5.565 2.371-4.919-.372-7.42-2.743-2.502.303-3.965-4.365-3.113-4.669.859-10.345 7.456-10.345 7.456z" fill="#9BC1F9"/>
    <path d="M300.131 303.496s.491 6.269.093 8.306c-.215 1.091-1.406 3.336-.859 4.363.547 1.027 1.171 1.284 1.171 1.284l14.161.23c.77.013.261-.487-.361-.948-1.019-.752-1.84-1.25-5.092-2.831-.212-.104-.985-.597-1.261-.768-.707-.434-1.415-1.116-2.026-1.8-1.016-1.137-1.105-6.658-1.105-6.658l-4.721-1.178z" fill="#F7A491"/>
    <path d="M307.979 313.132c-3.746.968-6.513.31-8.062-.319-.399 1.138-.93 2.566-.649 3.39.343 1.007.833 1.235 1.266 1.248 3.421.091 12.53.213 15.14.248a.43.43 0 0 0 .332-.704c-.649-.779-7.748-3.692-8.027-3.863z" fill="#5184CE"/>
    <path d="M276.14 300.953s-.797 5.56-2.167 7.353c-.461.602-1.302 1.364-1.853 2.453-.859 1.694-.383 4.217.25 5.605.326.713-.022.711.717.941 2.194.679 4.527-.465 5.461-2.579.523-1.18.979-2.754 1.072-4.737.234-5.047 1.795-7.615 1.795-7.615l-5.275-1.421z" fill="#F7A491"/>
    <path d="M311.198 220.164s1.785 10.178.614 16.852c-1.172 6.674-6.79 68.528-6.79 68.528l-6.244.354s-1.309-25.837-1.074-29.432c.235-3.593 2.087-9.608 2.087-9.608l-.622-20.861 7.881-27.407 4.148 1.574z" fill="#13375B"/>
    <path d="M278.973 313.617c-3.402.624-5.665-1.377-6.842-2.875-.866 1.698-1.287 4.23-.651 5.625.56 1.228 2.196 1.193 3.486 1.241 1.364.051 2.418-.71 3.093-1.903.316-.56.642-1.253.914-2.088z" fill="#5184CE"/>
    <path d="M310.056 201.111s-7.13-7.312-8.965-10.489c-1.835-3.176 1.251-1.109 4.401-1.943 1.193-.317.892-7.31 3.148-5.036 3.701 3.727 8.352 10.249 8.352 10.249l-6.936 7.219z" fill="#89A6E5"/>
    <path d="M312.336 197.033c-.54-3.551-2.977-12.363-3.699-13.392-.794-1.134-8.719-3.208-8.719-3.208s-6.4-1.264-9.32 1.178c-1.501 1.255-1.293 7.597-.737 13.952l22.475 1.47z" fill="#9BC1F9"/>
    <path d="M301.875 171.503s-.033.19-.095.516c-.29 1.563-1.107 6.991-1.862 8.414-.912 1.722 2.823 6.966 6.707 6.295 1.158-.199-.978-5.044-.874-5.558.197-.983.463-2.322.735-3.697l.456-2.3.755-3.816-5.822.146z" fill="#F7A491"/>
    <path d="m301.777 172.019.095-.516 5.822-.144-.755 3.817-.454 2.286c-.899-.132-1.837-.569-2.78-1.39a7.306 7.306 0 0 1-2.105-3.125c.073-.368.132-.684.177-.928z" fill="#F47458"/>
    <path d="M305.243 167.43c-.164 1.3-.782 2.292-1.382 2.216-.599-.075-.951-1.191-.788-2.49.164-1.299.782-2.291 1.382-2.216.6.075.952 1.191.788 2.49z" fill="#F7A491"/>
    <path d="M296.805 161.681c-1.837 4.837 4.253 9.282 9.419 10.068 3.359.511 4.95.358 5.942-3.122 1.609-5.647-.321-9.456-3.462-11.327-4.053-2.417-10.382.392-11.899 4.381z" fill="#13375B"/>
    <path d="M304.84 159.284s-2.375.48-3.88 2.627c-1.505 2.148-1.829 9.592 2.92 12.66 4.748 3.068 7.765-2.158 7.911-6.278.146-4.119-.646-9.629-6.951-9.009z" fill="#F7A491"/>
    <path d="m306.568 171.023 3.593.396s-.237 1.381-1.822 1.253c-1.933-.155-1.771-1.649-1.771-1.649z" fill="#fff"/>
    <path d="M298.461 167.262c-.268-3.903.387-6.752 3.27-7.803 2.88-1.054 5.368-2.143 7.473.666l.509.379s-4.728.686-5.288 3.081c-.56 2.395-1.335 5.291-1.933 6.936-.429 1.184-1.029 3.063-1.029 3.063l-.709-1.067c-.002-.002-2.025-1.352-2.293-5.255z" fill="#13375B"/>
    <path d="M303.715 167.849c.246 1.1-.173 2.118-.934 2.278-.762.159-1.576-.605-1.822-1.703-.246-1.1.173-2.118.934-2.277.762-.16 1.576.604 1.822 1.702z" fill="#F7A491"/>
    <path d="M293.083 180.477c-.079.268-.128.423-.128.423l.496-.504a19.86 19.86 0 0 0-.368.081zM312.442 197.972c-.13-2.586-3.125-13.187-3.8-14.393-.264-.469-.439-.565-1.003-.604 1.386 4.221 2.415 10.508 2.415 10.508-2.541.485-6.161 0-6.161 0-3.001-6.936-4.044-10.063-5.653-13.287 0 0-.111-.086-.343-.155a1.769 1.769 0 0 0-.802-.044l-.682.111s6.827 14.51 6.243 16.925c-.503 2.077-5.802 8.151-11.666 9.302.144 1.384.239 2.453.239 3.037-.002 3.597-2.005 15.239-2.005 15.239-1.043 2.22-2.017 4.724-2.458 7.048-1.171 6.161.859 25.09-1.392 33.163-1.22 4.37-5.84 11.117-6.541 16.764-.702 5.647-3.458 20.436-3.458 20.436l6.242 1.244 14.506-36.939 11.379-33.386 1.399-8.248c1.224-.463 2.171-1.109 2.678-1.997-.009-.002.994-22.138.863-24.724z" fill="#355389"/>
    <path d="m330.512 194.014.529.079a31.378 31.378 0 0 1 2.008-5.633c3.486-7.432 2.632-8.592 7.26-12.866 4.629-4.275 6.449-14.316 6.449-14.316s3.612-11.172 2.503-16.498c-1.107-5.328-.487-10.393-4.214-16.414 0 0-1.948 7.001-3.52 10.078-1.574 3.08-3.07 6.022-3.449 13.924-.381 7.903.02 8.627-.104 10.672-.124 2.046-1.702 10.506-1.483 11.974.219 1.47-4.211 10.747-5.063 14.893-.257 1.249-.591 2.661-.916 4.107z" fill="#215E4B"/>
    <path d="M332.507 192.553c.734-1.173 1.883-2.276 3.674-2.77 4.686-1.292 7.642-.801 10.393-5.193 2.752-4.394 3.728-10.82 4.636-12.046 0 0-1.833-.6-4.226 2.486-2.393 3.085-4.049 5.399-5.435 7.194-1.383 1.795-2.869 1.007-4.427 2.295-1.306 1.078-2.778 3.826-3.394 5.24a5.89 5.89 0 0 1-.763 1.286c-.281.359-.616.795-.824 1.111-.046.071-.097.18-.155.321l.521.076zM325.727 191.798c-.241-1.33-.883-2.745-2.328-3.843-3.781-2.868-6.639-3.49-7.544-8.471-.906-4.981.538-11.161.159-12.6 0 0 1.879.119 2.933 3.783 1.054 3.663 1.718 6.362 2.322 8.489.605 2.128 2.236 1.953 3.183 3.684.795 1.45 1.134 4.474 1.18 5.979.016.489.089.974.228 1.443.126.427.27.943.346 1.306.015.08.024.199.024.345l-.503-.115z" fill="#3C8F7C"/>
    <path d="M319.757 160.94c-1.275 5.481 2.322 5.585 1.931 9.138-.392 3.553 3.311 10.231 4.801 14.807.775 2.379.673 5.822.396 8.578l1.716.261c.387-7.024-1.691-12.268-2.783-16.386-1.405-5.299-1.386-7.619 1.043-11.229 2.428-3.611 1.253-14.073 4.547-18.157 3.296-4.084 3.024-11.32 2.831-14.114-.19-2.794.75-4.529 1.722-7.296.972-2.767.458-7.077.458-7.077-.633 3.515-4.053 7.936-6.468 10.738-2.415 2.803-7.369 10.674-7.517 14.559-.149 3.885-.408 4.14-.408 4.14-2.145 4.908-.994 6.554-2.269 12.038z" fill="#215E4B"/>
    <path d="M327.111 164.411c-.882 5.321 2.99 7.973 2.47 10.915-.52 2.942-.064 6.256.367 8.753.273 1.58-.639 5.729-1.326 9.649l1.16.175c.731-2.844 1.685-6.966 1.86-8.83.239-2.544 1.698-4.385 2.508-8.76.812-4.372 2.349-8.192 1.246-14.036-1.102-5.844.264-12.417-6.948-19.777 0 0-2.427 6.265-1.882 9.959.547 3.695 1.428 6.63.545 11.952z" fill="#3C8F7C"/>
    <path d="M327.111 164.41c-.882 5.322 2.99 7.974 2.47 10.916s-.064 6.256.367 8.753c.273 1.58-.639 5.729-1.326 9.649l.481.073c.19-.812.332-1.319.332-1.319l1.749-9.906s.701-7.854.799-14.325c.097-6.47-3.535-25.749-3.535-25.749s-2.427 6.265-1.882 9.959c.547 3.692 1.428 6.628.545 11.949z" fill="#327F6B"/>
    <path d="m330.201 189.731-.777-.118-10.382-1.576a1.197 1.197 0 0 0-1.37 1.284l1.463 17.771a1.196 1.196 0 0 0 1.012 1.085l6.313.958.777.118 6.314.958a1.196 1.196 0 0 0 1.288-.735l6.672-16.536a1.196 1.196 0 0 0-.928-1.631l-10.382-1.578z" fill="#F47458"/>
    <path d="M328.225 201.253c.219-.638-2.876-1.14-3.044-1.782-.166-.645 3.905-.709 4.049-1.273.265-1.043-4.463-.204-4.372-.691.09-.487 4.925-1.592 4.398-2.426-.527-.835-4.892 1.669-5.027 1.102-.135-.566 4.27-1.961 4.186-3.205-.044-.664-7.225 3.338-8.06 2.982-.837-.359.886-3.489.219-3.949-.666-.461-2.548 6.357-3.006 6.585-.456.228-10.156 5.809-13.612 6.703-.425-1.158-3.462-7.287-3.836-8.381-1.935 1.388-4.186 1.698-6.182 2.962 1.463 3.63 6.479 12.565 7.49 13.019 3.082 1.379 14.951-8.534 17.322-10.232 2.373-1.7 3.735-1.155 5.342-1.696 1.605-.54 3.913.919 4.133.282z" fill="#F7A491"/>
    <path d="M293.011 200.854s-4.2-9.311-4.837-12.923c-.638-3.613 2.461-8.149 5.709-7.857 3.247.293 8.115 16.368 8.115 16.368l-8.987 4.412z" fill="#89A6E5"/>
    <path d="M763.687 221.339a1.138 1.138 0 0 1-.208-.164c-2.028-2.023-19.051-19.01-19.587-19.962-.482-.859-5.525-18.661-5.525-18.661l8.793.48 4.088 16.496c.525.724 10.701 13.8 10.701 13.8s1.802 2.448 2.953 3.827a38.3 38.3 0 0 0 1.171.395c.757.185 1.457.243 2.061.272.762.035 2.271.301 2.608.456.389.179 1.182.578 1.653.821.472.244 1.039.514 1.273.673.144.097.52.177.795.226.407.073.518.611.168.83-.33.208-.883.126-1.226.073-.97-.148-2.333-.919-2.349-.77-.015.148 1.729 2.145 1.915 2.386.186.241 2.2 2.572 2.442 3.154.241.583-.08.826-.414.687-.288-.12-3.312-3.137-3.312-3.137s-.387-.383-.405-.093c-.02.29 2.72 3.033 3.052 3.517.333.485.326.966-.225.923-.673-.05-3.416-3.156-3.416-3.156s-.35-.383-.452-.184c-.101.199 2.269 2.495 2.38 2.807.113.312-.082.711-.578.569-.584-.166-3.01-2.962-3.01-2.962s-.244-.159-.257.007c-.013.166 1.868 2.266 1.888 2.649.018.321-.27.341-.27.341-.602.177-2.149-2.118-3.174-2.946-1.025-.828-1.784-2.238-3.113-3.093-.081-.05-.29-.179-.42-.261z" fill="#F8A492"/>
    <path d="m741.339 197.109 10.433-3.135s-1.598-9.012-3.02-12.587c-3.969-9.983-11.451-7.765-12.394-5.687-2.107 4.654 4.981 21.409 4.981 21.409z" fill="#89A6E5"/>
    <path d="M746.788 184.478c.217 1.514 2.967 43.252 2.967 43.252-18.827 9.205-27.992 1.058-27.992 1.058s.616-28.901-.122-32.835c-.489-2.603-1.098-19.896.569-20.381 2.139-.622 4.591-1.281 7.263-1.562 2.28-.239 11.144-.379 12.729.159 0 0 3.677 3.942 4.586 10.309z" fill="#9BC1F9"/>
    <path d="m788.222 202.518-48.636-5.388-3.646 32.914 48.636 5.388 3.646-32.914z" fill="#F7CC7F"/>
    <path opacity=".6" d="m756.793 199.037-17.207-1.906-3.646 32.914 17.207 1.906 3.646-32.914z" fill="#ED9B8E"/>
    <path d="m777.202 201.295-10.39-1.151-.485 4.381 10.389 1.15.486-4.38z" fill="#EFEFB4"/>
    <path d="M710.506 303.941s-1.917 1.878-1.961 2.568c-.045.689-.171 8.071.613 8.762.784.691 3.084 1.178 2.344 1.952-.558.587-4.859.461-7.708.304-.832-.047-1.875-6.705-2.205-7.684-.478-1.421-1.642-4.622-1.206-5.614.213-.482 1.226-1.474 2.654-2.402 1.503-.974 2.94-3.143 2.94-3.143l4.529 5.257z" fill="#F48C7F"/>
    <path d="m730.374 308.315-1.718 4.877c-.128.77-.631 2.674-.631 3.376 0 2.632 11.832-2.234 9.18-3.4-.239-.106-.994-.95-1.071-1.844-.122-1.381.996-3.113.996-3.113l-6.756.104z" fill="#F7A491"/>
    <path d="M748.933 217.722s.863 8.722.863 8.853c0 14.107 2.787 41.665 2.258 44.319-1.293 6.47-15.21 39.471-15.21 39.471l-7.522-.903 9.802-39.513-3.606-15.905-5.104-31.439 18.519-4.883z" fill="#13375B"/>
    <path d="M703.13 301.781s4.42 12.487 6.149 13.091c.461.16 2.663.567 3.079 1.545.127.295 0 1.28 0 1.28h-9.213s-1.164-5.503-1.625-7.921c0 0-2.439-5.906-2.167-6.443.27-.536 3.777-1.552 3.777-1.552zM727.352 317.436l1.354-4.295s2.845 1.209 4.268 1.007c1.424-.201 4.2-1.007 4.2-1.007 5.678 1.875 10.331 2.785 9.483 4.295h-19.305z" fill="#5184CE"/>
    <path d="m732.016 165.11-1.35 8.939s4.936 10.643 7.883 9.72c2.472-.775.952-10.191.952-10.191s-1.348-5.056-.943-7.589c.405-2.532-6.542-.879-6.542-.879z" fill="#F7A491"/>
    <path d="M738.55 165.989c.406-2.53-6.539-.878-6.539-.878l-.113.741c.204.496.452.921.753 1.246 1.55 1.674 3.976 2.681 6.07 2.756-.206-1.363-.334-2.826-.171-3.865z" fill="#F47458"/>
    <path d="M730.875 152.466c-.197-.071-1.572 10.181 1.04 13.001 2.612 2.82 7.701 3.743 9.528 1.523 2.018-2.457 1.917-13.475-2.143-16.377-4.062-2.902-8.425 1.853-8.425 1.853z" fill="#F7A491"/>
    <path d="M737.754 145.128c-3.139.642-5.174 2.568-5.92 3.387-1.425.168-3.362.958-5.363 4.283-2.46 4.086-.645 8.615 2.22 10.836 2.864 2.222 2.825 4.788 2.825 4.788l.451-1.328a7.424 7.424 0 0 0 .359-3.126c-.067-.633-.202-1.317-.463-1.879-.688-1.483 1.479-2.471 2.088-3.704.467-.949.491-3.125 1.228-4.695l.881-1.2s2.032-1.587 4.02-1.138c1.988.45 1.702-7.048-2.326-6.224z" fill="#13375B"/>
    <path d="M733.817 160.212c.02 1.251-.547 2.275-1.266 2.286-.72.014-1.319-.991-1.342-2.242-.019-1.251.547-2.276 1.267-2.287.721-.013 1.321.992 1.341 2.243z" fill="#F7A491"/>
    <path d="m738.059 163.101 3.938-.204s-.014 1.505-1.742 1.645c-2.11.17-2.196-1.441-2.196-1.441z" fill="#fff"/>
    <path d="M746.807 184.478c-.919-6.367-4.629-10.307-4.629-10.307-.188-.064-.478-.117-.846-.162 1.567 2.021 3.686 7.219 4.182 8.775.562 1.769 1.255 11.234 1.255 11.234-1.809 1.025-10.238.904-10.238.904s-.987-8.441-2.194-12.37c-1.206-3.927-5.001-8.543-5.001-8.543-.555.058-1.102.133-1.638.219 1.167 1.446 4.855 6.25 5.596 10.163.884 4.662 4.906 20.658 0 22.227-2.43.777-7.247.696-11.491.231.016 6.063-.084 13.173-.159 17.618l-3.247 43.257-14.706 33.249s2.07 4.839 5.121 5.519l23.404-34.137 14.378-43.195a54.415 54.415 0 0 0 3.203-1.428c.002-.004-2.771-41.74-2.99-43.254z" fill="#355389"/>
    <path d="M746.72 222.855a1.205 1.205 0 0 1-.208-.163c-2.027-2.024-19.05-19.011-19.586-19.963-.483-.859-5.528-18.661-5.528-18.661l8.793.48 4.089 16.496c.524.724 10.698 13.8 10.698 13.8s1.802 2.448 2.953 3.828c.425.15.832.287 1.171.394.757.186 1.457.243 2.061.272.762.035 2.271.301 2.608.456.389.179 1.182.578 1.653.821.474.246 1.039.514 1.273.673.144.097.52.177.795.226.407.073.518.611.168.83-.33.208-.883.126-1.226.073-.97-.148-2.333-.919-2.349-.77-.015.148 1.731 2.145 1.915 2.386.186.241 2.2 2.572 2.442 3.154.241.583-.08.826-.414.687-.288-.12-3.312-3.137-3.312-3.137s-.387-.383-.405-.093c-.018.29 2.72 3.033 3.053 3.517.332.485.325.966-.226.924-.673-.051-3.416-3.157-3.416-3.157s-.35-.383-.452-.184c-.101.199 2.269 2.495 2.38 2.807.113.312-.082.708-.578.567-.584-.166-3.01-2.962-3.01-2.962s-.244-.159-.257.007c-.011.166 1.868 2.266 1.89 2.649.018.321-.27.341-.27.341-.602.177-2.149-2.118-3.174-2.946-1.025-.828-1.784-2.238-3.112-3.093-.082-.048-.288-.177-.419-.259z" fill="#F8A492"/>
    <path d="m724.455 198.501 10.435-3.135s-1.598-9.012-3.019-12.587c-3.969-9.983-11.451-7.765-12.394-5.686-2.112 4.65 4.978 21.408 4.978 21.408z" fill="#89A6E5"/>
    <path d="M492.216 305.201c-.148-.153-3.697-3.781-7.09-9.258-4.558-7.353-6.614-14.535-5.944-20.766.467-4.354 2.643-10.276 5.165-17.134 3.01-8.19 6.421-17.472 7.657-26.174 1.385-9.751-.257-16.912-5.025-21.888-4.516-4.713-9.417-7.102-14.566-7.102h-.002c-8.735 0-15.381 6.836-15.447 6.905l-2.316-2.216c.308-.323 7.673-7.892 17.763-7.892h.002c6.056 0 11.737 2.723 16.879 8.091 5.494 5.733 7.418 13.767 5.884 24.558-1.284 9.039-4.759 18.491-7.823 26.83-2.446 6.658-4.56 12.409-4.985 16.372-1.444 13.428 11.998 27.294 12.133 27.434l-2.285 2.24z" fill="#96D9C9"/>
    <path d="m501.32 310.078-1.36 1.359a2.674 2.674 0 0 1-3.778 0l-8.326-8.326a2.674 2.674 0 0 1 0-3.778l1.359-1.36a2.675 2.675 0 0 1 3.779 0l8.326 8.326a2.675 2.675 0 0 1 0 3.779z" fill="#F7CC7F"/>
    <path d="M414.796 240.542s.631 4.364.644 5.636l4.726-1.808c-.106-2.94-.445-24.445-.795-25.349-.358-.925-10.171-16.943-10.171-16.943l-6.245 6.65 8.268 10.174c.155.887 3.573 21.64 3.573 21.64z" fill="#F8A492"/>
    <path d="M434.4 302.175s-.594 6.49-.204 8.606c.053.284.168.642.301 1.039.403 1.186-.699 4.81-.699 4.81l-14.788.055c-.805.002-.267-.507.388-.976 1.071-.766 1.937-1.273 5.352-2.869.224-.104 1.036-.606 1.329-.779.741-.441 1.492-1.138 2.138-1.837 1.076-1.167 1.24-6.887 1.24-6.887l4.943-1.162z" fill="#F7A491"/>
    <path d="M426.079 312.056c3.899 1.05 6.796.405 8.421-.225.403 1.184 1.142 5.675.691 5.675-3.708 0-6.829.217-17.455.049-.381-.007-.334-1.313-.086-1.6.686-.797 8.135-3.726 8.429-3.899z" fill="#355389"/>
    <path d="M452.945 225.14s-.21 9.264-2.864 15.195c-2.586 5.777-14.96 20.026-18.25 28.343 1.016 4.691 3.812 11.285 3.611 16.485-.23 5.893.113 21.484.113 21.484l-6.641.21-8.711-40.233 13.966-36.698 5.12-17.253 13.656 12.467z" fill="#13375B"/>
    <path d="M455.813 307.623s.297 5.27.299 5.281c.108.669.54 2.322.54 2.931 0 2.285-10.138-1.939-7.867-2.953.206-.091 1.602-1.301 1.669-2.081.104-1.197.049-3.105.049-3.105l5.31-.073z" fill="#F7A491"/>
    <path d="M448.81 312.86s2.379.7 3.599.875c1.22.174 2.827-1.298 3.688-.899.95.438.987 4.746.987 4.746s-12.686.409-16.44-.151c-1.477-.221 3.3-2.942 8.166-4.571z" fill="#5184CE"/>
    <path d="M398.326 203.55c-1.379-5.374 2.375-10.43 2.375-10.43s2.499-3.556 3.688-4.341c1.751-1.156 4.587-3.766 11.197 2.224 4.73 4.288 25.153 16.105 35.695 28.543l-18.593 13.461s-16.29-12.135-18.406-13.569c-4.722-3.206-15.057-12.386-15.956-15.888z" fill="#9BC1F9"/>
    <path d="m392.187 191.079 8.252 2.359s1.774 6.072-.163 8.266c-1.625 1.84-3.945-.978-3.945-.978s-3.617-3.013-5.939-3.644c-2.322-.633 1.795-6.003 1.795-6.003z" fill="#F7A491"/>
    <path d="M394.083 193.465c.058 1.346-.093 3.356-.669 5.125-1.009-.654-2.114-1.264-3.021-1.51-1.072-.292-.77-1.592-.137-2.909a43.666 43.666 0 0 1 1.932-3.092l1.587.453c.222.501.288 1.484.308 1.933z" fill="#F47458"/>
    <path d="M385.835 180.756c.093-.175 7.488 6.139 7.413 9.771-.075 3.633-3.088 7.507-5.769 7.106-2.964-.443-9.795-8.23-8.748-12.839 1.047-4.607 7.104-4.038 7.104-4.038z" fill="#F7A491"/>
    <path d="M378.838 179.65c2.333-1.946 6.508-3.168 10.003-2.106 4.297 1.307 6.163 6.285 5.534 9.659-.629 3.373 1.127 4.823 1.127 4.823l-2.322-.664s-1.568-1.758-2.01-3.234c-.443-1.477-2.592-.793-3.794-1.273-.926-.37-2.305-1.879-3.81-2.512 0 0-3.445.225-4.923 1.467-2.522 2.119-3.146-3.373.195-6.16z" fill="#13375B"/>
    <path d="M389.293 187.791c.193 1.12.895 1.935 1.568 1.82.673-.115 1.062-1.118.87-2.24-.193-1.123-.895-1.935-1.568-1.82-.673.117-1.062 1.12-.87 2.24z" fill="#F7A491"/>
    <path d="m384.291 194.884 2.718-2.968s1.081 1.12-.077 2.461c-1.412 1.634-2.641.507-2.641.507z" fill="#fff"/>
    <path d="m415.008 242.083 5.081 2.172c.462.785.715 1.762 1.396 2.813l-4.739 7.648s-.602-1.071-.635-1.002l-.284 1.232s-.549-.15-1.142-.017c-.502.113-.591-1.355-.558-1.835.098-1.444 1.105-5.169 1.258-5.791l-.377-5.22z" fill="#F7A491"/>
    <path d="M451.232 219.46c-5.685-6.708-14.245-13.236-21.665-18.497-2.42 2.439-9.463 9.385-10.933 9.06-1.78-.396-10.327-6.014-14.424-10.229-2.834-2.916-2.781-6.373-2.48-8.226-.619.81-1.08 1.465-1.08 1.465s-.104.142-.27.397c-.042.962-.002 2.142.348 2.899.673 1.464 2.375 5.342 6.567 8.35 4.195 3.009 9.3 6.531 9.3 6.531s-4.086 4.785-5.036 4.982c0 0-9.979-8.338-13.18-12.405 1.392 3.737 11.166 12.879 15.752 15.992 2.114 1.434 18.508 13.14 18.508 13.14s9.524 38.69 9.384 37.705c-.139-.983 7.378 37.313 7.378 37.313l6.898-.162-3.23-38.302s2.53-28.222 3.23-34.965c.699-6.738-5.067-15.048-5.067-15.048z" fill="#355389"/>
    <path d="M368.716 313.695h-4.841l91.494-107.136 2.854 2.344-89.507 104.792z" fill="#F7CC7F"/>
    <path d="M420.19 248.693c.454-.686 1.229-.99 1.793-.704 1.065.536 2.683 1.687 1.946 3.489-1.063 2.603-5.764 6.198-6.046 5.328-.281-.87.211-6.44 1.16-6.882.552-.259.817-.731 1.147-1.231z" fill="#F48C7F"/>
    <path d="M455.336 213.985c-.215-.491-2.161-2.853-2.953-3.466a582.115 582.115 0 0 1-2.843-2.227c-4.416-4.385-14.887-20.487-15.635-20.853-.885-.431-19.624-.927-19.624-.927l.323 8.788 15.79-.111c.718.534 14.303 15.279 14.303 15.279s.852.644 1.83 1.412a.18.18 0 0 1-.022.073c-.44.881-.608 1.833-.679 2.796-.087 1.184-.133 2.375 1.033 3.177.37.254.631.617.901.996.352.489.873.901 1.399 1.211.516.303 1.078.179 1.499-.306.259-.299.458-.691.781-.879.558-.325 4.324-3.978 3.897-4.963z" fill="#F7A491"/>
    <path d="M424.229 184.639s.436 2.898.491 4.868c.038 1.319.014 7.166.014 7.166s-9.537 2.18-13.282 2.324c-13.743.527-8.78-9.007-7.35-10.674 3.199-3.728 20.127-3.684 20.127-3.684z" fill="#89A6E5"/>
    <path d="m379.207 295.746-15.332 17.948h4.841l13.621-15.942c-.981-3.062-3.13-2.006-3.13-2.006z" fill="#BC4D26"/>
    <path d="M370.194 312.557h-7.586a.836.836 0 0 0-.837.836v.782c0 .462.375.837.837.837h7.586a.837.837 0 0 0 .837-.837v-.782a.836.836 0 0 0-.837-.836z" fill="#F7CC7F"/>
    <path d="M376.108 313.695h-22.013a2.882 2.882 0 0 0-2.882 2.882v1.005h27.779v-1.005a2.885 2.885 0 0 0-2.884-2.882z" fill="#FE875E"/>
    <path d="M521.787 293.338h12.199a2.683 2.683 0 0 0 2.683-2.685v-1.871a2.684 2.684 0 0 0-2.683-2.685h-12.199a2.685 2.685 0 0 0-2.685 2.685v1.871a2.684 2.684 0 0 0 2.685 2.685z" fill="#F7CC7F"/>
    <path d="M543.058 292.838v20.576a4.246 4.246 0 0 1-4.246 4.245h-44.209a4.245 4.245 0 0 1-4.246-4.245v-.412c0-12.064 9.393-22.046 21.435-22.776l26.761-1.625a4.245 4.245 0 0 1 4.505 4.237z" fill="#96D9C9"/>
    <path d="M543.058 307.86v5.554a4.247 4.247 0 0 1-4.246 4.246h-44.209a4.246 4.246 0 0 1-4.246-4.246v-.412c0-1.766.204-3.486.585-5.142h52.116z" fill="#96D9C9"/>
    <path d="M535.444 317.298c6.32-1.492 10.234-7.826 8.741-14.146-1.492-6.32-7.825-10.234-14.146-8.741-6.32 1.492-10.233 7.825-8.741 14.146 1.492 6.32 7.826 10.233 14.146 8.741z" fill="#001333"/>
    <path d="M532.75 315.191a9.29 9.29 0 0 0 9.29-9.29 9.29 9.29 0 0 0-9.29-9.291 9.29 9.29 0 1 0 0 18.581z" fill="#BAE1F4"/>
    <path d="M65.657 248.759h53.017V230.2H65.657v18.559z" fill="#F4F4F4"/>
    <path d="M65.657 233.91h53.017v-.312H65.657v.312zM65.657 236.973h53.017v-.312H65.657v.312zM65.657 240.035h53.017v-.312H65.657v.312zM65.657 243.096h53.017v-.312H65.657v.312z" fill="#D3E5F4"/>
    <path d="M92.54 236.972s-24.946 2.14-28.071 4.828c0 0 .157-3.188 1.189-5.14l7.814.296 19.068.016zM65.657 246.142h53.017v-.312H65.657v.312z" fill="#D3E5F4"/>
    <path d="M106.055 230.2v18.559h12.62V230.2h-12.62z" fill="#D3E5F4"/>
    <path d="M337.958 233.895h53.017v-18.559h-53.017v18.559z" fill="#F4F4F4"/>
    <path d="M337.958 219.046h53.017v-.312h-53.017v.312zM337.958 222.109h53.017v-.312h-53.017v.312zM337.958 225.171h53.017v-.312h-53.017v.312zM337.958 228.231h53.017v-.312h-53.017v.312z" fill="#D3E5F4"/>
    <path d="M364.841 222.108s-24.946 2.14-28.071 4.827c0 0 .157-3.187 1.188-5.14l7.814.297 19.069.016zM337.958 231.278h53.017v-.312h-53.017v.312z" fill="#D3E5F4"/>
    <path d="M378.354 215.336V233.895h12.62V215.336h-12.62z" fill="#D3E5F4"/>
    <path d="M122.527 211.641H69.51V230.2h53.017v-18.559z" fill="#F4F4F4"/>
    <path d="M122.525 215.039H69.508v.312h53.017v-.312zM122.525 218.101H69.508v.312h53.017v-.312zM122.525 221.162H69.508v.312h53.017v-.312zM122.525 224.226H69.508v.312h53.017v-.312z" fill="#D3E5F4"/>
    <path d="M95.64 218.413s24.946 2.14 28.072 4.828c0 0-.157-3.188-1.189-5.14l-7.814.296-19.068.016zM122.525 227.271H69.508v.313h53.017v-.313z" fill="#D3E5F4"/>
    <path d="M82.127 211.641V230.2H69.51v-18.559h12.617z" fill="#D3E5F4"/>
    <path d="M613.464 74.446v-2.012H578.01v2.012h-39.319a8.9 8.9 0 0 0 8.901 8.901h94.948a8.9 8.9 0 0 0 8.901-8.9h-37.977z" fill="#F7CC7F"/>
    <path d="M651.438 68.98V44.257h-1.337v24.725H539.359V44.256h-1.337v24.725h-3.889v8.9h121.861v-8.9h-4.556z" fill="#183658"/>
    <path d="M270.079 74.446v-2.012h-35.454v2.012h-39.318a8.9 8.9 0 0 0 8.901 8.901h94.947a8.9 8.9 0 0 0 8.901-8.9h-37.977z" fill="#F7CC7F"/>
    <path d="M308.059 68.98V44.257h-1.339v24.725H195.98V44.256h-1.339v24.725h-3.887v8.9h121.859v-8.9h-4.554z" fill="#183658"/>
    <path d="M834.644 271.861c-.236-2.101-.52-4.248-1.494-6.121-1.184-2.277-3.267-3.922-5.087-5.733a31.832 31.832 0 0 1-7.584-12.089c-1.213-3.506-1.819-7.245-3.491-10.556-1.02-2.024-2.415-3.83-3.575-5.776-2.742-4.6-4.234-10.034-7.953-13.884-.715 4.667.699 9.621 3.77 13.202.916 1.07 1.979 2.03 2.676 3.254 1.266 2.218 1.151 4.926 1.299 7.478a32.864 32.864 0 0 0 3.927 13.745c2.44 4.48 5.962 8.469 7.265 13.403.979 3.697.687 7.843 2.772 11.049.226.347.485.695.54 1.106.031.231-.004.465-.042.695l-.139.893c-.474 3.026-.966 6.875 1.635 9.14 1.802 1.569 4.122 1.605 5.415-.481 1.304-2.098 1.186-5.171 1.091-7.533-.161-3.936-.582-7.88-1.025-11.792z" fill="#3C8F7C"/>
    <path d="M839.329 269.428c-1.012-3.502-2.582-6.838-3.37-10.399-.763-3.454-.768-7.024-.772-10.559-.002-3.876-.007-7.753-.009-11.626-.002-2.413-.004-4.839-.403-7.219-.859-5.12-3.52-9.853-3.969-15.026-.195-2.236.031-4.496-.215-6.728-.139-1.275-.467-2.576-1.058-3.708-.635-1.215-2.388-1.162-2.962.085-1.292 2.8-2.111 5.826-1.589 8.828.312 1.799 1.094 3.477 1.673 5.208 2.593 7.71 1.216 16.244 3.221 24.129.605 2.38 1.521 4.713 1.627 7.168.255 5.873-4.13 11.236-3.727 17.1.329 4.808 3.785 8.786 5.237 13.382.812 2.572.985 5.317 1.855 7.869.675 1.984 2.249 4.392 4.691 3.79 2.318-.571 1.618-2.464 1.514-4.27-.348-6.119-.018-12.051-1.744-18.024z" fill="#327F6B"/>
    <path d="M844.632 272.638c-.102-1.819-.41-3.65-.155-5.454.215-1.525.821-2.962 1.255-4.438.812-2.768 1.014-5.674 1.211-8.552l1.071-15.695c.556-8.132 1.114-16.288 2.634-24.294.423-2.223.897-4.633-.104-6.663-.21-.428-.624-.881-1.08-.74-.323.102-.482.459-.6.777-3.322 9.034-4.58 18.759-8.29 27.64-.89 2.127-1.923 4.221-2.382 6.479-.553 2.714-.248 5.517-.177 8.284.102 3.971-.283 7.971-1.381 11.787-.573 1.997-1.342 3.949-1.656 6.004-.392 2.561-.062 5.171.182 7.75.471 4.958.631 9.948.478 14.926-.091 2.927 2.382 2.851 4.018 1.052 1.144-1.258 1.133-2.639 1.525-4.204 1.29-5.14 3.763-9.087 3.451-14.659z" fill="#3C8F7C"/>
    <path d="M829.193 280.574c-2.185-3.511-6.537-5.507-7.933-9.401-.357-.992-.494-2.057-.928-3.015-.965-2.13-3.157-3.334-5.313-4.312a.455.455 0 0 0-.644.409 1.554 1.554 0 0 0 .675 1.315 8.753 8.753 0 0 1 3.485 4.75c.666 2.283.376 4.784 1.204 7.013.695 1.871 2.125 3.4 2.796 5.28.613 1.718.549 3.595.839 5.397.287 1.802 1.089 3.712 2.742 4.476 5.986 2.756 4.49-9.643 3.077-11.912z" fill="#327F6B"/>
    <path d="M854.089 279.416c-.093 1.698.166 3.478-.498 5.041-.425 1-1.189 1.811-1.817 2.696-2.203 3.117-3.002 7.531-6.389 9.286-.224.115-.472.219-.719.173-.348-.064-.574-.399-.713-.724-.83-1.935.102-4.113.653-6.143.097-.356.177-.75.009-1.078-.186-.358-.611-.516-.901-.797-.578-.562-.525-1.494-.41-2.293a52.018 52.018 0 0 1 1.209-5.928c.294-1.107.631-2.223 1.268-3.172.702-1.045 1.72-1.827 2.674-2.646a31.672 31.672 0 0 0 9.251-13.658c.392-1.14.74-2.342 1.547-3.236.808-.892 2.25-1.353 3.235-.66.699.494-2.168 5.107-2.504 5.66-.956 1.581-.97 2.958-1.507 4.713-1.324 4.306-4.136 8.155-4.388 12.766z" fill="#3C8F7C"/>
    <path d="M850.75 281.38c.627-1.618 1.258-3.259 1.464-4.983.23-1.917-.076-3.876.252-5.78.42-2.446 1.846-4.598 2.552-6.975.509-1.718.636-3.522.941-5.289.877-5.049 3.25-9.983 2.568-15.061-.148-1.105-.647-2.393-1.745-2.581-.991-.171-1.897.737-2.153 1.713-.259.976-.067 2.003.004 3.011a12.434 12.434 0 0 1-2.227 7.971c-1.558 2.207-3.823 3.867-5.226 6.178-1.723 2.834-1.955 6.291-2.834 9.488-1.746 6.36-6.127 11.907-6.926 18.453-.319 2.605.294 5.771 2.698 6.811 6.96 3.009 9.058-8.883 10.632-12.956z" fill="#327F6B"/>
    <path d="M838.595 289.448h-15.958a1.693 1.693 0 0 0-1.645 2.086l5.817 24.531a1.69 1.69 0 0 0 1.643 1.302h19.17a1.69 1.69 0 0 0 1.645-1.302l5.817-24.531a1.693 1.693 0 0 0-1.645-2.086h-14.844z" fill="#9BC1F9"/>
    <path d="M797.545 156.745c16.47 0 29.822-13.335 29.822-29.785 0-16.449-13.352-29.784-29.822-29.784s-29.822 13.335-29.822 29.784c0 16.45 13.352 29.785 29.822 29.785z" fill="#F7CC7F"/>
    <path d="M797.545 153.196c14.508 0 26.269-11.746 26.269-26.236s-11.761-26.236-26.269-26.236-26.27 11.746-26.27 26.236 11.762 26.236 26.27 26.236z" fill="#fff"/>
    <path d="M773.906 126.538v.622h8.104v-.622h-8.104zM813.135 126.538v.622h8.104v-.622h-8.104zM797.823 103.525h-.622v8.093h.622v-8.093zM797.823 142.547h-.622v8.093h.622v-8.093z" fill="#C5DDF9"/>
    <path d="M798.276 126.96a.732.732 0 0 1-1.465 0 .731.731 0 0 1 1.465 0z" fill="#B0C1EC"/>
    <path d="M797.543 127.288a.328.328 0 0 1-.233-.095l-13.153-13.138a.325.325 0 0 1 0-.463.326.326 0 0 1 .462 0l13.154 13.138a.327.327 0 0 1-.23.558z" fill="#B0C1EC"/>
    <path d="M801.773 140.238a.228.228 0 0 1-.119-.137l-4.253-12.826a.238.238 0 0 1 .452-.151l4.252 12.826a.238.238 0 0 1-.332.288z" fill="#B0C1EC"/>
    <path d="M622.029 163.565c0 1.246.465 2.258 1.041 2.258.575 0 1.04-1.012 1.04-2.258s-.465-2.258-1.04-2.258c-.576 0-1.041 1.012-1.041 2.258z" fill="#F7A491"/>
    <path d="m591.173 290.403 5.797 16.85-2.087.772-1.207-2.685.394 3.053h-.58l-.602-1.913.047 3.989s-4.824 0-7.141-.65v-2.849l-.742 2.727-.735-.354s.365-3.35.319-3.146c-.047.204-.602 1.751-.602 1.751l-.788-.113.325-2.45-.881 2.319-.835-.407 4.266-16.89 2.227-2.156 2.825 2.152z" fill="#F7CC7F"/>
    <path d="M588.883 293.227c.671 0 1.213-.7 1.213-1.565V162.23c0-.863-.544-1.565-1.213-1.565-.671 0-1.213.7-1.213 1.565v129.432c0 .863.542 1.565 1.213 1.565z" fill="#184655"/>
    <path d="M612.221 309.923c.27-1.944.356-4.928.327-8.375h6.807c-.708 4.879-1.262 8.676-1.262 8.676l.169 1.543.004 4.553h-14.889s3.161-1.417 7.582-4.215c.325-.208 1.08-.868 1.262-2.182zM641.249 308.778l-1.979-5.669h5.179c.271 3.639.37 6.096.37 6.096l1.317 3.728 1.337 4.43s-4.407 1.135-6.718-.142l.257-4.41.237-4.033z" fill="#F7A491"/>
    <path d="M614.375 185.538c1.797-2.457 9.211-9.572 10.034-9.557 2.402.043 10.282.045 11.821.828l-.073 13.546c-.25 1.137-5.691 18.844-5.375 22.723l-.037.035c-4.561 4.403-11.75 4.058-15.921-.766 0 0 .018-5.372-.624-10.271-1.007-7.677-4.288-10.437.175-16.538z" fill="#466EB6"/>
    <path d="M631.791 178.428c-.122.688-2.189 10.908-2.189 10.908s-1.818 13.141-2.794 14.721c-.848 1.373-9.742 1.37-12.091 1.346a67.073 67.073 0 0 0-.341-3.329c-1.005-7.677-4.287-10.435.177-16.536 1.76-2.404 8.904-9.275 9.973-9.548l.06-.009s7.327 1.758 7.205 2.447z" fill="#86B1F2"/>
    <path d="M626.823 168.358s-.208 4.996.242 6.891c.449 1.894 1.047 2.038-2.805 2.614-1.514.226-2.973.564-2.973.564s.396-2.782.456-3.955c.098-1.935-.445-7.908-.445-7.908l5.525 1.794z" fill="#F7A491"/>
    <path d="M623.889 170.843c-.792.43-1.534.682-2.216.786-.13-2.36-.378-5.067-.378-5.067l5.273 1.711a6.892 6.892 0 0 1-2.679 2.57z" fill="#F47458"/>
    <path d="M641.017 312.793c2.034.906 4.223.359 5.102.071l.292.788 1.123 3.739s-4.463 1.107-6.774-.168l.257-4.43zM618.425 317.449h-15.48c-.573-.051-.713-.521-.514-.808.41-.594 2.214-1.03 4.244-1.975 3.559.376 11.03-2.083 11.593-2.909.325 1.654.476 5.621.157 5.692z" fill="#13375B"/>
    <path d="m619.594 213.337 9.071 64.532 8.262 29.756h8.987s-2.085-23.972-6.557-32.466c0 0-1.952-22.756-3.905-36.673-.292-2.081 1.154-7.48.777-8.875-2.897-10.727-5.45-16.533-5.45-16.533l-11.185.259z" fill="#355389"/>
    <path d="m625.203 241.237-2.101 24.791s2.145 14.167.673 23.567a309.71 309.71 0 0 1-3.424 18.027h-8.262l-1.642-46.814s-3.177-25.437-2.077-32.334c1.1-6.898 6.449-16.127 6.449-16.127l12.996.593s3.524 12.627 2.929 16.866c-.441 3.148-5.541 11.431-5.541 11.431z" fill="#466EB6"/>
    <path d="m585.08 294.305.914-6.349 1.738-2.322h2.309l1.738 2.322.847 6.4c-1.299-.702-6.247-.753-7.546-.051z" fill="#184655"/>
    <path d="M584.866 183.884c-.356-.381-.394-.708-.232-.972.159-.263.48-.423.506-.476.029-.053-.059-.192-.059-.192-.237-.235-.115-.671.037-.864.153-.192.585-.347.771-.316.186.031.237-.04.237-.04.053-.317.77-.914 1.131-.821.358.09 1.529 1.179 1.695 1.226.166.046.483.1.653.255.171.154 1.804.905 2.046 1.126.243.219.586 1.364.927 1.935.341.571.512 1.764.582 2.087.043.191.589.715 1.036 1.116.364.337 11.589 9.253 14.799 12.354l5.069-11.353 8.168 1.43c.098-.051-5.472 17.328-10.796 18.03-5.888.775-19.019-15.883-20.332-17.581-.403-.31-.808-.609-.894-.637-.18-.06-1.114-.722-1.185-.789-.07-.066-.5-.192-.679-.252-.179-.06-1.798-1.631-2.07-1.877-.272-.246-.675-.976-.675-.976l-1.036-1.096c-.759-.801.301-1.317.301-1.317z" fill="#F8A492"/>
    <path d="M627.254 181.533c1.116 4.591-4.83 14.825-4.83 14.825s-8.469-3.996-9.959-5.718c0 0 5.755-9.93 6.132-10.535 1.706-2.734 4.026-2.736 5.536-2.559 1.213.142 3.121 3.987 3.121 3.987z" fill="#89A6E5"/>
    <path d="M637.98 198.72c9.821-2.949 7.192-11.606 7.136-11.278.029-.268.954-1.357 1.413-2.289 1.908-3.883-.609-8.558-3.491-10.174 1.91-4.937.013-9.674-3.586-11.646-1.818-.996-3.345-2.413-4.574-4.051-2.725-3.635-7.681-7.296-13.64-6.101-5.895 1.507 1.996 4.923 1.215 10.597-.396 2.875.742 2.463 2.519 4.774-2.557 4.494-1.078 12.038 2.842 15.458-1.921 8.098.144 17.718 10.166 14.71z" fill="#184655"/>
    <path d="M630.682 159.14c1.16 4.786-5.12 8.259-10.092 8.388-3.232.082-4.717-.25-5.24-3.655-.847-5.523 1.428-8.892 4.618-10.285 4.115-1.799 9.758 1.605 10.714 5.552z" fill="#184655"/>
    <path d="M623.378 155.921s2.187.735 3.351 2.942c1.165 2.207.587 9.276-4.261 11.607-4.848 2.33-7.077-2.962-6.725-6.869.352-3.905 1.755-9.017 7.635-7.68z" fill="#F7A491"/>
    <path d="m620.348 166.802-3.44-.053s.06 1.332 1.572 1.399c1.844.084 1.868-1.346 1.868-1.346z" fill="#fff"/>
    <path d="M628.453 164.214c.717-3.653.436-6.422-2.159-7.759-2.594-1.337-4.814-2.663-7.137-.259l-.524.296s4.383 1.211 4.626 3.54c.246 2.327 2.575 5.094 2.216 6.238-.358 1.145-.772 3.422-.772 3.422l.96-.79c-.002 0 2.072-1.036 2.79-4.688z" fill="#184655"/>
    <path d="M623.936 162.815c-.363 1.009-.089 2.021.611 2.262.699.241 1.56-.383 1.921-1.39s.089-2.021-.611-2.262c-.699-.242-1.56.38-1.921 1.39z" fill="#F7A491"/>
    <path d="M579.396 291.959c.02-.379.613-9.298 9.514-9.298 8.899 0 9.492 8.919 9.514 9.298l1.038-.056c-.004-.101-.657-10.282-10.552-10.282s-10.546 10.181-10.553 10.282l1.039.056z" fill="#355389"/>
    <path d="m600.21 291.186-3.552 26.263h-15.494l-3.553-26.263h22.599z" fill="#96D9C9"/>
    <path d="M575.934 292.862h25.839v-1.864h-25.839v1.864z" fill="#3C8F7C"/>
    <path d="M855.879 317.365H41.822v1.702H855.88v-1.702z" fill="#F47458"/>
    <path d="M235.905 174.171c-.429-.401-.992-.744-1.596-1.032 2.829 2.694-.075 15.803-.664 16.261-.591.459-9.977.204-10.232-.852-.458-1.901.328-4.919 1.116-10.428.531-3.715-.37-5.878-1.011-6.894a96.15 96.15 0 0 0-2.234-.143s4.299 3.324-3.688 25.948c-.655 1.857-8.476 1.027-14.313.691-.492 1.558-.862 2.899-1.045 3.898-1.167 6.342-2.634 22.674-2.634 22.674 8.066 6.787 28.987 2.437 28.987 2.437s.193-9.861.64-17.233c.279-1.906.489-3.537.735-5.191 1.213-4.93 3.666-8.646 5.642-15.413 2.504-8.574 2.039-13.09.297-14.723z" fill="#355389"/>
    <path d="M229.11 149.655s1.024.837.648 2.123c-.376 1.286-2.935 4.894-2.541 6.534.394 1.641-.383 8.076 2.284 9.149 0 0 .749-3.969.897-3.969.148 0 2.107-1.033 2.271-1.844.164-.812.164-3.885.188-4.009.025-.124-.812-6.986-.812-6.986l-2.935-.998z" fill="#F7CC7F"/>
    <path d="M226.451 156.754c-.454 1.102-.268 2.198.416 2.446.684.248 1.608-.445 2.061-1.547.454-1.103.268-2.198-.416-2.444-.684-.25-1.607.443-2.061 1.545z" fill="#F7A491"/>
</svg>
