<svg width="415" height="415" viewBox="0 0 415 415" fill="none" xmlns="http://www.w3.org/2000/svg">
    <path d="M100.036 24.81c-13.921 19.932 2.401 52.24-18.257 67.231-20.11 14.59-44.81-9.325-63.762 3.235-28.112 18.63-22.98 103.884 18.123 156.853 12.36 15.931 22.69 22.128 27.263 40.145 9.821 38.683-24.699 61.697-18.13 80.828 14.79 43.08 242.275 79.228 333.551-50.24 42.63-60.467 49.008-147.782 10.92-214.097C320.922-11.07 131.274-19.909 100.036 24.811z" fill="#E6EDF7"/>
    <path d="M59.015 402.273c-11.674-19.341 4.802-51.037 15.183-65.404 30.253-41.873 85.838-43.289 131.41-44.451 44.765-1.139 87.979-2.24 119.604 29.879 20.66 20.982 39.657 59.475 26.989 79.976-13.326 21.562-50.326 4.852-138.323 4.558-96.788-.326-140.285 19.593-154.863-4.558z" fill="url(#yqxid14pza)"/>
    <path d="M247.152 299.842c0 8.288-20.234 18.232-45.193 18.232-24.959 0-45.193-9.946-45.193-18.232 0-8.288 20.234-4.583 45.193-4.583 24.961 0 45.193-3.703 45.193 4.583z" fill="url(#2xi1hlarib)"/>
    <path d="M185.342 242.034c-6.873 0 8.99 48.283-15.992 54.913-2.417.641-2.813 3.889-.616 5.078 6.705 3.634 19.267 8.236 39.868 8.236 13.382 0 23.172-5.053 28.255-8.464 1.739-1.167 1.565-3.767-.297-4.725-7.701-3.969-18.393-16.592-15.203-53.803l-36.015-1.235z" fill="url(#fbg3s0eogc)"/>
    <path d="M164.465 184.147c.102.605 2.181 44.677 12.254 66.687 2.89 6.317 17.233 5.561 26.515 4.8 8.062-.662 20.699 2.281 24.259-3.285 14.309-22.377 11.883-77.801 11.883-77.801s-7.332-18.44-37.394-17.935c-30.063.505-37.517 27.534-37.517 27.534z" fill="url(#0wfdaqb94d)"/>
    <path d="M171.499 207.815s-6.288-7.31-12.216-8.284c-5.926-.974-9.785 14.375-1.701 24.362 8.084 9.989 17.427 1.705 17.427 1.705l-3.51-17.783z" fill="url(#e8iwl1xx0e)"/>
    <path d="M232.782 207.815s6.288-7.31 12.216-8.284c5.926-.974 9.785 14.375 1.701 24.362-8.084 9.989-17.428 1.705-17.428 1.705l3.511-17.783z" fill="url(#vpc40x4vpf)"/>
    <path d="M166.578 207.267c.793 1.452 1.699 2.804 2.313 2.646 2.541-.662-7.262-25.431 1.769-34.101 4.668-4.483 9.925-.399 29.05-1.264 19.258-.872 24.184-5.48 30.005-1.951 5.303 3.217 10.051 12.397 6.119 39.587l3.284-.758c-1.475-8.907.136-14.526 1.975-18.069 1.343-2.584 3.771-5.916 3.583-10.73-.117-2.983-1.105-3.117-1.268-5.558-.476-7.163 7.695-9.09 8.089-16.164.303-5.448-4.395-6.684-3.536-12.377.729-4.84 4.399-5.746 3.819-9.243-.628-3.776-5.541-6.585-8.993-7.564-3.517-.999-4.79.109-6.854-1.313-3.334-2.299-1.73-6.383-4.14-7.899-4.291-2.697-12.821 8.08-18.332 5.396-3.339-1.624-2.052-6.472-5.008-7.647-5.71-2.272-15.797 13.722-19.856 11.599-1.943-1.017-.07-4.913-2.795-7.78-3.201-3.369-10.882-3.362-14.383.201-3.264 3.323-.492 7.292-3.948 11.502-3.104 3.781-6.687 2.225-10.189 5.255-5.95 5.147-3.878 16.794-3.139 20.95 2.543 14.309 10.467 17.204 8.689 26.96-.456 2.496-1.513 5.27-.759 9.345.738 4.001 2.811 7.013 4.505 8.977z" fill="url(#6ytxe0hkbg)"/>
    <path opacity=".3" d="M239.751 176.364c-.703-7.035 4.747-10.308 3.832-15.325-.736-4.032-5.296-7.656-9.579-8.431-9.137-1.651-15.054 11.803-24.139 10.345-7.027-1.128-6.247-9.616-14.177-13.027-12.569-5.409-25.743 11.083-34.102 6.514-2.512-1.372-5.051-4.901-5.232-14.471-4.793 5.504-2.913 16.098-2.215 20.021 2.544 14.309 10.467 17.203 8.689 26.959-.456 2.496-1.513 5.271-.759 9.346.741 3.998 2.815 7.01 4.51 8.974.793 1.452 1.699 2.805 2.312 2.646 2.542-.661-7.261-25.43 1.769-34.101 4.669-4.483 9.926-.399 29.05-1.264 19.258-.872 24.185-5.479 30.006-1.95 5.303 3.216 10.05 12.397 6.118 39.587 1.094-.254 2.188-.505 3.285-.759-1.475-8.906.135-14.526 1.975-18.069.552-1.064 1.289-2.258 1.952-3.628a32.36 32.36 0 0 0-1.372-7.62c-.986-3.171-1.697-3.484-1.923-5.747z" fill="url(#d2q9qq17jh)"/>
    <path d="m112.154 199.731-26.6 46.077 15.961 3.834c3.103-7.98 13.742-13.3 19.507-15.074 5.762-1.773 20.336-25.414 22.707-28.592a7.069 7.069 0 0 0 .922-1.615c.732-1.874-1.558-3.477-3.11-2.2-4.181 3.441-8.48 6.386-13.022 8.331-1.717.737-3.275-1.345-2.075-2.777 3.722-4.442 11.65-11.112 27.367-14.804 7.441-1.749 10.66-9.285 10.66-9.285l-52.317 16.105z" fill="url(#ohhzoyxibi)"/>
    <path d="m85.555 240.467 21.28 9.176s-37.04 103.188-21.525 164.81c0 0-63.339-.584-62.089-52.706 1.908-79.507 62.334-121.28 62.334-121.28z" fill="url(#85biwvb51j)"/>
    <path d="m296.001 199.731 26.599 46.077-15.96 3.834c-3.103-7.98-13.743-13.3-19.507-15.074-5.763-1.773-20.336-25.414-22.708-28.592a7.069 7.069 0 0 1-.922-1.615c-.731-1.874 1.559-3.477 3.11-2.2 4.182 3.441 8.481 6.386 13.022 8.331 1.717.737 3.276-1.345 2.075-2.777-3.721-4.442-11.649-11.112-27.367-14.804-7.441-1.749-10.659-9.285-10.659-9.285l52.317 16.105z" fill="url(#pvborocgrk)"/>
    <path d="m322.601 240.467-21.281 9.176s37.041 103.188 21.526 164.81c0 0 63.339-.584 62.088-52.706-1.907-79.507-62.333-121.28-62.333-121.28z" fill="url(#yetmbgi2ol)"/>
    <path d="M206.491 91.126c10.374.109 18.769-7.527 18.748-17.056-.02-9.53-8.448-17.342-18.822-17.453-10.377-.11-18.771 7.525-18.751 17.054.02 9.532 8.449 17.346 18.825 17.455z" fill="url(#q85nannefm)"/>
    <path d="M244.994 107.646c-32.398 18.533-68.526 10.215-92.883-7.631-7.782-5.704-14.741-12.184-21.255-18.953-2.431-2.523-6.979-5.637-5.584-9.74.653-1.916 2.567-3.653 3.917-5.24 3.742-4.402 7.717-8.683 12.03-12.708 6.904-6.449 14.537-11.742 22.95-16.556-8.175 4.678-15.426 10.576-21.884 16.955-4.204 4.154-8.075 10.367-10.106 15.518-1.665 4.22-.458 5.38 2.102 8.045 13.731 14.302 29.917 29.519 51.195 35.669 20.003 5.78 43.576 3.76 63.178-7.452-1.22.695-2.441 1.393-3.66 2.093z" fill="#97A6B7"/>
    <path d="M283.562 70.034c-20.558-26.473-44.099-43.459-76.592-44.009l-.612-.009c-32.296-.342-55.696 15.842-76.572 41.662-1.574 1.946-1.463 4.65.259 6.528 21.887 23.908 45.558 41.633 77.183 41.968.598.007 1.198.007 1.803 0 30.889-.317 51.225-15.482 74.216-39.637 1.73-1.817 1.862-4.512.315-6.503zm-35.807 27.088h-12.159v10.089h-53.549v-4.916h-6.986v-5.173h-11.124V50.558h13.657c6.636-7.966 17.142-13.049 28.984-12.922 11.538.122 21.826 5.164 28.517 12.922h12.656v46.564h.004z" fill="url(#0gbtq7ihjn)"/>
    <path d="m233.793 112.219-3.66 2.093a79.438 79.438 0 0 0 12.252-5.235l3.66-2.093a79.313 79.313 0 0 1-12.252 5.235zM246.047 106.984l-3.66 2.093c.874-.462 1.744-.94 2.607-1.434l3.66-2.093c-.865.494-1.733.972-2.607 1.434z" fill="#97A6B7"/>
    <path d="M169.721 73.484c-.041-18.628 16.37-33.558 36.656-33.342 20.284.215 36.76 15.49 36.801 34.119.041 18.63-16.37 33.557-36.654 33.342-20.286-.213-36.762-15.489-36.803-34.12zm36.692-16.864c-10.376-.11-18.771 7.525-18.75 17.054.02 9.53 8.448 17.344 18.825 17.453 10.374.11 18.768-7.527 18.748-17.057-.02-9.529-8.449-17.341-18.823-17.45z" fill="url(#s05axpojbo)"/>
    <path d="M244.994 108.243c-32.398 17.473-68.526 9.632-92.883-7.194-7.782-5.375-14.741-11.486-21.255-17.864-2.431-2.381-6.979-5.314-5.584-9.18.653-1.806 2.567-3.444 3.917-4.943 3.742-4.15 7.717-8.184 12.03-11.98 6.904-6.08 14.537-11.07 22.95-15.607-8.175 4.408-15.426 9.971-21.884 15.983-4.204 3.916-8.075 9.773-10.106 14.628-1.665 3.977-.458 5.071 2.102 7.585 13.731 13.485 29.917 27.829 51.195 33.626 20.003 5.447 43.576 3.545 63.178-7.026-1.22.656-2.441 1.316-3.66 1.972z" fill="url(#5w4ag2pwjp)"/>
    <path d="M209.029 116.285c-.603.007-1.205.007-1.803 0-31.623-.315-55.294-17.027-77.181-39.565-1.722-1.771-1.833-4.322-.259-6.154 20.876-24.343 44.276-39.599 76.572-39.277.202.002.408.005.612.01 32.492.518 56.034 16.53 76.592 41.489 1.547 1.878 1.415 4.42-.317 6.132-22.989 22.768-43.327 37.066-74.216 37.365zm-2.447-74.042c-20.121-.201-36.398 13.758-36.359 31.177.041 17.42 16.383 31.705 36.504 31.906 20.119.202 36.396-13.756 36.355-31.177-.038-17.42-16.383-31.704-36.5-31.906z" fill="#fff"/>
    <path d="m233.793 112.556-3.66 1.973a81.967 81.967 0 0 0 12.252-4.933l3.66-1.973a81.839 81.839 0 0 1-12.252 4.933z" fill="#A3A3A3"/>
    <path d="m246.047 107.621-3.66 1.973a85.925 85.925 0 0 0 2.607-1.353l3.66-1.972a90.8 90.8 0 0 1-2.607 1.352z" fill="#9E9E9E"/>
    <path d="M89.317 29.06C77.357 41.065 70.79 57.032 70.822 74.018c.034 16.986 5.165 32.182 17.17 44.14 2.485 2.476 8.007 3.214 10.483.727a6.35 6.35 0 0 0-.018-8.983c-9.6-9.564-14.902-22.316-14.93-35.91-.027-13.592 5.226-26.365 14.79-35.967a6.332 6.332 0 0 0 1.852-4.496 6.339 6.339 0 0 0-.77-3.015h.002s-2.045-4.47-7.148-4.784c.194.573.407 1.079.63 1.534a6.325 6.325 0 0 0-3.566 1.796z" fill="url(#ujmu7kwerq)"/>
    <path d="M107.319 46.993c-14.832 14.89-16.465 38.2-1.574 53.035 2.485 2.476 8.188 3.341 10.664.854a6.35 6.35 0 0 0-.018-8.984c-9.928-9.889-9.96-26.01-.07-35.94a6.327 6.327 0 0 0 1.852-4.496 6.322 6.322 0 0 0-1.714-4.317c.002 0 .004-.003.007-.003 0 0-2.458-3.103-6.828-3.54.752.594 1.394 1.099 1.955 1.531a6.338 6.338 0 0 0-4.274 1.86z" fill="url(#uxft6gg91r)"/>
    <path d="M75.448 9.272a6.322 6.322 0 0 0-4.136 1.853c-16.741 16.807-25.935 39.16-25.89 62.943.045 23.781 7.389 45.032 24.196 61.771 2.485 2.476 8.446 3.538 10.922 1.051a6.35 6.35 0 0 0-.018-8.983C66.121 113.56 58.165 94.431 58.127 74.043c-.038-20.388 7.84-39.549 22.184-53.95a6.33 6.33 0 0 0 1.219-7.24l.007-.002s-.018-.052-.061-.147c-.322-.734-1.991-3.996-6.619-4.793.218.483.412.936.591 1.361z" fill="url(#gb5njw6ycs)"/>
    <path d="M79.725 14.077a6.335 6.335 0 0 1-1.853 4.496c-14.347 14.401-22.225 33.562-22.184 53.95.038 20.388 7.993 39.517 22.395 53.864a6.354 6.354 0 0 1 .018 8.984 6.352 6.352 0 0 1-8.984.018C52.312 118.65 43.03 96.329 42.983 72.548c0-.002 0 .002 0 0-.046-23.784 9.148-46.136 25.89-62.943a6.35 6.35 0 0 1 10.852 4.472z" fill="url(#ikmds02v8t)"/>
    <path d="M97.73 32.012a6.335 6.335 0 0 1-1.853 4.496c-9.563 9.602-14.816 22.375-14.79 35.968.028 13.593 5.328 26.345 14.93 35.908a6.354 6.354 0 0 1 .018 8.984 6.35 6.35 0 0 1-8.983.018c-12.005-11.958-18.635-27.9-18.67-44.885-.033-16.986 6.536-32.953 18.495-44.958a6.35 6.35 0 0 1 10.853 4.469z" fill="url(#szdj6dzh9u)"/>
    <path d="M115.732 49.945a6.332 6.332 0 0 1-1.853 4.496c-9.889 9.928-9.857 26.049.071 35.94a6.353 6.353 0 1 1-8.968 9.002c-14.89-14.834-14.938-39.014-.104-53.907a6.35 6.35 0 0 1 8.983-.018 6.31 6.31 0 0 1 1.871 4.487z" fill="url(#rv0k1n83fv)"/>
    <path d="M320.545 29.06c11.96 12.005 18.526 27.972 18.494 44.958-.033 16.986-5.164 32.182-17.169 44.14-2.485 2.476-8.007 3.214-10.483.727a6.35 6.35 0 0 1 .018-8.983c9.6-9.564 14.902-22.316 14.93-35.91.027-13.592-5.226-26.365-14.789-35.967a6.332 6.332 0 0 1-1.853-4.496c.002-1.04.26-2.077.77-3.015h-.002s2.045-4.47 7.148-4.784a12.955 12.955 0 0 1-.629 1.534 6.324 6.324 0 0 1 3.565 1.796z" fill="url(#rdz8e3kcuw)"/>
    <path d="M302.541 46.993c14.832 14.89 16.465 38.2 1.575 53.035-2.485 2.476-8.189 3.341-10.664.854a6.35 6.35 0 0 1 .018-8.984c9.928-9.889 9.959-26.01.07-35.94a6.333 6.333 0 0 1-1.853-4.496 6.324 6.324 0 0 1 1.715-4.317l-.007-.003s2.458-3.103 6.827-3.54c-.752.594-1.393 1.099-1.955 1.531a6.336 6.336 0 0 1 4.274 1.86z" fill="url(#h1efiurcax)"/>
    <path d="M334.413 9.272c1.506.087 2.987.7 4.136 1.853 16.741 16.807 25.935 39.16 25.89 62.943-.045 23.781-7.389 45.032-24.196 61.771-2.485 2.476-8.446 3.538-10.922 1.051a6.35 6.35 0 0 1 .018-8.983c14.401-14.347 22.356-33.476 22.395-53.864.038-20.388-7.84-39.549-22.184-53.95a6.328 6.328 0 0 1-1.219-7.24l-.007-.002s.018-.052.061-.147c.322-.734 1.991-3.996 6.619-4.793-.218.483-.412.936-.591 1.361z" fill="url(#b81n71qf0y)"/>
    <path d="M330.135 14.077a6.336 6.336 0 0 0 1.853 4.496c14.347 14.401 22.225 33.562 22.185 53.95-.039 20.388-7.994 39.517-22.395 53.864a6.352 6.352 0 1 0 8.965 9.002c16.805-16.739 26.087-39.06 26.135-62.841 0-.002 0 .002 0 0 .045-23.784-9.149-46.136-25.891-62.943a6.35 6.35 0 0 0-10.852 4.472z" fill="url(#593yucshuz)"/>
    <path d="M312.133 32.012a6.336 6.336 0 0 0 1.853 4.496c9.564 9.602 14.816 22.375 14.789 35.968-.027 13.593-5.327 26.345-14.929 35.908a6.353 6.353 0 0 0 8.965 9.002c12.005-11.958 18.635-27.9 18.669-44.885.034-16.986-6.535-32.953-18.494-44.958a6.352 6.352 0 0 0-10.853 4.469z" fill="url(#npkh8jq0cA)"/>
    <path d="M294.13 49.945a6.331 6.331 0 0 0 1.852 4.496c9.89 9.928 9.858 26.049-.07 35.94a6.353 6.353 0 1 0 8.968 9.002c14.89-14.834 14.936-39.014.104-53.907a6.35 6.35 0 0 0-8.983-.018 6.31 6.31 0 0 0-1.871 4.487z" fill="url(#dezv69fw3B)"/>
    <defs>
        <linearGradient id="yqxid14pza" x1="209.429" y1="437.718" x2="203.682" y2="359.551" gradientUnits="userSpaceOnUse">
            <stop stop-color="#FF9339"/>
            <stop offset=".996" stop-color="#FFB577"/>
        </linearGradient>
        <linearGradient id="2xi1hlarib" x1="201.96" y1="264.317" x2="201.96" y2="289.969" gradientUnits="userSpaceOnUse">
            <stop stop-color="#EF9F8E"/>
            <stop offset="1" stop-color="#E68273"/>
        </linearGradient>
        <linearGradient id="fbg3s0eogc" x1="196.646" y1="391.576" x2="212.678" y2="147.081" gradientUnits="userSpaceOnUse">
            <stop stop-color="#CBAF85"/>
            <stop offset="1" stop-color="#BA7C44"/>
        </linearGradient>
        <linearGradient id="0wfdaqb94d" x1="197.775" y1="241.136" x2="207.737" y2="121.204" gradientUnits="userSpaceOnUse">
            <stop stop-color="#CBAF85"/>
            <stop offset="1" stop-color="#BA7C44"/>
        </linearGradient>
        <linearGradient id="e8iwl1xx0e" x1="162.286" y1="238.187" x2="172.249" y2="118.256" gradientUnits="userSpaceOnUse">
            <stop stop-color="#CBAF85"/>
            <stop offset="1" stop-color="#BA7C44"/>
        </linearGradient>
        <linearGradient id="vpc40x4vpf" x1="238.128" y1="244.487" x2="248.091" y2="124.555" gradientUnits="userSpaceOnUse">
            <stop stop-color="#CBAF85"/>
            <stop offset="1" stop-color="#BA7C44"/>
        </linearGradient>
        <linearGradient id="6ytxe0hkbg" x1="195.144" y1="183.31" x2="221.582" y2="101.313" gradientUnits="userSpaceOnUse">
            <stop stop-color="#3B3138"/>
            <stop offset="1" stop-color="#241F21"/>
        </linearGradient>
        <linearGradient id="d2q9qq17jh" x1="195.144" y1="183.311" x2="221.582" y2="101.313" gradientUnits="userSpaceOnUse">
            <stop stop-color="#5D535A"/>
            <stop offset="1" stop-color="#464143"/>
        </linearGradient>
        <linearGradient id="ohhzoyxibi" x1="126.269" y1="266.371" x2="127.282" y2="307.91" gradientUnits="userSpaceOnUse">
            <stop stop-color="#CBAF85"/>
            <stop offset="1" stop-color="#BA7C44"/>
        </linearGradient>
        <linearGradient id="85biwvb51j" x1="66.07" y1="447.865" x2="29.148" y2="349.931" gradientUnits="userSpaceOnUse">
            <stop stop-color="#FF9339"/>
            <stop offset=".996" stop-color="#FFB577"/>
        </linearGradient>
        <linearGradient id="pvborocgrk" x1="281.735" y1="272.512" x2="280.722" y2="314.051" gradientUnits="userSpaceOnUse">
            <stop stop-color="#CBAF85"/>
            <stop offset="1" stop-color="#BA7C44"/>
        </linearGradient>
        <linearGradient id="yetmbgi2ol" x1="344.188" y1="447.865" x2="307.265" y2="349.931" gradientUnits="userSpaceOnUse">
            <stop stop-color="#FF9339"/>
            <stop offset=".996" stop-color="#FFB577"/>
        </linearGradient>
        <linearGradient id="q85nannefm" x1="187.667" y1="73.873" x2="225.239" y2="73.873" gradientUnits="userSpaceOnUse">
            <stop stop-color="#3B3138"/>
            <stop offset="1" stop-color="#241F21"/>
        </linearGradient>
        <linearGradient id="0gbtq7ihjn" x1="128.677" y1="71.094" x2="284.64" y2="71.094" gradientUnits="userSpaceOnUse">
            <stop stop-color="#96888E"/>
            <stop offset="1" stop-color="#706369"/>
        </linearGradient>
        <linearGradient id="s05axpojbo" x1="169.721" y1="73.873" x2="243.178" y2="73.873" gradientUnits="userSpaceOnUse">
            <stop stop-color="#95AFC7"/>
            <stop offset="1" stop-color="#7595B6"/>
        </linearGradient>
        <linearGradient id="5w4ag2pwjp" x1="125.011" y1="79.789" x2="248.654" y2="79.789" gradientUnits="userSpaceOnUse">
            <stop stop-color="#96888E"/>
            <stop offset="1" stop-color="#706369"/>
        </linearGradient>
        <linearGradient id="ujmu7kwerq" x1="12.456" y1="23.663" x2="33.298" y2="36.489" gradientUnits="userSpaceOnUse">
            <stop stop-color="#E4D6CA"/>
            <stop offset="1" stop-color="#D4BDAC"/>
        </linearGradient>
        <linearGradient id="uxft6gg91r" x1="17.347" y1="15.713" x2="38.189" y2="28.539" gradientUnits="userSpaceOnUse">
            <stop stop-color="#E4D6CA"/>
            <stop offset="1" stop-color="#D4BDAC"/>
        </linearGradient>
        <linearGradient id="gb5njw6ycs" x1="7.502" y1="31.71" x2="28.344" y2="44.536" gradientUnits="userSpaceOnUse">
            <stop stop-color="#E4D6CA"/>
            <stop offset="1" stop-color="#D4BDAC"/>
        </linearGradient>
        <linearGradient id="ikmds02v8t" x1="18.389" y1="51.664" x2="120.196" y2="90.142" gradientUnits="userSpaceOnUse">
            <stop stop-color="#F3E9E1"/>
            <stop offset="1" stop-color="#E1D1C5"/>
        </linearGradient>
        <linearGradient id="szdj6dzh9u" x1="20.646" y1="45.691" x2="122.453" y2="84.169" gradientUnits="userSpaceOnUse">
            <stop stop-color="#F3E9E1"/>
            <stop offset="1" stop-color="#E1D1C5"/>
        </linearGradient>
        <linearGradient id="rv0k1n83fv" x1="22.904" y1="39.718" x2="124.71" y2="78.196" gradientUnits="userSpaceOnUse">
            <stop stop-color="#F3E9E1"/>
            <stop offset="1" stop-color="#E1D1C5"/>
        </linearGradient>
        <linearGradient id="rdz8e3kcuw" x1="262.256" y1="56.603" x2="301.536" y2="68.627" gradientUnits="userSpaceOnUse">
            <stop stop-color="#E4D6CA"/>
            <stop offset="1" stop-color="#D4BDAC"/>
        </linearGradient>
        <linearGradient id="h1efiurcax" x1="260.764" y1="61.475" x2="300.044" y2="73.499" gradientUnits="userSpaceOnUse">
            <stop stop-color="#E4D6CA"/>
            <stop offset="1" stop-color="#D4BDAC"/>
        </linearGradient>
        <linearGradient id="b81n71qf0y" x1="263.752" y1="51.718" x2="303.032" y2="63.743" gradientUnits="userSpaceOnUse">
            <stop stop-color="#E4D6CA"/>
            <stop offset="1" stop-color="#D4BDAC"/>
        </linearGradient>
        <linearGradient id="593yucshuz" x1="280.065" y1="59.493" x2="373.855" y2="81.138" gradientUnits="userSpaceOnUse">
            <stop stop-color="#F3E9E1"/>
            <stop offset="1" stop-color="#E1D1C5"/>
        </linearGradient>
        <linearGradient id="npkh8jq0cA" x1="279.165" y1="63.398" x2="372.955" y2="85.041" gradientUnits="userSpaceOnUse">
            <stop stop-color="#F3E9E1"/>
            <stop offset="1" stop-color="#E1D1C5"/>
        </linearGradient>
        <linearGradient id="dezv69fw3B" x1="278.263" y1="67.301" x2="372.053" y2="88.945" gradientUnits="userSpaceOnUse">
            <stop stop-color="#F3E9E1"/>
            <stop offset="1" stop-color="#E1D1C5"/>
        </linearGradient>
    </defs>
</svg>
